<svg xmlns="http://www.w3.org/2000/svg" xmlns:xlink="http://www.w3.org/1999/xlink" width="491" height="450" fill="none" xmlns:v="https://vecta.io/nano"><style><![CDATA[.B{fill:#fff}.C{opacity:.69}.D{opacity:.57}.E{fill:#232323}.F{fill:#a2acd1}.G{opacity:.51}.H{fill:#6dffff}.I{fill:#78adf8}]]></style><g opacity=".62" class="I"><path d="M416.805 285.455a1.15 1.15 0 0 1 .53.928v9.272c0 .344-.239.477-.53.305l-11.776-6.796a1.19 1.19 0 0 1-.375-.401c-.092-.16-.145-.341-.155-.526v-9.272c0-.345.238-.477.543-.305l11.763 6.795z"/></g><g opacity=".27" class="I"><path d="M425.587 304.954a1.2 1.2 0 0 1 .375.401c.092.161.145.342.155.527v9.272c0 .344-.239.477-.543.305l-11.763-6.796a1.17 1.17 0 0 1-.385-.397c-.094-.161-.148-.343-.158-.53v-9.272c0-.345.252-.477.543-.318l11.776 6.808z"/></g><g opacity=".62" class="I"><path d="M59.913 239.703a1.17 1.17 0 0 1 .385.397c.095.162.149.343.158.53v9.272a.33.33 0 0 1-.165.343c-.059.034-.127.048-.195.041a.33.33 0 0 1-.183-.079l-11.763-6.795a1.17 1.17 0 0 1-.543-.927v-9.273a.33.33 0 0 1 .028-.197c.03-.061.077-.112.137-.146a.33.33 0 0 1 .378.039l11.763 6.795z"/></g><g opacity=".27" class="I"><path d="M68.642 259.268c.154.102.282.24.374.401s.145.341.155.526v9.272c0 .331-.238.477-.543.305l-11.763-6.796a1.19 1.19 0 0 1-.375-.4c-.092-.161-.145-.342-.155-.527v-9.272c0-.331.238-.477.53-.305l11.776 6.796z"/></g><path d="M102.592 228.444l.026 4.941 11.127-6.464-.013-4.928-11.14 6.451z" fill="url(#A)"/><g style="mix-blend-mode:overlay" opacity=".81" class="B"><path d="M75.993 252.658l.013 4.941 37.765-21.804-.013-4.941-37.765 21.804z"/></g><path d="M75.993 226.43l.013 4.928 37.765-21.79-.013-4.941-37.765 21.803z" fill="url(#B)"/><path d="M81.451 258.407l.013 4.928 32.334-18.664-.013-4.928-32.334 18.664z" fill="url(#C)"/><g style="mix-blend-mode:overlay" opacity=".81" class="B"><path d="M81.451 231.716l.013 4.94 32.334-18.663-.013-4.941-32.334 18.664z"/></g><g style="mix-blend-mode:overlay" opacity=".4" class="E"><path d="M12.558 332.029l50.654-30.851 73.516-44.772c5.021-3.06 12.717-3.563 17.22-1.112l194.812 106.459c4.464 2.438 3.974 6.902-1.006 9.961l-73.504 44.759-50.706 30.891c-5.02 3.059-12.716 3.55-17.22 1.112L11.551 341.99c-4.464-2.451-4.014-6.901 1.007-9.961z"/></g><path d="M351.832 365.754a3.41 3.41 0 0 0 0-.742l-.172-7.325c-.146 1.828-1.51 3.736-4.053 5.299l-123.932 75.503c-5.02 3.047-12.703 3.55-17.154 1.113L12.067 333.301c-.8-.354-1.499-.903-2.031-1.598s-.882-1.511-1.016-2.376l.185 7.855c.079.914.406 1.789.945 2.531a5.04 5.04 0 0 0 2.115 1.681l194.428 106.261c4.464 2.438 12.146 1.948 17.153-1.112l123.932-75.504c2.53-1.536 3.894-3.444 4.053-5.298v.013z" class="E"/><path d="M63.622 292.569l-50.547 30.784c-5.007 3.06-5.457 7.511-1.007 9.948l194.441 106.261c4.451 2.438 12.134 1.934 17.154-1.112l50.561-30.824L63.622 292.569z" fill="url(#D)"/><path d="M13.074 323.353a7.61 7.61 0 0 0-3.974 5.061c.086.896.41 1.753.938 2.482a5.05 5.05 0 0 0 2.068 1.664l194.441 106.261c4.451 2.437 12.134 1.947 17.154-1.113l49.925-30.4L63.622 292.569l-50.547 30.784z" fill="url(#E)"/><use xlink:href="#AW" fill="url(#F)"/><path d="M348.587 353.024L154.159 246.763c-4.464-2.437-12.134-1.934-17.154 1.113l-72.271 44.017 209.687 114.58 73.371-44.68a8.18 8.18 0 0 0 3.828-4.371 4.99 4.99 0 0 0-.879-2.638c-.537-.779-1.284-1.389-2.154-1.76z" fill="url(#G)"/><path d="M94.922 376.855l31.712 17.339c.181.064.337.182.448.339s.17.344.17.535-.059.379-.17.536a.93.93 0 0 1-.448.339l-34.798-19.022a3.35 3.35 0 0 1 1.535-.409c.537-.012 1.069.106 1.551.343z" fill="url(#H)"/><path d="M166.995 256.301l164.398 89.849 2.186-1.324-164.399-89.849-2.185 1.324z" class="E"/><g style="mix-blend-mode:multiply" opacity=".4" class="F"><use xlink:href="#AW"/></g><g style="mix-blend-mode:multiply" opacity=".4" class="F"><path d="M98.922 351.806l26.135-15.896a6.35 6.35 0 0 1 2.854-.745c.996-.02 1.984.194 2.882.626l65.012 35.513a1.75 1.75 0 0 1 1.235 1.623 1.75 1.75 0 0 1-.3 1.028c-.204.303-.499.534-.842.661l-26.135 15.895-70.841-38.705z"/></g><g style="mix-blend-mode:multiply" opacity=".4" class="F"><path d="M133.826 372.139l34.878 19.048-14.147 8.623a6.39 6.39 0 0 1-2.854.74 6.38 6.38 0 0 1-2.882-.621l-31.963-17.472 16.968-10.318zm-1.112-.623l-16.969 10.332-31.963-17.459a1.74 1.74 0 0 1-.878-.612 1.75 1.75 0 0 1-.356-1.01c-.01-.366.094-.725.299-1.028a1.75 1.75 0 0 1 .843-.661l14.147-8.61 34.878 19.048z"/></g><g style="mix-blend-mode:multiply" opacity=".6" class="F"><path d="M195.805 372.735l-65.039-35.54c-.899-.43-1.887-.642-2.883-.619s-1.974.281-2.852.752l-24.903 15.167-1.258-.689 26.134-15.896a6.35 6.35 0 0 1 2.854-.745c.996-.02 1.984.194 2.882.626l65.065 35.513c1.14.623 1.471 1.537 1.047 2.358-.26-.397-.621-.717-1.047-.927z"/></g><g style="mix-blend-mode:multiply" opacity=".6" class="F"><path d="M133.866 373.569l-15.737 9.591-1.258-.689 16.955-10.332 34.877 19.048-1.231.755-33.606-18.373z"/></g><g style="mix-blend-mode:multiply" opacity=".6" class="F"><path d="M97.876 353.898l-14.147 8.61c-.395.231-.723.559-.954.954-.464-.795-.172-1.722.914-2.384l14.147-8.61 34.878 19.048-1.232.755-33.606-18.373z"/></g><path d="M305.047 363.913l9.736 5.298a2.55 2.55 0 0 0 1.158.191c.395-.028.779-.148 1.12-.35l9.074-5.523c.675-.398.728-.994.132-1.325l-9.723-5.299c-.366-.158-.765-.227-1.163-.202a2.54 2.54 0 0 0-1.128.348l-9.074 5.537c-.662.437-.755 1.033-.132 1.325zm-13.167-7.166l9.736 5.298a2.55 2.55 0 0 0 1.158.191c.395-.028.779-.148 1.12-.35l9.074-5.523c.675-.411.728-.994.132-1.325l-9.723-5.299c-.366-.158-.765-.227-1.163-.202a2.54 2.54 0 0 0-1.128.348l-9.074 5.524c-.662.424-.728 1.02-.132 1.338zm-13.167-7.193l9.736 5.299a2.54 2.54 0 0 0 2.292-.146l9.074-5.524c.662-.41.728-.993.132-1.324l-9.736-5.299c-.364-.159-.76-.229-1.157-.203s-.781.145-1.121.349l-9.074 5.524c-.675.41-.728.993-.146 1.324zm-13.153-7.192l9.722 5.298c.367.158.765.228 1.164.202s.785-.144 1.128-.348l9.074-5.523c.662-.411.728-1.007.132-1.325l-9.736-5.298c-.366-.153-.762-.219-1.158-.191a2.54 2.54 0 0 0-1.12.35l-9.074 5.523c-.675.345-.728.981-.132 1.312zm-13.167-7.194l9.723 5.299c.366.159.765.229 1.163.204s.785-.145 1.128-.35l9.074-5.523c.662-.411.728-1.007.132-1.325l-9.722-5.298c-.368-.154-.767-.219-1.165-.191a2.57 2.57 0 0 0-1.127.349l-9.074 5.524c-.662.384-.728.98-.132 1.311zm-13.167-7.192l9.736 5.298a2.5 2.5 0 0 0 1.157.204 2.49 2.49 0 0 0 1.122-.349l9.073-5.524c.676-.411.729-1.007.133-1.325l-9.723-5.298c-.368-.149-.766-.214-1.162-.189s-.783.14-1.129.334l-9.074 5.537c-.662.385-.729.981-.133 1.312zm-13.167-7.206l9.736 5.298a2.64 2.64 0 0 0 1.156.185c.394-.025.778-.138 1.123-.33l9.073-5.524c.676-.411.729-1.007.133-1.325l-9.723-5.298c-.367-.155-.765-.223-1.163-.198s-.784.143-1.128.343l-9.074 5.524c-.662.411-.729 1.007-.133 1.325zm-13.153-7.193l9.723 5.299c.368.149.766.213 1.162.188a2.64 2.64 0 0 0 1.129-.334l9.074-5.537c.662-.397.729-.993.133-1.324l-9.736-5.299a2.5 2.5 0 0 0-1.157-.204c-.397.026-.781.146-1.122.35l-9.087 5.537c-.662.41-.715 1.006-.119 1.324zm-13.127-7.193l9.723 5.299a2.58 2.58 0 0 0 1.165.191c.397-.028.783-.148 1.127-.35l9.073-5.524c.663-.397.729-.993.133-1.325l-9.736-5.298a2.51 2.51 0 0 0-1.157-.202c-.396.025-.781.145-1.122.348l-9.073 5.523c-.716.424-.769 1.02-.133 1.338zm-13.246-7.192l9.723 5.299c.368.153.767.218 1.164.19a2.58 2.58 0 0 0 1.127-.349l9.074-5.524c.662-.411.729-.994.132-1.325l-9.722-5.298a2.5 2.5 0 0 0-1.136-.161c-.386.034-.759.157-1.09.359l-9.073 5.524c-.689.371-.755.967-.199 1.285zm-13.127-7.193l9.736 5.299a2.5 2.5 0 0 0 1.157.203c.396-.025.781-.145 1.121-.349l9.074-5.524c.676-.41.729-1.007.133-1.324l-9.723-5.299c-.367-.158-.765-.227-1.163-.202a2.52 2.52 0 0 0-1.129.348l-9.073 5.523c-.663.385-.729.994-.133 1.325zm-13.167-7.193l9.736 5.299c.367.158.765.227 1.163.202s.785-.145 1.129-.348l9.06-5.524c.676-.41.729-1.006.146-1.324l-9.736-5.299a2.58 2.58 0 0 0-1.165-.191c-.397.028-.783.148-1.127.35l-9.073 5.524c-.663.384-.729.94-.133 1.311zm-13.153-7.192l9.722 5.299a2.54 2.54 0 0 0 1.164.202 2.53 2.53 0 0 0 1.128-.348l9.073-5.524c.663-.41.729-1.006.133-1.324l-9.736-5.299c-.367-.147-.761-.21-1.156-.185a2.64 2.64 0 0 0-1.122.331l-9.074 5.537c-.676.384-.729.98-.132 1.311zm-19.115-10.398l15.671 8.57c.366.158.765.227 1.163.202s.785-.144 1.128-.348l9.074-5.523c.662-.411.728-1.007.132-1.325l-15.683-8.57c-.364-.158-.761-.228-1.157-.202s-.781.144-1.122.347l-9.073 5.524c-.676.358-.729.954-.133 1.325zm8.491 6.027l-9.736-5.299a2.65 2.65 0 0 0-1.155-.185 2.67 2.67 0 0 0-1.123.331l-9.074 5.537c-.675.397-.728.994-.145 1.325l9.736 5.298a2.52 2.52 0 0 0 1.163.202c.398-.025.785-.144 1.128-.348l9.074-5.523c.662-.424.728-1.02.132-1.338zm13.154 7.219l-9.723-5.298c-.368-.153-.767-.219-1.164-.191a2.57 2.57 0 0 0-1.127.35l-9.074 5.523c-.662.398-.729.994-.133 1.325l9.736 5.299a2.5 2.5 0 0 0 1.157.203 2.49 2.49 0 0 0 1.122-.349l9.034-5.537c.715-.437.768-1.033.172-1.325zm13.166 7.166l-9.722-5.298a2.57 2.57 0 0 0-1.165-.191c-.398.028-.784.147-1.127.35l-9.074 5.523c-.662.411-.728.994-.132 1.325l9.736 5.299a2.51 2.51 0 0 0 1.157.202c.396-.026.78-.145 1.121-.348l9.074-5.524c.675-.424.728-1.02.132-1.338zm13.154 7.193l-9.723-5.299a2.51 2.51 0 0 0-1.163-.203c-.399.025-.785.145-1.128.349l-9.074 5.524c-.676.41-.729.993-.133 1.324l9.723 5.299a2.51 2.51 0 0 0 1.164.203c.398-.025.785-.145 1.128-.349l9.073-5.524c.676-.41.742-1.006.133-1.324zm13.246 7.192l-9.736-5.298c-.364-.16-.761-.229-1.157-.204s-.781.145-1.121.349l-9.18 5.511c-.676.41-.729 1.006-.132 1.324l9.722 5.299a2.58 2.58 0 0 0 2.292-.159l9.074-5.524c.702-.331.768-.967.238-1.298zm13.1 7.193l-9.736-5.299c-.366-.158-.765-.227-1.163-.202a2.54 2.54 0 0 0-1.128.348l-9.021 5.55c-.675.411-.728 1.007-.145 1.325l9.735 5.298a2.57 2.57 0 0 0 1.165.191 2.55 2.55 0 0 0 1.127-.35l9.074-5.523c.622-.411.689-.941.092-1.338zm13.154 7.193l-9.723-5.298a2.52 2.52 0 0 0-1.163-.202c-.398.025-.785.144-1.128.347l-9.074 5.524c-.662.411-.728 1.007-.132 1.325l9.736 5.298c.366.147.761.211 1.155.185a2.64 2.64 0 0 0 1.123-.331l9.074-5.536c.675-.385.728-.981.132-1.312zm13.167 7.193l-9.723-5.299c-.368-.149-.766-.213-1.162-.188a2.65 2.65 0 0 0-1.13.334l-9.073 5.524c-.663.41-.729 1.006-.133 1.324l9.736 5.299c.367.147.762.21 1.156.185s.778-.138 1.123-.331l9.073-5.524c.676-.397.729-.993.133-1.324zm13.167 7.206l-9.723-5.299c-.368-.149-.766-.213-1.162-.188a2.64 2.64 0 0 0-1.129.334l-9.074 5.537c-.676.397-.729.993-.133 1.325l9.723 5.298c.366.159.765.229 1.163.204a2.52 2.52 0 0 0 1.129-.35l9.073-5.537c.663-.41.729-1.006.133-1.324zm13.166 7.192l-9.736-5.298c-.366-.148-.761-.211-1.155-.186a2.67 2.67 0 0 0-1.123.331l-9.074 5.537c-.675.398-.728.994-.132 1.325l9.723 5.298a2.52 2.52 0 0 0 1.163.202c.398-.025.785-.144 1.128-.347l9.074-5.524c.609-.424.728-1.02.132-1.338zm13.167 7.193l-9.736-5.299c-.368-.153-.767-.218-1.165-.19a2.57 2.57 0 0 0-1.127.349l-9.06 5.524c-.676.411-.729.994-.146 1.325l9.736 5.298c.367.158.765.228 1.164.202a2.53 2.53 0 0 0 1.128-.347l9.073-5.524c.689-.424.689-1.02.133-1.338zm13.153 7.193l-9.722-5.299a2.54 2.54 0 0 0-1.164-.202c-.398.026-.784.145-1.128.348l-9.073 5.524c-.663.41-.729.993-.133 1.324l9.736 5.299c.364.159.761.229 1.157.203s.781-.145 1.121-.349l9.074-5.524c.676-.384.782-1.006.132-1.324zm13.167 7.192l-9.722-5.298c-.367-.158-.765-.228-1.164-.202a2.53 2.53 0 0 0-1.128.347l-9.073 5.524c-.663.411-.729 1.007-.133 1.325l9.736 5.298a2.55 2.55 0 0 0 2.278-.159l9.074-5.523c.676-.398.729-.941.132-1.312zm19.115 10.451l-15.671-8.57c-.366-.159-.765-.229-1.163-.204a2.52 2.52 0 0 0-1.128.35l-9.074 5.523c-.675.411-.728 1.007-.132 1.325l15.67 8.57a2.51 2.51 0 0 0 1.163.204c.399-.025.786-.145 1.129-.349l9.073-5.524c.663-.411.729-1.007.133-1.325zM133.23 286.184l-19.233-10.504c-.367-.158-.765-.228-1.164-.202s-.785.144-1.128.348l-9.074 5.523c-.662.411-.728.994-.132 1.325l19.233 10.504c.367.158.765.228 1.164.202s.785-.144 1.128-.348l9.074-5.523c.662-.424.728-.994.132-1.325zm167.472 91.531l-19.234-10.517a2.64 2.64 0 0 0-1.162-.189 2.65 2.65 0 0 0-1.129.334l-9.074 5.524c-.662.411-.728 1.007-.132 1.325l19.233 10.504c.367.158.765.227 1.163.202a2.53 2.53 0 0 0 1.129-.348l9.073-5.524c.663-.397.729-.993.133-1.311zm-154.305-84.338l-9.736-5.299c-.366-.158-.765-.227-1.163-.202a2.54 2.54 0 0 0-1.128.348l-9.074 5.484c-.662.411-.729 1.007-.133 1.325l9.736 5.298a2.58 2.58 0 0 0 1.165.191c.398-.028.784-.147 1.127-.35l9.074-5.524c.662-.357.715-.94.132-1.271zm13.153 7.192l-9.722-5.298c-.367-.159-.765-.228-1.164-.202a2.53 2.53 0 0 0-1.128.347l-9.074 5.524c-.662.411-.728 1.007-.132 1.325l9.736 5.298a2.64 2.64 0 0 0 2.278-.146l9.074-5.536c.623-.385.728-.981.132-1.312zm13.167 7.193l-9.723-5.298a2.51 2.51 0 0 0-1.163-.204c-.399.025-.785.145-1.128.349l-9.074 5.524c-.662.411-.729 1.007-.133 1.325l9.736 5.298a2.64 2.64 0 0 0 1.156.185c.394-.025.778-.138 1.123-.331l9.073-5.536c.702-.385.703-.981.133-1.312zm13.167 7.207l-9.736-5.299a2.65 2.65 0 0 0-1.156-.185 2.64 2.64 0 0 0-1.122.331l-9.074 5.523c-.675.411-.728 1.007-.132 1.325l9.722 5.299c.367.155.766.222 1.163.197s.784-.143 1.129-.343l9.074-5.524c.662-.41.781-1.007.132-1.324zm13.167 7.192l-9.736-5.299c-.367-.147-.762-.21-1.156-.185a2.66 2.66 0 0 0-1.123.331l-9.073 5.537c-.676.397-.729.994-.133 1.325l9.723 5.298a2.52 2.52 0 0 0 1.163.202c.398-.025.785-.144 1.128-.348l9.074-5.523c.662-.424.729-1.02.133-1.338zm13.166 7.193l-9.736-5.299a2.56 2.56 0 0 0-1.164-.19c-.398.027-.784.147-1.127.349l-9.074 5.524c-.662.397-.728.993-.132 1.325l9.736 5.298a2.52 2.52 0 0 0 1.163.202c.398-.025.785-.144 1.128-.348l9.061-5.523c.675-.424.728-1.02.145-1.338zm13.154 7.192l-9.723-5.298c-.368-.153-.767-.219-1.165-.191a2.57 2.57 0 0 0-1.127.35l-9.073 5.523c-.663.411-.729.994-.133 1.325l9.736 5.299a2.5 2.5 0 0 0 1.157.203c.396-.025.781-.145 1.122-.349l9.073-5.524c.676-.463.729-1.02.133-1.338zm13.167 7.193l-9.723-5.299a2.51 2.51 0 0 0-1.163-.203c-.399.025-.786.145-1.129.349l-9.073 5.457c-.663.411-.729 1.007-.133 1.325l9.723 5.298a2.5 2.5 0 0 0 1.163.204c.399-.025.786-.145 1.129-.349l9.073-5.524c.676-.344.729-.954.133-1.258zm13.166 7.192l-9.736-5.298c-.364-.158-.76-.227-1.156-.202a2.49 2.49 0 0 0-1.122.348l-9.074 5.523c-.675.411-.728 1.007-.132 1.325l9.723 5.298c.368.153.767.219 1.164.191a2.55 2.55 0 0 0 1.127-.35l9.074-5.523c.662-.384.728-.98.132-1.312zm13.167 7.193l-9.736-5.298a2.5 2.5 0 0 0-1.157-.204c-.396.026-.781.145-1.121.35l-9.074 5.523c-.676.411-.729 1.007-.133 1.325l9.723 5.298c.369.15.766.214 1.163.189s.782-.14 1.129-.334l9.073-5.537c.663-.384.729-.98.133-1.312zm13.167 7.193l-9.736-5.298c-.367-.158-.765-.228-1.163-.202a2.53 2.53 0 0 0-1.129.347l-9.073 5.524c-.663.411-.729 1.007-.133 1.325l9.736 5.298a2.64 2.64 0 0 0 1.156.185c.394-.025.778-.138 1.122-.331l9.074-5.523c.676-.398.729-.994.146-1.325zM127.031 297.51l-25.764-14.081a2.52 2.52 0 0 0-2.291.146l-9.074 5.523c-.662.411-.728 1.007-.132 1.325l25.764 14.094a2.58 2.58 0 0 0 2.292-.159l9.074-5.524c.662-.41.728-.993.132-1.324zm13.14 7.192l-9.736-5.298c-.364-.159-.76-.229-1.157-.204a2.47 2.47 0 0 0-1.121.35l-9.074 5.523c-.675.411-.728 1.007-.132 1.325l9.722 5.298c.369.154.767.219 1.165.191a2.55 2.55 0 0 0 1.127-.35l9.074-5.523c.689-.384.755-.98.132-1.312zm13.247 7.193l-9.736-5.298c-.367-.158-.765-.228-1.164-.202s-.785.144-1.128.348l-9.166 5.51c-.663.411-.729 1.007-.133 1.325l9.736 5.298c.369.149.766.214 1.163.188s.782-.139 1.129-.334l9.06-5.537c.715-.37.768-.94.239-1.298zm13.1 7.193l-9.723-5.299c-.366-.158-.765-.227-1.163-.202a2.53 2.53 0 0 0-1.128.348l-9.034 5.51c-.663.411-.729 1.007-.133 1.325l9.736 5.298c.367.148.762.211 1.156.186a2.67 2.67 0 0 0 1.123-.331l9.073-5.524c.636-.384.689-.98.093-1.311zm13.167 7.206l-9.723-5.299c-.368-.149-.766-.213-1.162-.188a2.65 2.65 0 0 0-1.13.334l-9.073 5.524c-.663.41-.729 1.007-.133 1.324l9.723 5.299c.366.159.765.229 1.163.204a2.53 2.53 0 0 0 1.129-.35l9.073-5.523c.676-.411.729-1.007.133-1.325zm13.166 7.153l-9.736-5.298c-.366-.148-.761-.211-1.155-.186a2.67 2.67 0 0 0-1.123.331l-9.074 5.537c-.675.398-.728.994-.132 1.325l9.723 5.298a2.52 2.52 0 0 0 1.163.202c.398-.025.785-.144 1.128-.347l9.074-5.524c.662-.384.728-.98.132-1.338zm13.167 7.232l-9.736-5.299a2.54 2.54 0 0 0-1.158-.19c-.396.027-.779.147-1.12.349l-9.074 5.524c-.676.397-.729.993-.133 1.325l9.723 5.298c.367.158.765.228 1.163.202a2.52 2.52 0 0 0 1.129-.348l9.073-5.523c.663-.424.729-1.02.133-1.338zm13.167 7.193l-9.736-5.299c-.367-.158-.765-.227-1.163-.202s-.785.145-1.129.348l-9.073 5.524c-.663.41-.729.993-.133 1.324l9.736 5.299c.364.159.761.229 1.157.203s.781-.145 1.121-.349l9.074-5.523c.676-.411.729-1.007.146-1.325zm13.153 7.192l-9.722-5.298c-.367-.158-.765-.228-1.164-.202a2.52 2.52 0 0 0-1.128.348l-9.073 5.523c-.663.411-.729 1.007-.133 1.325l9.736 5.298c.364.158.761.228 1.157.202a2.5 2.5 0 0 0 1.121-.347l9.074-5.524c.689-.424.689-.994.132-1.325zm13.167 7.193l-9.723-5.298c-.366-.159-.765-.229-1.163-.204s-.785.145-1.128.349l-9.074 5.484c-.662.411-.729 1.007-.132 1.325l9.722 5.299c.368.153.767.218 1.165.19a2.57 2.57 0 0 0 1.127-.349l9.074-5.524c.662-.344.768-.941.132-1.272zm13.167 7.193l-9.736-5.299a2.5 2.5 0 0 0-1.157-.204c-.396.026-.781.146-1.122.35l-9.073 5.523c-.676.411-.729 1.007-.133 1.325l9.723 5.299c.368.149.766.213 1.162.188a2.65 2.65 0 0 0 1.13-.334l9.073-5.537c.662-.384.729-.98.133-1.311zm29.287 16.015l-25.857-14.134a2.53 2.53 0 0 0-1.156-.199c-.396.025-.78.143-1.122.345L250.75 377c-.675.411-.728 1.007-.145 1.325l25.869 14.134c.364.159.761.229 1.157.203a2.49 2.49 0 0 0 1.122-.349l9.073-5.524c.702-.357.703-.993.133-1.324zm-68.31-22.651l-62.39-34.083c-.364-.158-.761-.227-1.157-.201a2.5 2.5 0 0 0-1.121.347l-9.074 5.524c-.676.41-.729.993-.133 1.324l62.377 34.096c.368.149.766.214 1.162.189a2.65 2.65 0 0 0 1.129-.335l9.074-5.523c.623-.411.689-1.007.133-1.338zm-81.902-44.733l-9.723-5.299c-.366-.158-.765-.227-1.163-.202a2.54 2.54 0 0 0-1.128.348l-9.074 5.524c-.662.41-.728 1.006-.132 1.324l9.736 5.299c.366.153.762.218 1.158.19a2.54 2.54 0 0 0 1.12-.349l9.074-5.524c.675-.384.728-.98.132-1.311zm16.041 8.742l-12.597-6.888a2.51 2.51 0 0 0-1.163-.203c-.399.025-.786.145-1.129.349l-9.073 5.524c-.663.41-.729 1.006-.133 1.324l12.597 6.888c.367.16.765.229 1.164.204s.785-.145 1.128-.349l9.074-5.524c.662-.384.728-.98.132-1.325zm85.293 46.64l9.736 5.299c.582.331.529.927-.146 1.324l-9.061 5.524c-.343.203-.729.322-1.127.35a2.56 2.56 0 0 1-1.164-.191l-9.736-5.298c-.596-.318-.53-.914.132-1.325l9.074-5.524c.342-.205.728-.327 1.127-.354a2.53 2.53 0 0 1 1.165.195zm-16.042-8.768l12.611 6.888c.596.331.529.914-.133 1.324l-9.073 5.577c-.344.202-.73.322-1.128.35a2.58 2.58 0 0 1-1.164-.191l-12.597-6.888c-.596-.331-.543-.927.132-1.325l9.074-5.537a2.66 2.66 0 0 1 1.117-.358 2.64 2.64 0 0 1 1.161.16zM98.26 296.503l-9.723-5.298c-.368-.153-.767-.219-1.165-.191a2.57 2.57 0 0 0-1.127.35l-9.074 5.523c-.676.398-.729.994-.133 1.325l9.723 5.299a2.51 2.51 0 0 0 1.163.203c.398-.025.785-.145 1.128-.349l9.074-5.524c.662-.424.728-1.02.132-1.338zm13.167 7.193l-9.736-5.299a2.55 2.55 0 0 0-2.278.159l-9.074 5.524c-.676.41-.729.993-.133 1.324l9.723 5.299a2.54 2.54 0 0 0 1.164.202 2.53 2.53 0 0 0 1.128-.348l9.074-5.524c.662-.424.728-1.02.132-1.337zm13.166 7.233l-9.735-5.299a2.54 2.54 0 0 0-1.164-.202c-.398.025-.785.144-1.128.348l-9.074 5.523c-.662.411-.715 1.007-.132 1.325l9.736 5.299c.366.158.765.227 1.163.202a2.54 2.54 0 0 0 1.128-.348l9.074-5.524c.662-.45.729-1.033.132-1.324zm150.689 82.285L252.3 380.656c-.366-.158-.765-.227-1.163-.202a2.54 2.54 0 0 0-1.128.348l-9.167 5.524c-.662.41-.728 1.007-.132 1.324l22.995 12.571c.367.147.762.21 1.156.185s.778-.138 1.123-.331l9.073-5.537c.716-.397.769-.993.225-1.324zm42.494-37.024l9.736 5.299c.364.159.761.229 1.157.203s.781-.145 1.122-.349l4.517-2.742c.662-.411.728-1.007.132-1.325l-9.723-5.298c-.368-.149-.765-.214-1.162-.188a2.65 2.65 0 0 0-1.129.334l-4.517 2.755c-.663.397-.729.98-.133 1.311zm-13.153-7.192l9.722 5.298c.367.158.765.228 1.164.202s.785-.144 1.128-.348l4.504-2.742c.675-.41.728-1.006.132-1.324l-9.723-5.299c-.366-.158-.765-.227-1.163-.202a2.54 2.54 0 0 0-1.128.348l-4.504 2.755c-.675.331-.728.98-.132 1.312zm-13.167-7.193l9.723 5.298a2.52 2.52 0 0 0 1.163.202c.398-.025.785-.144 1.128-.347l4.504-2.756c.676-.397.729-.993.133-1.324l-9.723-5.299c-.366-.158-.765-.227-1.163-.202a2.53 2.53 0 0 0-1.129.348l-4.503 2.755c-.676.398-.729.994-.133 1.325zm-13.167-7.206l9.723 5.299c.368.149.766.213 1.162.188a2.64 2.64 0 0 0 1.129-.334l4.517-2.755c.663-.398.729-.994.133-1.325l-9.736-5.298a2.5 2.5 0 0 0-1.157-.204c-.396.025-.781.145-1.121.349l-4.517 2.742c-.676.424-.729 1.02-.133 1.338zm-13.167-7.193l9.736 5.299c.367.147.762.21 1.156.185s.778-.138 1.123-.331l4.517-2.755c.662-.411.728-.994.132-1.325l-9.736-5.298c-.364-.158-.76-.228-1.156-.202a2.5 2.5 0 0 0-1.122.347l-4.517 2.742c-.662.424-.729 1.02-.133 1.338zm-13.166-7.205l9.736 5.298c.368.153.767.219 1.164.191a2.55 2.55 0 0 0 1.127-.35l4.504-2.742c.676-.41.729-1.006.133-1.324l-9.723-5.299a2.51 2.51 0 0 0-1.164-.203c-.398.025-.785.145-1.128.349l-4.517 2.755c-.649.424-.728 1.02-.132 1.325zm-13.154-7.18l9.723 5.298a2.52 2.52 0 0 0 2.292-.146l4.503-2.742c.676-.41.729-1.006.133-1.324l-9.723-5.299a2.58 2.58 0 0 0-1.165-.191c-.397.028-.783.148-1.127.35l-4.503 2.742c-.676.398-.742.994-.133 1.312zm-13.167-7.193l9.723 5.299c.367.158.765.227 1.163.202s.785-.145 1.129-.348l4.517-2.702c.675-.411.728-1.007.145-1.325l-9.736-5.298a2.64 2.64 0 0 0-1.162-.189 2.65 2.65 0 0 0-1.129.334l-4.504 2.756c-.689.357-.742.94-.146 1.271zm-13.166-7.193l9.723 5.299a2.51 2.51 0 0 0 1.163.203c.399-.025.785-.145 1.128-.349l4.517-2.742c.663-.411.729-1.007.133-1.325l-9.736-5.298c-.367-.147-.762-.21-1.156-.185s-.778.138-1.122.331l-4.517 2.755c-.663.358-.729.98-.133 1.311zm-13.167-7.192l9.736 5.299c.364.159.761.229 1.157.203s.781-.145 1.121-.349l4.517-2.755c.663-.397.729-.994.133-1.325l-9.736-5.298a2.51 2.51 0 0 0-1.157-.202 2.5 2.5 0 0 0-1.121.347l-4.517 2.756c-.663.397-.729.94-.133 1.324zm-13.166-7.192l9.736 5.298a2.52 2.52 0 0 0 1.163.202c.398-.025.785-.144 1.128-.347l4.504-2.756c.675-.397.728-.993.132-1.324l-9.722-5.299c-.366-.159-.765-.229-1.164-.204a2.53 2.53 0 0 0-1.128.35l-4.517 2.742c-.662.411-.728 1.007-.132 1.338zm-13.154-7.207l9.723 5.299a2.65 2.65 0 0 0 2.291-.146l4.504-2.755c.676-.411.729-.994.132-1.325l-9.722-5.298c-.367-.159-.765-.228-1.164-.203a2.53 2.53 0 0 0-1.128.348l-4.504 2.742c-.675.424-.728 1.02-.132 1.338zm-13.166-7.179l9.722 5.299a2.66 2.66 0 0 0 1.163.188c.396-.025.782-.139 1.129-.334l4.517-2.755c.662-.411.715-.994.132-1.325l-9.736-5.298a2.52 2.52 0 0 0-1.163-.202c-.398.025-.785.144-1.128.348l-4.504 2.741c-.676.411-.729 1.007-.132 1.338zm-19.115-10.452l15.67 8.57c.368.154.767.219 1.165.191a2.57 2.57 0 0 0 1.127-.349l4.517-2.742c.662-.411.728-1.007.132-1.325l-15.683-8.57c-.367-.147-.762-.211-1.156-.186a2.67 2.67 0 0 0-1.123.331l-4.516 2.756c-.663.397-.663.993-.133 1.324z" class="E"/><path d="M348.402 366.748c.715 1.139-43.541 29.142-56.284 37.169s-79.556 45.501-80.285 44.361 64.907-40.493 77.689-48.494 58.164-34.175 58.88-33.036z" fill="url(#I)"/><path d="M35.99 350.666c-.662 1.166 44.772 27.235 57.846 34.679s81.477 41.99 82.126 40.812-66.655-37.62-79.729-45.038-59.568-31.658-60.244-30.453z" fill="url(#J)"/><path d="M423.216 186.294l-188.441-97.28c-2.852-1.475-6.12-1.942-9.272-1.325h-.119a13.96 13.96 0 0 0-2.411.702c-2.551.714-5.044 1.622-7.458 2.716-1.192.649-1.324 3.709-1.165 6.623l-58.76 136.582a6.81 6.81 0 0 0 2.98 8.649l194.375 105.758-2.583 2.226s2.331 3.801 4.967 4.119 7.829-2.649 7.829-2.649c1.061-.229 2.051-.71 2.888-1.401s1.495-1.574 1.92-2.573l61.794-143.788a14.31 14.31 0 0 0-6.544-18.359z" class="E"/><path d="M355.727 355.779c-.159.014-.319.014-.477 0-2.928-.344-5.378-4.265-5.484-4.437l-.305-.503 2.292-1.948-193.514-105.32c-1.638-.894-2.882-2.369-3.488-4.134a7.47 7.47 0 0 1 .216-5.403l58.641-136.436c-.291-5.431.729-6.623 1.523-7.087 2.455-1.113 4.993-2.034 7.59-2.755.802-.319 1.631-.563 2.477-.729h.212a14.77 14.77 0 0 1 9.683 1.417l188.441 97.28a15.06 15.06 0 0 1 6.861 19.233l-61.793 143.735a7.52 7.52 0 0 1-5.193 4.344c-.702.398-4.967 2.742-7.682 2.742zm-4.464-4.715c.821 1.165 2.53 3.126 4.146 3.325 2 .238 6.027-1.802 7.404-2.65l.199-.079c.953-.208 1.843-.639 2.596-1.259s1.348-1.409 1.735-2.304l61.794-143.775a13.68 13.68 0 0 0 .294-9.954c-1.156-3.238-3.489-5.921-6.533-7.517l-188.44-97.227a13.5 13.5 0 0 0-8.862-1.325h-.133a13.81 13.81 0 0 0-2.291.689 48.68 48.68 0 0 0-7.378 2.649c-.186.106-1.1.874-.808 5.961v.159l-58.761 136.82c-.611 1.394-.678 2.967-.188 4.409a6.09 6.09 0 0 0 2.838 3.379l195.249 106.222-2.861 2.477z" fill="#000"/><path d="M255.996 102.486c-.649 1.178 45.262 26.399 58.469 33.592s82.245 40.467 82.895 39.288-67.344-36.374-80.551-43.567-60.177-30.506-60.813-29.313z" fill="url(#K)"/><path d="M392.564 229.265c.093 0 .186 0 .292-.132-.318 0-.451.026-.292.132z" fill="url(#L)"/><path d="M423.216 186.295l-9.656-4.994-12.756 4.212s-5.643 41.063-7.948 43.62c2.212 0 14.571 2.265 24.611 4.146l12.293-28.638c1.427-3.32 1.546-7.056.333-10.459s-3.671-6.221-6.877-7.887z" fill="url(#M)"/><path d="M147.947 236.829l59.422-138.25a14.31 14.31 0 0 1 3.353-4.785 14.3 14.3 0 0 1 4.986-3.046c1.853-.661 3.824-.933 5.787-.798s3.878.673 5.624 1.582l188.454 97.28a14.32 14.32 0 0 1 6.872 7.889c1.213 3.402 1.096 7.137-.328 10.457l-61.794 143.787c-.375.872-.929 1.656-1.626 2.302a6.81 6.81 0 0 1-5.215 1.789 6.81 6.81 0 0 1-2.696-.819L150.914 245.479c-1.482-.814-2.608-2.152-3.156-3.751s-.481-3.346.189-4.899z" class="E"/><path d="M351.859 352.203c-1.335-.005-2.647-.347-3.815-.993L154.557 246.021a7.95 7.95 0 0 1-3.484-10.133l57.515-133.786a15.23 15.23 0 0 1 14.014-9.273 14.94 14.94 0 0 1 7.008 1.722l182.426 94.114c3.405 1.782 6.013 4.781 7.304 8.4s1.171 7.591-.336 11.125l-59.82 139.191c-.613 1.434-1.635 2.656-2.937 3.513a7.95 7.95 0 0 1-4.388 1.309z" fill="url(#N)"/><path d="M152.331 236.365l57.529-133.787c.752-1.751 1.857-3.328 3.247-4.633a13.86 13.86 0 0 1 4.829-2.949c1.795-.64 3.703-.903 5.605-.773a13.86 13.86 0 0 1 5.446 1.532l182.414 94.168c3.085 1.611 5.451 4.325 6.627 7.602s1.075 6.876-.282 10.081l-59.82 139.231c-.366.848-.905 1.609-1.582 2.236s-1.478 1.106-2.351 1.405a6.62 6.62 0 0 1-2.719.333c-.919-.079-1.812-.35-2.621-.795l-193.447-105.32a6.62 6.62 0 0 1-3.025-3.619c-.53-1.536-.476-3.214.15-4.713z" class="E"/><path d="M362.178 348.786c1.218.57 23.538-46.825 29.896-60.456s35.288-84.59 34.069-85.16-32.135 69.464-38.493 83.094-26.691 61.952-25.472 62.522z" fill="url(#O)"/><path opacity=".2" d="M357.528 162.068L229.04 95.717c-1.691-.88-3.545-1.402-5.446-1.532s-3.81.132-5.605.772-3.439 1.644-4.829 2.949a13.85 13.85 0 0 0-3.247 4.633l-50.601 117.719 198.216-58.19z" fill="url(#P)"/><path style="mix-blend-mode:screen" d="M143.39 215.45l29.632-68.88c.386-.902.955-1.714 1.67-2.385s1.561-1.188 2.485-1.518 1.906-.465 2.884-.397a7.12 7.12 0 0 1 2.803.789l93.968 48.508c1.601.83 2.827 2.236 3.434 3.934a7.14 7.14 0 0 1-.162 5.219l-30.811 71.688c-.187.435-.463.826-.81 1.148a3.38 3.38 0 0 1-1.205.723 3.4 3.4 0 0 1-1.394.175 3.39 3.39 0 0 1-1.346-.403l-99.664-54.23a3.39 3.39 0 0 1-1.601-1.894c-.275-.811-.233-1.696.117-2.477z" fill="url(#Q)" class="C"/><path d="M282.436 222.841l24.2-56.296a5.85 5.85 0 0 1 1.372-1.946c.585-.547 1.278-.968 2.033-1.237a5.85 5.85 0 0 1 2.358-.323c.8.055 1.58.275 2.291.644l76.828 39.633a5.83 5.83 0 0 1 2.79 3.216c.492 1.385.441 2.905-.141 4.255L369 269.375a2.78 2.78 0 0 1-.663.935c-.284.262-.619.462-.985.587a2.76 2.76 0 0 1-1.137.138c-.385-.034-.759-.149-1.097-.335l-81.437-44.309c-.617-.326-1.088-.873-1.318-1.531s-.205-1.379.073-2.019z" fill="url(#R)"/><g style="mix-blend-mode:screen" opacity=".28" class="H"><path d="M330.44 277.27a21.85 21.85 0 0 0-12.018 3.9 21.86 21.86 0 0 0-7.851 9.899c-1.585 4.001-1.955 8.381-1.061 12.59s3.01 8.062 6.084 11.074 6.968 5.049 11.195 5.856a21.86 21.86 0 0 0 12.566-1.317 21.87 21.87 0 0 0 9.737-8.051 21.86 21.86 0 0 0 3.654-12.095 22.07 22.07 0 0 0-1.767-8.433c-1.137-2.668-2.788-5.086-4.859-7.115a22.07 22.07 0 0 0-7.213-4.714 22.08 22.08 0 0 0-8.467-1.594zm0 37.089a15.24 15.24 0 0 1-8.375-2.72c-2.463-1.712-4.366-4.112-5.47-6.9a15.23 15.23 0 0 1 3.503-16.492c2.142-2.099 4.857-3.518 7.803-4.081a15.24 15.24 0 0 1 8.757.919c2.765 1.162 5.126 3.114 6.786 5.612a15.24 15.24 0 0 1 2.547 8.429 15.39 15.39 0 0 1-1.233 5.878 15.37 15.37 0 0 1-3.388 4.959c-1.444 1.415-3.152 2.531-5.028 3.285s-3.881 1.132-5.902 1.111z"/></g><path d="M330.44 277.269c-3.587-.012-7.124.837-10.314 2.476s-5.94 4.02-8.019 6.942c-.273.4-.456.853-.536 1.33s-.058.965.068 1.432a3.35 3.35 0 0 0 .661 1.273c.309.371.695.672 1.132.88.713.36 1.531.452 2.306.26s1.457-.656 1.919-1.307a15.59 15.59 0 0 1 5.604-4.889c2.235-1.153 4.716-1.748 7.232-1.734 2.021-.021 4.027.357 5.902 1.111s3.584 1.87 5.028 3.285 2.596 3.099 3.389 4.959a15.41 15.41 0 0 1 1.232 5.878 14.94 14.94 0 0 1-.888 5.06c-.261.762-.238 1.593.067 2.338s.869 1.355 1.589 1.716c.425.211.889.33 1.363.349a3.37 3.37 0 0 0 1.387-.238 3.38 3.38 0 0 0 1.168-.785 3.37 3.37 0 0 0 .745-1.194c.867-2.345 1.315-4.825 1.324-7.325-.034-2.901-.64-5.767-1.783-8.434a22.07 22.07 0 0 0-4.876-7.108c-2.076-2.026-4.532-3.623-7.226-4.699s-5.573-1.612-8.474-1.576z" fill="url(#S)"/><g style="mix-blend-mode:screen" opacity=".28" class="H"><path d="M282.899 251.32c-4.302.089-8.483 1.446-12.017 3.901s-6.266 5.898-7.852 9.899-1.954 8.38-1.061 12.59a21.86 21.86 0 0 0 6.084 11.074c3.074 3.011 6.968 5.049 11.195 5.856s8.599.349 12.566-1.317 7.355-4.468 9.737-8.052a21.86 21.86 0 0 0 3.655-12.094c-.03-2.9-.63-5.766-1.767-8.433a22.08 22.08 0 0 0-12.072-11.829c-2.691-1.082-5.568-1.624-8.468-1.595zm0 37.09a15.24 15.24 0 0 1-8.375-2.72 15.23 15.23 0 0 1-5.47-6.901c-1.104-2.788-1.361-5.841-.738-8.774s2.099-5.618 4.241-7.717a15.24 15.24 0 0 1 7.803-4.081c2.946-.562 5.992-.243 8.757.919s5.126 3.114 6.786 5.612 2.546 5.43 2.547 8.429a15.4 15.4 0 0 1-4.624 10.833c-2.916 2.856-6.846 4.439-10.927 4.4z"/></g><path d="M297.616 262.592a3.36 3.36 0 0 0 1.085-1.07c.275-.435.447-.927.502-1.439a3.36 3.36 0 0 0-1.018-2.789c-2.329-2.163-5.09-3.809-8.101-4.829s-6.204-1.39-9.368-1.087a22.52 22.52 0 0 0-8.992 2.844c-2.763 1.572-5.162 3.712-7.038 6.278-.53.695-.777 1.565-.691 2.435s.498 1.676 1.154 2.254c.353.297.765.518 1.208.649a3.32 3.32 0 0 0 1.366.109c.458-.058.899-.211 1.295-.449a3.34 3.34 0 0 0 1.006-.932c1.299-1.843 2.98-3.385 4.928-4.521a15.73 15.73 0 0 1 6.362-2.063 15.72 15.72 0 0 1 6.644.767c2.134.729 4.086 1.909 5.724 3.459a3.28 3.28 0 0 0 3.934.384z" fill="url(#T)"/><path d="M266.871 150.755l-54.164-26.161-2.132 4.331 54.269 26.215 2.027-4.385zm26.863 1.206l-76.589-37.235-2.12 4.331 76.683 37.288 2.026-4.384z" style="mix-blend-mode:overlay" class="B"/><g style="mix-blend-mode:screen" class="C"><path d="M410.553 259.638l-54.177-26.148-2.12 4.332 54.27 26.214 2.027-4.398z" fill="url(#U)"/><path d="M437.403 260.857l-76.59-37.235-2.119 4.332 76.682 37.288 2.027-4.385z" fill="url(#V)"/></g><path style="mix-blend-mode:screen" d="M124.196 198.335l32.89-76.496a7.94 7.94 0 0 1 1.86-2.641c.794-.744 1.733-1.317 2.757-1.683s2.113-.519 3.199-.447a7.95 7.95 0 0 1 3.113.863l104.287 53.912a7.95 7.95 0 0 1 3.616 10.16l-34.188 79.57a3.77 3.77 0 0 1-.9 1.284c-.387.36-.845.634-1.345.806a3.75 3.75 0 0 1-1.556.187c-.526-.047-1.037-.205-1.498-.462L125.825 203.21a3.76 3.76 0 0 1-1.629-4.875z" fill="url(#W)" class="C"/><path d="M226.761 177.247l-63.86-30.837-2.503 5.113 63.992 30.904 2.371-5.18zm31.129 3.047l-90.286-43.898-2.503 5.114 90.405 43.964 2.384-5.18zm-64.615-5.801l-35.699-17.432-2.503 5.113 35.817 17.485 2.385-5.166zm16.372 20.292l-57.078-27.711-2.503 5.113 57.197 27.764 2.384-5.166z" style="mix-blend-mode:overlay" class="B"/><path d="M203.038 226.192l-5.445-16.769-21.67.834-3.272-7.775-10.809 3.603-10.253-.901-2.053-9.047-13.14 1.987-.212-1.351 14.412-2.186 2.119 9.325 8.955.769 11.749-3.908 3.404 8.08 21.751-.834 5.404 16.637 22.214-3.643 10.054-7.537 12.306-.848.092 1.378-11.908.821-9.988 7.484-23.71 3.881z" style="mix-blend-mode:overlay" class="B"/><path style="mix-blend-mode:color-dodge" d="M223.781 249.559c.925.424 1.703 1.112 2.235 1.979s.797 1.871.758 2.887-.378 1.999-.975 2.822-1.424 1.451-2.378 1.804a5.14 5.14 0 0 1-5.557-1.332c-.69-.747-1.143-1.682-1.302-2.686s-.016-2.034.411-2.958c.57-1.235 1.607-2.194 2.884-2.665s2.687-.419 3.924.149z" fill="url(#X)"/><path style="mix-blend-mode:color-dodge" d="M175.327 227.821c43.818 23.843 81.398 45.037 83.954 47.289s-30.89-15.18-74.695-39.01l-83.955-47.289c-2.556-2.252 30.891 15.18 74.696 39.01z" fill="url(#Y)"/><path style="mix-blend-mode:color-dodge" d="M151.086 211.767c.71.333 1.306.87 1.712 1.541s.604 1.449.569 2.233-.302 1.539-.766 2.172a3.98 3.98 0 0 1-1.842 1.384c-.737.269-1.537.313-2.3.128s-1.453-.592-1.985-1.169a3.98 3.98 0 0 1-1.003-2.074c-.122-.775-.012-1.569.317-2.281a3.95 3.95 0 0 1 .916-1.26c.386-.355.838-.631 1.33-.81a3.96 3.96 0 0 1 1.54-.237 3.97 3.97 0 0 1 1.512.373z" fill="url(#Z)"/><path style="mix-blend-mode:color-dodge" d="M164.544 215.251c1.319.61 2.428 1.599 3.186 2.839a7.35 7.35 0 0 1-.331 8.161c-.856 1.175-2.041 2.07-3.406 2.571s-2.847.588-4.26.247-2.694-1.092-3.68-2.161a7.36 7.36 0 0 1-1.859-3.841c-.226-1.436-.022-2.907.588-4.226.82-1.769 2.309-3.14 4.139-3.813s3.852-.593 5.623.223z" fill="url(#a)"/><path style="mix-blend-mode:color-dodge" d="M268.103 163.432a5.13 5.13 0 0 1 3.081 4.793 5.12 5.12 0 0 1-.916 2.832c-.578.833-1.391 1.476-2.335 1.847a5.13 5.13 0 0 1-2.968.237c-.99-.216-1.895-.721-2.599-1.452s-1.174-1.653-1.353-2.651-.058-2.028.348-2.957a5.15 5.15 0 0 1 6.742-2.649z" fill="url(#b)"/><path style="mix-blend-mode:color-dodge" d="M219.158 142.821c44.349 22.81 82.418 43.103 85.028 45.328s-31.235-14.451-75.583-37.261l-85.028-45.276c-2.609-2.172 31.235 14.399 75.583 37.209z" fill="url(#c)"/><path style="mix-blend-mode:color-dodge" d="M194.547 127.349a3.98 3.98 0 0 1 1.767 1.489c.428.661.65 1.434.639 2.221a3.97 3.97 0 0 1-.705 2.201c-.448.648-1.078 1.148-1.811 1.437s-1.534.354-2.303.186a3.97 3.97 0 0 1-2.018-1.127c-.546-.567-.911-1.284-1.049-2.059a3.97 3.97 0 0 1 .274-2.295c.422-.96 1.205-1.714 2.18-2.099s2.063-.368 3.026.046z" fill="url(#d)"/><path style="mix-blend-mode:color-dodge" d="M208.085 130.515a7.35 7.35 0 0 1 3.253 2.763 7.34 7.34 0 0 1 1.17 4.105c-.024 1.454-.479 2.868-1.307 4.063s-1.993 2.118-3.345 2.652-2.833.654-4.255.346-2.719-1.03-3.729-2.076-1.689-2.367-1.948-3.798a7.35 7.35 0 0 1 4.536-8.15c1.813-.715 3.836-.681 5.625.095z" fill="url(#e)"/><path d="M387.677 122.555a4.47 4.47 0 0 1 1.479 1.486 4.48 4.48 0 0 1 .64 1.997c0 1.325-.874 1.842-2.013 1.219-.608-.37-1.119-.879-1.492-1.484s-.597-1.291-.654-2c-.027-1.298.914-1.854 2.04-1.218z" fill="url(#f)"/><g style="mix-blend-mode:screen" opacity=".65"><path d="M276.038 56.416l.172 7.405 85.504 46.467a15.48 15.48 0 0 1 5.299 5.299l3.907 6.146c1.437 2.355 3.435 4.316 5.815 5.709l27.433 14.915.318 14.068c.093 4.345-2.927 6.173-6.756 4.08L283.813 98.592a15.02 15.02 0 0 1-7.113-11.63l-.662-30.546z" fill="url(#g)"/></g><path d="M397.836 128.131c.604.372 1.112.882 1.483 1.487s.593 1.289.65 1.997c0 1.324-.874 1.841-2.027 1.219a4.5 4.5 0 0 1-1.485-1.486c-.371-.605-.593-1.29-.647-1.998.013-1.351.874-1.894 2.026-1.219z" fill="url(#h)"/><path d="M276.038 56.416l127.799 69.463.384 16.452-27.433-14.915c-2.38-1.393-4.378-3.355-5.815-5.709l-3.907-6.147c-1.306-2.173-3.125-3.993-5.299-5.298L276.21 63.821l-.172-7.405zm121.865 76.364c1.152.623 2.053.08 2.026-1.218a4.5 4.5 0 0 0-.65-1.997 4.51 4.51 0 0 0-1.482-1.487c-1.153-.623-2.053-.079-2.027 1.219a4.5 4.5 0 0 0 .647 1.998 4.48 4.48 0 0 0 1.486 1.485zm-20.333-11.047c1.152.623 2.053.08 2.026-1.219a4.53 4.53 0 0 0-.648-2.003c-.371-.607-.879-1.119-1.484-1.494-1.153-.622-2.053-.066-2.027 1.232.057.708.28 1.392.65 1.997s.879 1.115 1.483 1.487zm10.173 5.524c1.139.622 2.04.079 2.013-1.219a4.47 4.47 0 0 0-.64-1.997c-.368-.606-.875-1.115-1.479-1.487-1.153-.636-2.067-.079-2.04 1.219.057.709.281 1.394.654 2s.884 1.114 1.492 1.484z" fill="url(#i)"/><path d="M377.503 117.017a4.52 4.52 0 0 1 1.484 1.494c.371.607.593 1.294.649 2.003 0 1.325-.874 1.841-2.027 1.219a4.52 4.52 0 0 1-1.482-1.487c-.371-.606-.594-1.29-.65-1.997-.027-1.298.874-1.855 2.026-1.232z" fill="url(#j)"/><g style="mix-blend-mode:overlay" opacity=".75" class="B"><path d="M372.231 128.833c.634.391 1.166.926 1.555 1.561s.623 1.353.684 2.095c0 1.324-.927 1.934-2.133 1.324L282.78 85.134a4.75 4.75 0 0 1-1.555-1.561c-.389-.635-.623-1.352-.684-2.094 0-1.325.927-1.934 2.119-1.325l89.571 48.68z"/></g><path d="M305.749 186.414l75.026 37.513c-3.923-3.218-7.05-7.297-9.14-11.921-2.755-6.862-5.497-6.862-9.153-7.312s-7.325 3.206-11.445-.464-2.781-17.816-6.874-20.068-14.638 8.703-17.843 7.325 0-10.067-3.656-11.444-7.789 6.411-10.981 5.497-3.696-1.775-5.934.874z" class="B"/><g style="mix-blend-mode:screen" class="G B"><path d="M316.028 224.06a11.1 11.1 0 0 0 1.576-5.577c.004-2.757-1.081-5.404-3.02-7.365 1.031-.075 2.018-.45 2.839-1.08s1.44-1.485 1.78-2.462.387-2.032.135-3.035-.793-1.91-1.555-2.61a5.3 5.3 0 0 0-5.745-.935 5.3 5.3 0 0 0-3.137 4.903c.006.817.206 1.62.583 2.345a10.36 10.36 0 0 0-2.411-.292c-2.122.002-4.194.646-5.943 1.847a10.52 10.52 0 0 0-3.859 4.882l18.757 9.379z"/></g><g style="mix-blend-mode:screen" class="G B"><path d="M298.384 224.311a2.17 2.17 0 0 1-1.313 2.035 2.16 2.16 0 0 1-1.258.14c-.424-.079-.815-.283-1.123-.585a2.17 2.17 0 0 1-.606-1.111c-.087-.423-.046-.862.117-1.261a2.17 2.17 0 0 1 .8-.981c.358-.241.779-.369 1.211-.369a2.17 2.17 0 0 1 2.172 2.132z"/></g><g style="mix-blend-mode:screen" class="G B"><path d="M306.848 228.431a2.17 2.17 0 0 1-.366 1.207c-.239.357-.578.636-.975.8s-.834.208-1.255.124a2.17 2.17 0 0 1-1.112-.595c-.304-.304-.511-.691-.595-1.112s-.041-.858.124-1.255.443-.736.8-.975a2.17 2.17 0 0 1 1.207-.366c.576 0 1.128.229 1.536.636s.636.96.636 1.536z"/></g><g style="mix-blend-mode:screen" class="G B"><path d="M315.313 232.55a2.17 2.17 0 0 1-.367 1.207c-.238.357-.578.636-.975.8s-.833.208-1.255.124-.808-.291-1.112-.595a2.16 2.16 0 0 1-.594-1.112c-.084-.421-.041-.858.123-1.255a2.18 2.18 0 0 1 .8-.975 2.17 2.17 0 0 1 1.207-.366c.576 0 1.129.229 1.536.636a2.17 2.17 0 0 1 .637 1.536z"/></g><g style="mix-blend-mode:screen" class="G B"><path d="M323.777 236.67c0 .431-.129.853-.369 1.211a2.17 2.17 0 0 1-.982.799c-.399.164-.838.204-1.26.117a2.17 2.17 0 0 1-1.112-.606c-.302-.307-.506-.698-.585-1.122a2.18 2.18 0 0 1 .14-1.258 2.17 2.17 0 0 1 .818-.967c.362-.234.786-.354 1.217-.347.569.011 1.112.244 1.511.651a2.17 2.17 0 0 1 .622 1.522z"/></g><g style="mix-blend-mode:screen" class="G B"><path d="M332.241 240.79a2.17 2.17 0 0 1-.366 1.206c-.239.358-.578.636-.975.801s-.834.207-1.255.123a2.18 2.18 0 0 1-1.112-.594c-.304-.304-.511-.691-.595-1.113s-.041-.858.124-1.255.443-.736.8-.975.777-.366 1.207-.366c.576 0 1.129.229 1.536.636s.636.96.636 1.537z"/></g><g style="mix-blend-mode:screen" class="C"><path d="M306.663 402.844l-17.658-10.266.053 17.724 17.658 10.252-.053-17.71z" fill="url(#k)"/></g><g style="mix-blend-mode:screen" class="C"><path d="M347.977 378.987l-17.657-10.265-41.315 23.856 17.658 10.266 41.314-23.857z" fill="url(#l)"/></g><path d="M306.649 403.016h-.079l-17.657-10.266c-.027-.013-.049-.035-.063-.061s-.02-.055-.017-.085.007-.057.021-.083.034-.047.059-.063l41.328-23.843c.027-.013.056-.019.086-.019s.059.006.086.019l17.644 10.266a.16.16 0 0 1 .07.059c.017.026.026.056.026.087s-.009.061-.026.087-.042.046-.07.059l-41.315 23.843h-.093zm-17.299-10.438l17.299 10.067 40.984-23.658-17.313-10.067-40.97 23.658z" style="mix-blend-mode:overlay" class="B"/><g style="mix-blend-mode:screen" class="C"><path d="M306.663 402.844l.053 17.71 41.314-23.856-.052-17.711-41.315 23.857z" fill="url(#m)"/></g><g class="B"><path d="M306.702 420.725h-.079a.15.15 0 0 1-.068-.059c-.016-.026-.025-.056-.025-.086v-17.71a.15.15 0 0 1 .017-.086c.014-.026.036-.047.063-.06l41.315-23.843c.024-.019.055-.028.086-.028a.14.14 0 0 1 .086.028c.028.012.051.033.068.059s.025.056.024.086v17.711c.001.03-.008.06-.024.086s-.04.047-.068.059l-41.315 23.843h-.08zm.12-17.789v17.326l40.983-23.658v-17.326l-40.983 23.658z" style="mix-blend-mode:overlay"/><path d="M306.703 420.726h-.08l-17.657-10.253c-.026-.018-.046-.042-.06-.069s-.021-.059-.02-.09v-17.71a.17.17 0 0 1 .08-.146c.027-.013.056-.02.086-.02s.059.007.086.02l17.657 10.266c.027.013.049.034.063.06a.15.15 0 0 1 .017.086v17.71c.003.029-.003.059-.017.085s-.036.047-.063.061h-.092zm-17.485-10.531l17.312 10.054v-17.313l-17.312-10.054v17.313z" style="mix-blend-mode:overlay"/></g><g style="mix-blend-mode:screen" class="C"><path d="M203.581 247.757l-4.888-2.848.013 4.915 4.901 2.847-.026-4.914z" fill="url(#n)"/></g><g style="mix-blend-mode:screen" class="C"><path d="M215.052 241.134l-4.901-2.848-11.458 6.623 4.888 2.848 11.471-6.623z" fill="url(#o)"/></g><path d="M203.581 247.797l-4.901-2.848 11.471-6.623 4.888 2.848-11.458 6.623zm-4.809-2.888l4.809 2.795 11.365-6.623-4.795-2.795-11.379 6.623z" style="mix-blend-mode:overlay" class="B"/><g style="mix-blend-mode:screen" class="C"><path d="M203.581 247.757l.026 4.914 11.458-6.623-.013-4.914-11.471 6.623z" fill="url(#p)"/></g><g class="B"><path d="M203.594 252.711v-4.914l11.471-6.623v4.848l-11.458 6.623-.013.066zm0-4.927v4.861l11.365-6.623v-4.808l-11.365 6.57z" style="mix-blend-mode:overlay"/><path d="M203.594 252.711l-4.888-2.847v-4.915l4.901 2.848v4.848l-.013.066zm-4.848-2.914l4.808 2.795v-4.808l-4.795-2.795-.013 4.808z" style="mix-blend-mode:overlay"/></g><g style="mix-blend-mode:screen" class="C"><path d="M163.325 105.002l-4.901-2.848.014 4.915 4.901 2.848-.014-4.915z" fill="url(#q)"/></g><g style="mix-blend-mode:screen" class="C"><path d="M174.783 98.379l-4.901-2.848-11.458 6.623 4.901 2.848 11.458-6.623z" fill="url(#r)"/></g><path d="M163.312 105.043l-4.901-2.848 11.458-6.623 4.901 2.848-11.471 6.624h.013zm-4.795-2.888l4.795 2.782 11.379-6.623-4.809-2.795-11.365 6.636z" style="mix-blend-mode:overlay" class="B"/><g style="mix-blend-mode:screen" class="C"><path d="M163.326 105.003l.013 4.914 11.458-6.623-.013-4.914-11.458 6.623z" fill="url(#s)"/></g><g class="B"><path d="M163.326 109.956v-4.914l11.458-6.623v4.914l-11.472 6.623h.014zm0-4.927v4.795l11.365-6.623v-4.742l-11.365 6.57z" style="mix-blend-mode:overlay"/><path d="M163.325 109.957l-4.901-2.848v-4.915l4.901 2.848v4.915zm-4.848-2.915l4.809 2.782v-4.795l-4.809-2.795v4.808z" style="mix-blend-mode:overlay"/></g><g style="mix-blend-mode:screen" class="C"><path d="M403.175 150.662l-4.902-2.848.014 4.928 4.901 2.835-.013-4.915z" fill="url(#t)"/></g><g style="mix-blend-mode:screen" class="C"><path d="M414.632 144.052l-4.887-2.848-11.472 6.61 4.902 2.848 11.457-6.61z" fill="url(#u)"/></g><path d="M403.175 150.716l-4.902-2.835 11.458-6.623 4.902 2.848-11.472 6.623.014-.013zm-4.809-2.901l4.809 2.795 11.365-6.557-4.809-2.795-11.365 6.557z" style="mix-blend-mode:overlay" class="B"/><g style="mix-blend-mode:screen" class="C"><path d="M403.175 150.663l.013 4.914 11.471-6.61-.026-4.914-11.458 6.61z" fill="url(#v)"/></g><g class="B"><path d="M403.188 155.629v-4.981l11.458-6.623v4.915l-11.471 6.623.013.066zm0-4.941v4.809l11.379-6.557v-4.809l-11.379 6.557z" style="mix-blend-mode:overlay"/><path d="M403.188 155.629l-4.901-2.834v-4.915l4.887 2.848v4.915l.014-.014zm-4.862-2.927l4.809 2.795v-4.848l-4.809-2.782v4.835z" style="mix-blend-mode:overlay"/></g><g style="mix-blend-mode:screen" class="C"><path d="M287.681 420.17l-5.709-3.325.013 5.735 5.709 3.325-.013-5.735z" fill="url(#w)"/></g><g style="mix-blend-mode:screen" class="C"><path d="M301.059 412.447l-5.709-3.311-13.378 7.709 5.709 3.325 13.378-7.723z" fill="url(#x)"/></g><path d="M287.681 420.222l-5.775-3.325 13.378-7.722 5.723 3.325-13.379 7.722h.053zm-5.603-3.325l5.603 3.259 13.246-7.656-5.603-3.259-13.246 7.656z" style="mix-blend-mode:overlay" class="B"/><g style="mix-blend-mode:screen" class="C"><path d="M287.681 420.17l.013 5.735 13.379-7.722-.014-5.736-13.378 7.723z" fill="url(#y)"/></g><g class="B"><path d="M287.694 425.958v-5.735l13.379-7.723v5.722l-13.379 7.723v.013zm0-5.749v5.603l13.247-7.656v-5.616l-13.247 7.669z" style="mix-blend-mode:overlay"/><path d="M287.694 425.958l-5.788-3.325v-5.736h.066l5.709 3.325v5.736h.013zm-5.656-3.404l5.603 3.258v-5.603l-5.616-3.312.013 5.657z" style="mix-blend-mode:overlay"/><path d="M258.38 447.364c-1.213-.004-2.408-.299-3.483-.861l-9.458-4.981.649-1.205 9.445 4.967a6.11 6.11 0 0 0 3.171.694c1.101-.058 2.165-.412 3.081-1.025l16.24-10.915v-9.617l6.146-3.974.742 1.153-5.524 3.576v9.604l-16.836 11.259c-1.227.849-2.68 1.31-4.173 1.325zm86.524-37.341c-.793-.003-1.572-.209-2.265-.596a4.61 4.61 0 0 1-2.397-4.067v-6.623c0-.567-.146-1.125-.425-1.619a3.3 3.3 0 0 0-1.165-1.202l-2.649-1.59.702-1.179 2.649 1.59a4.67 4.67 0 0 1 1.654 1.69c.396.696.607 1.482.611 2.284v6.623c-.003.586.15 1.162.445 1.668a3.28 3.28 0 0 0 1.232 1.21c.512.285 1.091.428 1.677.414a3.28 3.28 0 0 0 1.653-.497l33.699-20.81c.527-.318.951-.78 1.224-1.332a3.22 3.22 0 0 0 .312-1.781 3.17 3.17 0 0 0-.65-1.693 3.18 3.18 0 0 0-1.469-1.062l-13.14-4.875c-.818-.304-1.534-.831-2.067-1.521a4.66 4.66 0 0 1 1.232-6.811c.51-.312.925-.758 1.2-1.29a3.27 3.27 0 0 0 .356-1.724c-.041-.597-.244-1.171-.589-1.66a3.27 3.27 0 0 0-1.364-1.114l-13.737-6.107.557-1.258 13.736 6.173c.772.344 1.437.893 1.921 1.586a4.66 4.66 0 0 1 .83 2.349 4.65 4.65 0 0 1-.498 2.441c-.384.753-.966 1.388-1.683 1.836a3.3 3.3 0 0 0-.869 4.803c.374.488.877.861 1.452 1.079l13.14 4.874c.817.303 1.532.83 2.065 1.52s.86 1.515.945 2.383a4.65 4.65 0 0 1-2.189 4.416l-33.685 20.81a4.58 4.58 0 0 1-2.451.662z" style="mix-blend-mode:overlay"/></g><path d="M3.974 244.167a2.94 2.94 0 0 0-1.325 2.345c0 .861.609 1.218 1.325.781.39-.261.714-.611.944-1.021a2.99 2.99 0 0 0 .381-1.337c.04-.861-.57-1.205-1.325-.768z" fill="url(#z)"/><path d="M7.935 242.949v.477.41c-.141 1.305-.57 2.563-1.258 3.681a8.83 8.83 0 0 1-2.716 2.783c-2.199 1.325-3.974.252-3.974-2.278.072-1.377.469-2.717 1.16-3.91s1.655-2.204 2.814-2.951c2.053-1.193 3.749-.438 3.974 1.788zm-3.974 6.464c.93-.607 1.704-1.424 2.259-2.387a7.06 7.06 0 0 0 .934-3.15c0-2.027-1.444-2.848-3.219-1.828-.928.606-1.7 1.422-2.254 2.382a7.07 7.07 0 0 0-.938 3.142c0 2.04 1.457 2.861 3.219 1.841z" fill="url(#AA)"/><path d="M47.66 204.402v.45 8.928l-15.723 9.087-5.378 9.273-18.651 10.769v.477.41l18.955-10.941 5.378-9.273 16.227-9.351v-9.829-.437l-.808.437z" fill="url(#AB)"/><path d="M37.407 179.036l2.649 4.729 4.053-2.345-2.663-4.729-4.04 2.345z" fill="url(#AC)"/><path d="M30.162 183.208l2.649 4.742 4.053-2.344-2.662-4.729-4.04 2.331z" fill="url(#AD)"/><path d="M22.916 187.394l2.649 4.729 4.053-2.332-2.649-4.729-4.053 2.332z" fill="url(#AE)"/><path d="M52.64 190.361l-2.941 3.921.013 4.027 29.38-16.968-.013-6.239-26.439 15.259z" fill="url(#AF)"/><path d="M8.491 204.958a2.99 2.99 0 0 0-.942 1.014c-.23.408-.361.863-.382 1.331 0 .861.609 1.205 1.325.781a3.02 3.02 0 0 0 1.325-2.358c.04-.927-.57-1.271-1.325-.768z" fill="url(#AG)"/><path d="M12.464 203.713v.438.45c-.145 1.298-.577 2.548-1.264 3.659a8.81 8.81 0 0 1-2.709 2.765c-2.199 1.325-3.974.252-3.974-2.278.077-1.377.477-2.717 1.167-3.911a8.79 8.79 0 0 1 2.807-2.964c2.053-1.192 3.775-.357 3.974 1.841zm-3.974 6.425c.929-.608 1.703-1.426 2.257-2.387s.875-2.041.935-3.15c0-2.04-1.457-2.861-3.219-1.841a7.06 7.06 0 0 0-3.192 5.537c0 2.026 1.444 2.848 3.206 1.841" fill="url(#AH)"/><path d="M115.745 176.917c2.199-1.325 3.974-.252 3.974 2.265-.072 1.38-.469 2.724-1.16 3.921a8.75 8.75 0 0 1-2.814 2.967c-2.066 1.192-3.762.344-3.974-1.855v-.437-.45a8.84 8.84 0 0 1 1.268-3.652 8.81 8.81 0 0 1 2.706-2.759zm0 8.252a7.07 7.07 0 0 0 2.259-2.387c.555-.962.875-2.041.934-3.15 0-2.027-1.444-2.848-3.219-1.828-.927.607-1.699 1.423-2.253 2.382s-.876 2.036-.939 3.142c0 2.04 1.457 2.861 3.218 1.841z" fill="url(#AI)"/><path d="M90.419 198.614l.013 1.642 18.65-10.769-.013-1.642-18.651 10.769z" fill="url(#AJ)"/><path d="M102.764 195.62l.689 1.245 5.643-3.258-.013-1.629-6.319 3.642z" fill="url(#AK)"/><path d="M12.464 203.713v.437.451l31.354-18.095v20.532l3.775-2.186v-.45l.782-.437v.437l21.3-12.293 14.293 8.147 27.817-16.041v-.437-.451l-27.446 15.896-14.293-8.147-25.406 14.677v-20.532l-32.175 18.492z" fill="url(#AL)"/><path d="M115.758 179.924a2.97 2.97 0 0 0-.942 1.014c-.23.407-.361.863-.382 1.33 0 .861.609 1.219 1.324.782a2.99 2.99 0 0 0 .944-1.021c.23-.41.361-.868.381-1.337.04-.901-.57-1.205-1.325-.768z" fill="url(#AI)"/><path style="mix-blend-mode:color-dodge" d="M379.768 106.724c.923.419 1.701 1.101 2.236 1.962s.802 1.859.77 2.872a5.13 5.13 0 0 1-.954 2.816 5.12 5.12 0 0 1-2.357 1.813c-.947.359-1.979.428-2.966.2a5.13 5.13 0 0 1-2.579-1.48c-.694-.738-1.155-1.665-1.323-2.663s-.037-2.026.378-2.95a5.14 5.14 0 0 1 6.795-2.57z" fill="url(#AM)"/><path style="mix-blend-mode:color-dodge" d="M331.128 85.386c44.004 23.473 81.769 44.336 84.339 46.601s-31.009-14.929-75.013-38.414l-84.339-46.587c-2.583-2.265 31.009 14.915 75.013 38.401z" fill="url(#AN)"/><path style="mix-blend-mode:color-dodge" d="M306.755 69.542a3.97 3.97 0 0 1 1.746 1.515c.419.667.63 1.443.607 2.231s-.28 1.55-.737 2.191a3.98 3.98 0 0 1-1.833 1.41 3.97 3.97 0 0 1-4.307-1.007 3.97 3.97 0 0 1-1.018-2.076c-.126-.777-.018-1.575.31-2.291.436-.952 1.231-1.693 2.21-2.063s2.066-.338 3.022.089z" fill="url(#AO)"/><path style="mix-blend-mode:color-dodge" d="M320.24 72.907c1.326.597 2.444 1.574 3.215 2.807a7.35 7.35 0 0 1-.251 8.165 7.35 7.35 0 0 1-3.38 2.605c-1.36.515-2.842.615-4.259.288a7.35 7.35 0 0 1-3.7-2.126c-.997-1.059-1.656-2.39-1.896-3.824s-.049-2.907.548-4.233c.801-1.778 2.276-3.164 4.099-3.855a7.35 7.35 0 0 1 5.624.172z" fill="url(#AP)"/><g style="mix-blend-mode:color-dodge" opacity=".64" class="H"><path d="M356.839 350.667c11.379 6.557 16.916 15.233 16.598 23.843l-6.517-3.762c-1.166-6.398-6.001-12.61-14.492-17.511-10.928-6.305-25.618-9.1-39.844-8.372l-5.511-3.298c17.445-1.828 36.176 1.152 49.766 9.1zm-68.31 27.897a.63.63 0 0 1 .301.233c.074.107.113.233.113.363s-.039.256-.113.363a.63.63 0 0 1-.301.233c-.32.163-.674.248-1.033.248s-.713-.085-1.033-.248c-.583-.331-.583-.861 0-1.192a2.3 2.3 0 0 1 1.033-.245c.358 0 .712.084 1.033.245zm44.202-13.962c7.445 4.292 8.518 10.875 3.232 15.816l-1.801-1.047c4.371-4.344 3.312-10.027-3.153-13.762-7.696-4.438-20.121-4.438-27.817 0-5.947 3.457-7.245 8.57-3.907 12.769l-1.841 1.06c-4.226-4.809-2.901-10.823 3.973-14.836 8.677-4.994 22.665-4.994 31.314 0zm11.207-1.113c6.98 6.146 7.047 14.147.145 20.293l-.662-.384c6.544-5.934 6.491-13.604-.146-19.525l.663-.384zm-15.604 3.683c6.199 3.576 6.225 9.378.066 12.968s-16.187 3.576-22.386 0-6.239-9.392-.08-12.968 16.187-3.59 22.4 0zm-21.088 12.239a21.89 21.89 0 0 0 9.934 2.384c3.453 0 6.858-.817 9.935-2.384 5.471-3.179 5.444-8.345-.066-11.524a21.97 21.97 0 0 0-19.87 0c-5.47 3.179-5.444 8.345.067 11.524zm-10.544 7.153c.583.331.583.861 0 1.205a2.27 2.27 0 0 1-2.08 0 .63.63 0 0 1-.301-.233c-.074-.106-.113-.233-.113-.363s.039-.256.113-.363a.63.63 0 0 1 .301-.233 2.29 2.29 0 0 1 1.038-.258c.362-.002.719.082 1.042.245zm49.58-29.83c16.187 9.338 16.28 24.492.199 33.844s-42.242 9.338-58.429 0-16.28-24.506-.186-33.844 42.229-9.352 58.416 0zm-54.998 31.963c14.385 8.305 37.646 8.305 51.938 0s14.187-21.777-.172-30.083-37.632-8.305-51.938 0-14.213 21.777.172 30.083zm.384-5.934c.126.042.236.123.314.231s.12.238.12.371-.042.263-.12.371a.63.63 0 0 1-.314.232 2.3 2.3 0 0 1-2.079 0 .63.63 0 0 1-.314-.232c-.078-.108-.12-.238-.12-.371s.042-.263.12-.371a.63.63 0 0 1 .314-.231 2.3 2.3 0 0 1 2.079 0zm78.285 2.344a28.66 28.66 0 0 1-2.649 3.431l-4.596-2.729c.881-1.118 1.666-2.31 2.344-3.563l4.901 2.861zm-68.271-39.049c-7.021 1.218-13.784 3.619-20.002 7.1-15.312 8.901-18.544 22.147-9.669 32.903l-4.65 2.649c-11.179-12.292-7.947-27.817 9.882-38.162a68.46 68.46 0 0 1 19.525-7.378l4.914 2.888zm34.811 16.358c10.743 6.213 10.796 16.267.133 22.519s-28.043 6.199-38.772 0-10.809-16.253-.133-22.519 28.029-6.199 38.772 0zm-38.083 22.135c10.425 6.027 27.287 6.027 37.646 0s10.305-15.776-.119-21.803-27.287-6.027-37.659 0-10.306 15.789.132 21.803zm66.722 6.266c-1.596 1.482-3.306 2.837-5.113 4.053l-4.451-2.57c1.783-1.217 3.451-2.596 4.98-4.119l4.584 2.636z"/></g><path style="mix-blend-mode:overlay" d="M337.977 371.384c.082-.374.117-.757.106-1.14a6 6 0 0 0-.106-1.086v-76.642h-43.236v78.868h.093c1.02 5.642 10.305 10.04 21.618 10.014s20.439-4.425 21.525-10.014z" fill="url(#AQ)" class="D"/><path style="mix-blend-mode:overlay" d="M338.083 370.814c0 6.12-9.67 11.114-21.631 11.14s-21.684-4.887-21.711-11.007 9.67-11.114 21.645-11.14 21.684 4.888 21.697 11.007z" fill="url(#AR)" class="D"/><g class="C H"><path d="M142.953 309.974c4.57 2.65 4.596 6.928.066 9.564-2.559 1.3-5.389 1.977-8.259 1.977s-5.7-.677-8.259-1.977c-4.57-2.649-4.583-6.914 0-9.564 2.549-1.292 5.367-1.966 8.226-1.966a18.2 18.2 0 0 1 8.226 1.966z"/></g><path d="M151.655 304.914c9.418 5.444 9.458 14.253.12 19.684s-24.572 5.431-33.977 0-9.418-14.24-.146-19.684 24.599-5.431 34.003 0zm-25.167 14.571a18.23 18.23 0 0 0 8.259 1.977c2.87 0 5.7-.677 8.259-1.977 4.53-2.649 4.503-6.915-.067-9.564-2.554-1.299-5.379-1.976-8.245-1.976a18.19 18.19 0 0 0-8.246 1.976c-4.544 2.649-4.53 6.928 0 9.564" class="B"/><g style="mix-blend-mode:screen" opacity=".64" class="H"><path d="M248.962 369.212c3.126 1.814 3.153 4.728 0 6.543l-25.737 14.942c-1.747.895-3.681 1.362-5.643 1.362a12.37 12.37 0 0 1-5.643-1.362L84.246 316.982c-3.126-1.815-3.139-4.729 0-6.544l45.62-26.492c1.747-.895 3.681-1.362 5.643-1.362a12.37 12.37 0 0 1 5.643 1.362l52.137 30.095c2.292 1.325 2.994 3.325 1.736 5.06l-7.591 10.597c-1.258 1.735-.569 3.736 1.722 5.06l59.807 34.454zm-131.137-44.667c9.404 5.431 24.624 5.431 33.976 0s9.273-14.239-.119-19.683-24.625-5.431-33.963 0-9.273 14.252.106 19.683z"/></g><path d="M240.684 375.305l-3.948 2.292-77.861-44.998 3.961-2.291 77.848 44.997zM201.329 362.8l-3.947 2.292-47.369-27.34 3.948-2.292 47.368 27.34z" class="B"/><path style="mix-blend-mode:overlay" d="M269.626 442.026c122.062 0 221.013-98.951 221.013-221.013S391.688 0 269.626 0 48.613 98.951 48.613 221.013s98.951 221.013 221.013 221.013z" fill="url(#AS)" class="D"/><use xlink:href="#AX" style="mix-blend-mode:overlay" fill="url(#AT)" class="D"/><use xlink:href="#AX" style="mix-blend-mode:overlay" fill="url(#AT)" class="D"/><use xlink:href="#AY" style="mix-blend-mode:overlay" fill="url(#AU)" class="D"/><use xlink:href="#AY" style="mix-blend-mode:overlay" fill="url(#AU)" class="D"/><use xlink:href="#AZ" style="mix-blend-mode:overlay" fill="url(#AV)" class="D"/><use xlink:href="#AZ" style="mix-blend-mode:overlay" fill="url(#AV)" class="D"/><defs><linearGradient id="A" x1="102.592" y1="227.689" x2="113.745" y2="227.689" xlink:href="#Aa"><stop stop-color="#f3d038"/><stop offset=".99" stop-color="#dd4372"/></linearGradient><linearGradient id="B" x1="75.993" y1="217.992" x2="113.771" y2="217.992" xlink:href="#Aa"><stop stop-color="#f3d038"/><stop offset=".99" stop-color="#dd4372"/></linearGradient><linearGradient id="C" x1="81.451" y1="251.532" x2="113.798" y2="251.532" xlink:href="#Aa"><stop stop-color="#f3d038"/><stop offset=".99" stop-color="#dd4372"/></linearGradient><linearGradient id="D" x1="157.881" y1="310.359" x2="127.574" y2="417.759" xlink:href="#Aa"><stop stop-color="#d1d3d4"/><stop offset=".12" stop-color="#8b9298"/><stop offset=".14" stop-color="#92989e"/><stop offset=".27" stop-color="#bcbfc2"/><stop offset=".37" stop-color="#d6d7d8"/><stop offset=".43" stop-color="#e0e0e0"/><stop offset=".47" stop-color="#d5d6d6"/><stop offset=".54" stop-color="#b7babb"/><stop offset=".63" stop-color="#878d8f"/><stop offset=".74" stop-color="#465053"/><stop offset=".79" stop-color="#6a7072"/><stop offset=".89" stop-color="#a8a8a8"/><stop offset=".96" stop-color="#cfccc9"/><stop offset="1" stop-color="#e5e2df"/></linearGradient><linearGradient id="E" x1="206.349" y1="308.2" x2="39.513" y2="459.048" xlink:href="#Aa"><stop stop-color="#d1d3d4"/><stop offset=".12" stop-color="#8b9298"/><stop offset=".14" stop-color="#92989e"/><stop offset=".27" stop-color="#bcbfc2"/><stop offset=".37" stop-color="#d6d7d8"/><stop offset=".43" stop-color="#e0e0e0"/><stop offset=".47" stop-color="#d5d6d6"/><stop offset=".54" stop-color="#b7babb"/><stop offset=".63" stop-color="#878d8f"/><stop offset=".74" stop-color="#465053"/><stop offset=".79" stop-color="#6a7072"/><stop offset=".89" stop-color="#a8a8a8"/><stop offset=".96" stop-color="#cfccc9"/><stop offset="1" stop-color="#e5e2df"/></linearGradient><linearGradient id="F" x1="208.985" y1="306.848" x2="202.111" y2="400.419" xlink:href="#Aa"><stop stop-color="#d1d3d4"/><stop offset=".12" stop-color="#8b9298"/><stop offset=".14" stop-color="#92989e"/><stop offset=".27" stop-color="#bcbfc2"/><stop offset=".37" stop-color="#d6d7d8"/><stop offset=".43" stop-color="#e0e0e0"/><stop offset=".47" stop-color="#d5d6d6"/><stop offset=".54" stop-color="#b7babb"/><stop offset=".63" stop-color="#878d8f"/><stop offset=".74" stop-color="#465053"/><stop offset=".79" stop-color="#6a7072"/><stop offset=".89" stop-color="#a8a8a8"/><stop offset=".96" stop-color="#cfccc9"/><stop offset="1" stop-color="#e5e2df"/></linearGradient><linearGradient id="G" x1="207.356" y1="277.918" x2="210.469" y2="454.769" xlink:href="#Aa"><stop stop-color="#d1d3d4"/><stop offset=".12" stop-color="#8b9298"/><stop offset=".14" stop-color="#92989e"/><stop offset=".27" stop-color="#bcbfc2"/><stop offset=".37" stop-color="#d6d7d8"/><stop offset=".43" stop-color="#e0e0e0"/><stop offset=".47" stop-color="#d5d6d6"/><stop offset=".54" stop-color="#b7babb"/><stop offset=".63" stop-color="#878d8f"/><stop offset=".74" stop-color="#465053"/><stop offset=".79" stop-color="#6a7072"/><stop offset=".89" stop-color="#a8a8a8"/><stop offset=".96" stop-color="#cfccc9"/><stop offset="1" stop-color="#e5e2df"/></linearGradient><linearGradient id="H" x1="124.09" y1="371.662" x2="101.731" y2="394.022" xlink:href="#Aa"><stop stop-color="#d1d3d4"/><stop offset=".12" stop-color="#8b9298"/><stop offset=".14" stop-color="#92989e"/><stop offset=".27" stop-color="#bcbfc2"/><stop offset=".37" stop-color="#d6d7d8"/><stop offset=".43" stop-color="#e0e0e0"/><stop offset=".47" stop-color="#d5d6d6"/><stop offset=".54" stop-color="#b7babb"/><stop offset=".63" stop-color="#878d8f"/><stop offset=".74" stop-color="#465053"/><stop offset=".79" stop-color="#6a7072"/><stop offset=".89" stop-color="#a8a8a8"/><stop offset=".96" stop-color="#cfccc9"/><stop offset="1" stop-color="#e5e2df"/></linearGradient><linearGradient id="I" x1="213.045" y1="450.259" x2="347.699" y2="365.692" xlink:href="#Aa"><stop stop-color="#565656" stop-opacity="0"/><stop offset=".14" stop-color="#545454" stop-opacity=".22"/><stop offset=".41" stop-color="#4f4f4f" stop-opacity=".78"/><stop offset=".51" stop-color="#4d4d4d"/><stop offset="1" stop-color="#5c5c5c" stop-opacity="0"/></linearGradient><linearGradient id="J" x1="175.351" y1="425.506" x2="37.026" y2="347.599" xlink:href="#Aa"><stop stop-color="#565656" stop-opacity="0"/><stop offset=".14" stop-color="#545454" stop-opacity=".22"/><stop offset=".41" stop-color="#4f4f4f" stop-opacity=".78"/><stop offset=".51" stop-color="#4d4d4d"/><stop offset="1" stop-color="#5c5c5c" stop-opacity="0"/></linearGradient><linearGradient id="K" x1="397.945" y1="177.992" x2="258.019" y2="101.668" xlink:href="#Aa"><stop stop-color="#565656" stop-opacity="0"/><stop offset=".11" stop-color="#585959" stop-opacity=".16"/><stop offset=".32" stop-color="#5e6162" stop-opacity=".56"/><stop offset=".51" stop-color="#65696b"/><stop offset="1" stop-color="#5c5c5c" stop-opacity="0"/></linearGradient><linearGradient id="L" x1="385.094" y1="191.22" x2="391.956" y2="225.529" xlink:href="#Aa"><stop stop-color="#565656" stop-opacity="0"/><stop offset=".11" stop-color="#585959" stop-opacity=".16"/><stop offset=".32" stop-color="#5e6162" stop-opacity=".56"/><stop offset=".51" stop-color="#65696b"/><stop offset="1" stop-color="#5c5c5c" stop-opacity="0"/></linearGradient><linearGradient id="M" x1="406.606" y1="186.917" x2="413.467" y2="221.238" xlink:href="#Aa"><stop stop-color="#565656" stop-opacity="0"/><stop offset=".11" stop-color="#585959" stop-opacity=".16"/><stop offset=".32" stop-color="#5e6162" stop-opacity=".56"/><stop offset=".51" stop-color="#65696b"/><stop offset="1" stop-color="#5c5c5c" stop-opacity="0"/></linearGradient><linearGradient id="N" x1="150.411" y1="222.483" x2="420.236" y2="222.483" xlink:href="#Aa"><stop stop-color="#d1d3d4"/><stop offset=".12" stop-color="#8b9298"/><stop offset=".14" stop-color="#92989e"/><stop offset=".27" stop-color="#bcbfc2"/><stop offset=".37" stop-color="#d6d7d8"/><stop offset=".43" stop-color="#e0e0e0"/><stop offset=".47" stop-color="#d5d6d6"/><stop offset=".54" stop-color="#b7babb"/><stop offset=".63" stop-color="#878d8f"/><stop offset=".74" stop-color="#465053"/><stop offset=".79" stop-color="#6a7072"/><stop offset=".89" stop-color="#a8a8a8"/><stop offset=".96" stop-color="#cfccc9"/><stop offset="1" stop-color="#e5e2df"/></linearGradient><linearGradient id="O" x1="434.052" y1="198.39" x2="367.269" y2="343.087" xlink:href="#Aa"><stop stop-color="#565656" stop-opacity="0"/><stop offset=".14" stop-color="#545454" stop-opacity=".22"/><stop offset=".41" stop-color="#4f4f4f" stop-opacity=".78"/><stop offset=".51" stop-color="#4d4d4d"/><stop offset="1" stop-color="#5c5c5c" stop-opacity="0"/></linearGradient><linearGradient id="P" x1="204.932" y1="32.493" x2="261.665" y2="200.879" xlink:href="#Aa"><stop stop-color="#73cbfd"/><stop offset=".1" stop-color="#72c9fd" stop-opacity=".98"/><stop offset=".23" stop-color="#6fc5fd" stop-opacity=".92"/><stop offset=".36" stop-color="#6bbdfd" stop-opacity=".82"/><stop offset=".51" stop-color="#65b2fc" stop-opacity=".69"/><stop offset=".66" stop-color="#5da4fc" stop-opacity=".51"/><stop offset=".81" stop-color="#5493fc" stop-opacity=".3"/><stop offset=".97" stop-color="#487ffb" stop-opacity=".05"/><stop offset="1" stop-color="#467bfb" stop-opacity="0"/></linearGradient><linearGradient id="Q" x1="143.112" y1="208.297" x2="280.687" y2="208.297" xlink:href="#Aa"><stop stop-color="#73cbfd"/><stop offset=".2" stop-color="#70c6fd"/><stop offset=".44" stop-color="#68b7fd"/><stop offset=".71" stop-color="#5a9ffc"/><stop offset=".99" stop-color="#477dfb"/><stop offset="1" stop-color="#467bfb"/></linearGradient><linearGradient id="R" x1="319.75" y1="133.813" x2="358.177" y2="303.113" xlink:href="#Aa"><stop stop-color="#f9e836"/><stop offset="1" stop-color="#db1ab8"/></linearGradient><linearGradient id="S" x1="311.511" y1="292.966" x2="352.746" y2="292.966" xlink:href="#Aa"><stop stop-color="#f9e836"/><stop offset="1" stop-color="#db1ab8"/></linearGradient><linearGradient id="T" x1="264.01" y1="258.632" x2="299.258" y2="258.632" xlink:href="#Aa"><stop stop-color="#73cbfd"/><stop offset=".2" stop-color="#70c6fd"/><stop offset=".44" stop-color="#68b7fd"/><stop offset=".71" stop-color="#5a9ffc"/><stop offset=".99" stop-color="#477dfb"/><stop offset="1" stop-color="#467bfb"/></linearGradient><linearGradient id="U" x1="354.256" y1="248.763" x2="410.539" y2="248.763" xlink:href="#Aa"><stop stop-color="#73cbfd"/><stop offset=".2" stop-color="#70c6fd"/><stop offset=".44" stop-color="#68b7fd"/><stop offset=".71" stop-color="#5a9ffc"/><stop offset=".99" stop-color="#477dfb"/><stop offset="1" stop-color="#467bfb"/></linearGradient><linearGradient id="V" x1="358.694" y1="244.432" x2="437.403" y2="244.432" xlink:href="#Aa"><stop stop-color="#73cbfd"/><stop offset=".2" stop-color="#70c6fd"/><stop offset=".44" stop-color="#68b7fd"/><stop offset=".71" stop-color="#5a9ffc"/><stop offset=".99" stop-color="#477dfb"/><stop offset="1" stop-color="#467bfb"/></linearGradient><linearGradient id="W" x1="123.891" y1="190.454" x2="276.567" y2="190.454" xlink:href="#Aa"><stop stop-color="#73cbfd"/><stop offset=".2" stop-color="#70c6fd"/><stop offset=".44" stop-color="#68b7fd"/><stop offset=".71" stop-color="#5a9ffc"/><stop offset=".99" stop-color="#477dfb"/><stop offset="1" stop-color="#467bfb"/></linearGradient><radialGradient id="X" cx="0" cy="0" r="1" gradientTransform="translate(222.283 254.735) rotate(-65.2248) scale(5.13779 5.1378)" xlink:href="#Aa"><stop stop-color="#fff"/><stop offset=".03" stop-color="#ededed"/><stop offset=".14" stop-color="#b6b6b6"/><stop offset=".26" stop-color="#858585"/><stop offset=".37" stop-color="#5c5c5c"/><stop offset=".49" stop-color="#3b3b3b"/><stop offset=".61" stop-color="#212121"/><stop offset=".73" stop-color="#0f0f0f"/><stop offset=".86" stop-color="#040404"/><stop offset="1"/></radialGradient><radialGradient id="Y" cx="0" cy="0" r="1" gradientTransform="translate(172.259 244.116) rotate(-138.013) scale(6.20704 20.9721)" xlink:href="#Aa"><stop stop-color="#fff"/><stop offset=".03" stop-color="#ededed"/><stop offset=".14" stop-color="#b6b6b6"/><stop offset=".26" stop-color="#858585"/><stop offset=".37" stop-color="#5c5c5c"/><stop offset=".49" stop-color="#3b3b3b"/><stop offset=".61" stop-color="#212121"/><stop offset=".73" stop-color="#0f0f0f"/><stop offset=".86" stop-color="#040404"/><stop offset="1"/></radialGradient><radialGradient id="Z" cx="0" cy="0" r="1" gradientTransform="translate(149.922 215.795) rotate(-65.2249) scale(3.96952 3.96952)" xlink:href="#Aa"><stop stop-color="#fff"/><stop offset=".03" stop-color="#ededed"/><stop offset=".14" stop-color="#b6b6b6"/><stop offset=".26" stop-color="#858585"/><stop offset=".37" stop-color="#5c5c5c"/><stop offset=".49" stop-color="#3b3b3b"/><stop offset=".61" stop-color="#212121"/><stop offset=".73" stop-color="#0f0f0f"/><stop offset=".86" stop-color="#040404"/><stop offset="1"/></radialGradient><radialGradient id="a" cx="0" cy="0" r="1" gradientTransform="translate(161.978 222.369) rotate(-65.2249) scale(7.36816)" xlink:href="#Aa"><stop stop-color="#fff"/><stop offset=".03" stop-color="#ededed"/><stop offset=".14" stop-color="#b6b6b6"/><stop offset=".26" stop-color="#858585"/><stop offset=".37" stop-color="#5c5c5c"/><stop offset=".49" stop-color="#3b3b3b"/><stop offset=".61" stop-color="#212121"/><stop offset=".73" stop-color="#0f0f0f"/><stop offset=".86" stop-color="#040404"/><stop offset="1"/></radialGradient><radialGradient id="b" cx="0" cy="0" r="1" gradientTransform="translate(266.018 168.161) rotate(-66.55) scale(5.12629 5.12628)" xlink:href="#Aa"><stop stop-color="#fff"/><stop offset=".03" stop-color="#ededed"/><stop offset=".14" stop-color="#b6b6b6"/><stop offset=".26" stop-color="#858585"/><stop offset=".37" stop-color="#5c5c5c"/><stop offset=".49" stop-color="#3b3b3b"/><stop offset=".61" stop-color="#212121"/><stop offset=".73" stop-color="#0f0f0f"/><stop offset=".86" stop-color="#040404"/><stop offset="1"/></radialGradient><radialGradient id="c" cx="0" cy="0" r="1" gradientTransform="translate(222.225 162.34) rotate(-139.347) scale(6.21634 20.9572)" xlink:href="#Aa"><stop stop-color="#fff"/><stop offset=".03" stop-color="#ededed"/><stop offset=".14" stop-color="#b6b6b6"/><stop offset=".26" stop-color="#858585"/><stop offset=".37" stop-color="#5c5c5c"/><stop offset=".49" stop-color="#3b3b3b"/><stop offset=".61" stop-color="#212121"/><stop offset=".73" stop-color="#0f0f0f"/><stop offset=".86" stop-color="#040404"/><stop offset="1"/></radialGradient><radialGradient id="d" cx="0" cy="0" r="1" gradientTransform="translate(192.939 130.989) rotate(-66.55) scale(3.96062)" xlink:href="#Aa"><stop stop-color="#fff"/><stop offset=".03" stop-color="#ededed"/><stop offset=".14" stop-color="#b6b6b6"/><stop offset=".26" stop-color="#858585"/><stop offset=".37" stop-color="#5c5c5c"/><stop offset=".49" stop-color="#3b3b3b"/><stop offset=".61" stop-color="#212121"/><stop offset=".73" stop-color="#0f0f0f"/><stop offset=".86" stop-color="#040404"/><stop offset="1"/></radialGradient><radialGradient id="e" cx="0" cy="0" r="1" gradientTransform="translate(205.117 137.268) rotate(-66.55) scale(7.35164 7.35164)" xlink:href="#Aa"><stop stop-color="#fff"/><stop offset=".03" stop-color="#ededed"/><stop offset=".14" stop-color="#b6b6b6"/><stop offset=".26" stop-color="#858585"/><stop offset=".37" stop-color="#5c5c5c"/><stop offset=".49" stop-color="#3b3b3b"/><stop offset=".61" stop-color="#212121"/><stop offset=".73" stop-color="#0f0f0f"/><stop offset=".86" stop-color="#040404"/><stop offset="1"/></radialGradient><linearGradient id="f" x1="385.64" y1="124.966" x2="389.745" y2="124.861" xlink:href="#Aa"><stop stop-color="#73cbfd"/><stop offset=".2" stop-color="#70c6fd"/><stop offset=".44" stop-color="#68b7fd"/><stop offset=".71" stop-color="#5a9ffc"/><stop offset=".99" stop-color="#477dfb"/><stop offset="1" stop-color="#467bfb"/></linearGradient><linearGradient id="g" x1="277.316" y1="110.454" x2="403.285" y2="107.221" xlink:href="#Aa"><stop stop-color="#73cbfd"/><stop offset=".2" stop-color="#70c6fd"/><stop offset=".44" stop-color="#68b7fd"/><stop offset=".71" stop-color="#5a9ffc"/><stop offset=".99" stop-color="#477dfb"/><stop offset="1" stop-color="#467bfb"/></linearGradient><linearGradient id="h" x1="395.813" y1="130.495" x2="399.905" y2="130.39" xlink:href="#Aa"><stop stop-color="#cff7a6"/><stop offset="1" stop-color="#589ddd"/></linearGradient><linearGradient id="i" x1="277.139" y1="100.997" x2="403.096" y2="97.765" xlink:href="#Aa"><stop stop-color="#cff7a6"/><stop offset="1" stop-color="#589ddd"/></linearGradient><linearGradient id="j" x1="375.481" y1="119.436" x2="379.586" y2="119.33" xlink:href="#Aa"><stop stop-color="#f9e836"/><stop offset="1" stop-color="#db1ab8"/></linearGradient><linearGradient id="k" x1="289.005" y1="406.566" x2="306.716" y2="406.566" xlink:href="#Aa"><stop stop-color="#73cbfd"/><stop offset=".2" stop-color="#70c6fd"/><stop offset=".44" stop-color="#68b7fd"/><stop offset=".71" stop-color="#5a9ffc"/><stop offset=".99" stop-color="#477dfb"/><stop offset="1" stop-color="#467bfb"/></linearGradient><linearGradient id="l" x1="289.005" y1="385.783" x2="347.977" y2="385.783" xlink:href="#Aa"><stop stop-color="#73cbfd"/><stop offset=".2" stop-color="#70c6fd"/><stop offset=".44" stop-color="#68b7fd"/><stop offset=".71" stop-color="#5a9ffc"/><stop offset=".99" stop-color="#477dfb"/><stop offset="1" stop-color="#467bfb"/></linearGradient><linearGradient id="m" x1="306.663" y1="399.771" x2="348.03" y2="399.771" xlink:href="#Aa"><stop stop-color="#73cbfd"/><stop offset=".2" stop-color="#70c6fd"/><stop offset=".44" stop-color="#68b7fd"/><stop offset=".71" stop-color="#5a9ffc"/><stop offset=".99" stop-color="#477dfb"/><stop offset="1" stop-color="#467bfb"/></linearGradient><linearGradient id="n" x1="198.693" y1="248.79" x2="203.594" y2="248.79" xlink:href="#Aa"><stop stop-color="#73cbfd"/><stop offset=".2" stop-color="#70c6fd"/><stop offset=".44" stop-color="#68b7fd"/><stop offset=".71" stop-color="#5a9ffc"/><stop offset=".99" stop-color="#477dfb"/><stop offset="1" stop-color="#467bfb"/></linearGradient><linearGradient id="o" x1="198.693" y1="243.028" x2="215.052" y2="243.028" xlink:href="#Aa"><stop stop-color="#73cbfd"/><stop offset=".2" stop-color="#70c6fd"/><stop offset=".44" stop-color="#68b7fd"/><stop offset=".71" stop-color="#5a9ffc"/><stop offset=".99" stop-color="#477dfb"/><stop offset="1" stop-color="#467bfb"/></linearGradient><linearGradient id="p" x1="203.581" y1="246.896" x2="215.065" y2="246.896" xlink:href="#Aa"><stop stop-color="#73cbfd"/><stop offset=".2" stop-color="#70c6fd"/><stop offset=".44" stop-color="#68b7fd"/><stop offset=".71" stop-color="#5a9ffc"/><stop offset=".99" stop-color="#477dfb"/><stop offset="1" stop-color="#467bfb"/></linearGradient><linearGradient id="q" x1="158.424" y1="106.035" x2="163.339" y2="106.035" xlink:href="#Aa"><stop stop-color="#73cbfd"/><stop offset=".2" stop-color="#70c6fd"/><stop offset=".44" stop-color="#68b7fd"/><stop offset=".71" stop-color="#5a9ffc"/><stop offset=".99" stop-color="#477dfb"/><stop offset="1" stop-color="#467bfb"/></linearGradient><linearGradient id="r" x1="158.424" y1="100.26" x2="174.783" y2="100.26" xlink:href="#Aa"><stop stop-color="#73cbfd"/><stop offset=".2" stop-color="#70c6fd"/><stop offset=".44" stop-color="#68b7fd"/><stop offset=".71" stop-color="#5a9ffc"/><stop offset=".99" stop-color="#477dfb"/><stop offset="1" stop-color="#467bfb"/></linearGradient><linearGradient id="s" x1="163.326" y1="104.142" x2="174.797" y2="104.142" xlink:href="#Aa"><stop stop-color="#73cbfd"/><stop offset=".2" stop-color="#70c6fd"/><stop offset=".44" stop-color="#68b7fd"/><stop offset=".71" stop-color="#5a9ffc"/><stop offset=".99" stop-color="#477dfb"/><stop offset="1" stop-color="#467bfb"/></linearGradient><linearGradient id="t" x1="398.273" y1="151.696" x2="403.188" y2="151.696" xlink:href="#Aa"><stop stop-color="#73cbfd"/><stop offset=".2" stop-color="#70c6fd"/><stop offset=".44" stop-color="#68b7fd"/><stop offset=".71" stop-color="#5a9ffc"/><stop offset=".99" stop-color="#477dfb"/><stop offset="1" stop-color="#467bfb"/></linearGradient><linearGradient id="u" x1="398.273" y1="145.933" x2="414.632" y2="145.933" xlink:href="#Aa"><stop stop-color="#73cbfd"/><stop offset=".2" stop-color="#70c6fd"/><stop offset=".44" stop-color="#68b7fd"/><stop offset=".71" stop-color="#5a9ffc"/><stop offset=".99" stop-color="#477dfb"/><stop offset="1" stop-color="#467bfb"/></linearGradient><linearGradient id="v" x1="403.175" y1="149.815" x2="414.646" y2="149.815" xlink:href="#Aa"><stop stop-color="#73cbfd"/><stop offset=".2" stop-color="#70c6fd"/><stop offset=".44" stop-color="#68b7fd"/><stop offset=".71" stop-color="#5a9ffc"/><stop offset=".99" stop-color="#477dfb"/><stop offset="1" stop-color="#467bfb"/></linearGradient><linearGradient id="w" x1="281.972" y1="421.375" x2="287.707" y2="421.375" xlink:href="#Aa"><stop stop-color="#73cbfd"/><stop offset=".2" stop-color="#70c6fd"/><stop offset=".44" stop-color="#68b7fd"/><stop offset=".71" stop-color="#5a9ffc"/><stop offset=".99" stop-color="#477dfb"/><stop offset="1" stop-color="#467bfb"/></linearGradient><linearGradient id="x" x1="281.972" y1="414.646" x2="301.059" y2="414.646" xlink:href="#Aa"><stop stop-color="#73cbfd"/><stop offset=".2" stop-color="#70c6fd"/><stop offset=".44" stop-color="#68b7fd"/><stop offset=".71" stop-color="#5a9ffc"/><stop offset=".99" stop-color="#477dfb"/><stop offset="1" stop-color="#467bfb"/></linearGradient><linearGradient id="y" x1="287.681" y1="419.176" x2="301.073" y2="419.176" xlink:href="#Aa"><stop stop-color="#73cbfd"/><stop offset=".2" stop-color="#70c6fd"/><stop offset=".44" stop-color="#68b7fd"/><stop offset=".71" stop-color="#5a9ffc"/><stop offset=".99" stop-color="#477dfb"/><stop offset="1" stop-color="#467bfb"/></linearGradient><linearGradient id="z" x1="22.081" y1="185.858" x2="-.225" y2="259.639" xlink:href="#Aa"><stop stop-color="#f3d038"/><stop offset=".99" stop-color="#dd4372"/></linearGradient><linearGradient id="AA" x1="50.097" y1="121.759" x2="-2.755" y2="263.825" xlink:href="#Aa"><stop stop-color="#73cbfd"/><stop offset=".2" stop-color="#70c6fd"/><stop offset=".44" stop-color="#68b7fd"/><stop offset=".71" stop-color="#5a9ffc"/><stop offset=".99" stop-color="#477dfb"/><stop offset="1" stop-color="#467bfb"/></linearGradient><linearGradient id="AB" x1="65.767" y1="127.587" x2="12.928" y2="269.653" xlink:href="#Aa"><stop stop-color="#73cbfd"/><stop offset=".2" stop-color="#70c6fd"/><stop offset=".44" stop-color="#68b7fd"/><stop offset=".71" stop-color="#5a9ffc"/><stop offset=".99" stop-color="#477dfb"/><stop offset="1" stop-color="#467bfb"/></linearGradient><linearGradient id="AC" x1="60.999" y1="125.813" x2="8.146" y2="267.878" xlink:href="#Aa"><stop stop-color="#73cbfd"/><stop offset=".2" stop-color="#70c6fd"/><stop offset=".44" stop-color="#68b7fd"/><stop offset=".71" stop-color="#5a9ffc"/><stop offset=".99" stop-color="#477dfb"/><stop offset="1" stop-color="#467bfb"/></linearGradient><linearGradient id="AD" x1="56.005" y1="123.945" x2="3.153" y2="266.024" xlink:href="#Aa"><stop stop-color="#73cbfd"/><stop offset=".2" stop-color="#70c6fd"/><stop offset=".44" stop-color="#68b7fd"/><stop offset=".71" stop-color="#5a9ffc"/><stop offset=".99" stop-color="#477dfb"/><stop offset="1" stop-color="#467bfb"/></linearGradient><linearGradient id="AE" x1="50.998" y1="122.09" x2="-1.841" y2="264.155" xlink:href="#Aa"><stop stop-color="#73cbfd"/><stop offset=".2" stop-color="#70c6fd"/><stop offset=".44" stop-color="#68b7fd"/><stop offset=".71" stop-color="#5a9ffc"/><stop offset=".99" stop-color="#477dfb"/><stop offset="1" stop-color="#467bfb"/></linearGradient><linearGradient id="AF" x1="84.246" y1="134.449" x2="31.393" y2="276.528" xlink:href="#Aa"><stop stop-color="#f3d038"/><stop offset=".99" stop-color="#dd4372"/></linearGradient><linearGradient id="AG" x1="15.339" y1="183.817" x2="-6.967" y2="257.598" xlink:href="#Aa"><stop stop-color="#f3d038"/><stop offset=".99" stop-color="#dd4372"/></linearGradient><linearGradient id="AH" x1="41.235" y1="118.461" x2="-11.617" y2="260.526" xlink:href="#Aa"><stop stop-color="#73cbfd"/><stop offset=".2" stop-color="#70c6fd"/><stop offset=".44" stop-color="#68b7fd"/><stop offset=".71" stop-color="#5a9ffc"/><stop offset=".99" stop-color="#477dfb"/><stop offset="1" stop-color="#467bfb"/></linearGradient><linearGradient id="AI" x1="127.296" y1="150.477" x2="74.457" y2="292.543" xlink:href="#Aa"><stop stop-color="#73cbfd"/><stop offset=".2" stop-color="#70c6fd"/><stop offset=".44" stop-color="#68b7fd"/><stop offset=".71" stop-color="#5a9ffc"/><stop offset=".99" stop-color="#477dfb"/><stop offset="1" stop-color="#467bfb"/></linearGradient><linearGradient id="AJ" x1="117.335" y1="146.768" x2="64.496" y2="288.834" xlink:href="#Aa"><stop stop-color="#73cbfd"/><stop offset=".2" stop-color="#70c6fd"/><stop offset=".44" stop-color="#68b7fd"/><stop offset=".71" stop-color="#5a9ffc"/><stop offset=".99" stop-color="#477dfb"/><stop offset="1" stop-color="#467bfb"/></linearGradient><linearGradient id="AK" x1="122.951" y1="148.848" x2="70.112" y2="290.927" xlink:href="#Aa"><stop stop-color="#73cbfd"/><stop offset=".2" stop-color="#70c6fd"/><stop offset=".44" stop-color="#68b7fd"/><stop offset=".71" stop-color="#5a9ffc"/><stop offset=".99" stop-color="#477dfb"/><stop offset="1" stop-color="#467bfb"/></linearGradient><linearGradient id="AL" x1="84.272" y1="134.462" x2="31.42" y2="276.527" xlink:href="#Aa"><stop stop-color="#73cbfd"/><stop offset=".2" stop-color="#70c6fd"/><stop offset=".44" stop-color="#68b7fd"/><stop offset=".71" stop-color="#5a9ffc"/><stop offset=".99" stop-color="#477dfb"/><stop offset="1" stop-color="#467bfb"/></linearGradient><radialGradient id="AM" cx="0" cy="0" r="1" gradientTransform="translate(376.85 110.948) rotate(-65.7461) scale(5.11653 5.11653)" xlink:href="#Aa"><stop stop-color="#fff"/><stop offset=".03" stop-color="#ededed"/><stop offset=".14" stop-color="#b6b6b6"/><stop offset=".26" stop-color="#858585"/><stop offset=".37" stop-color="#5c5c5c"/><stop offset=".49" stop-color="#3b3b3b"/><stop offset=".61" stop-color="#212121"/><stop offset=".73" stop-color="#0f0f0f"/><stop offset=".86" stop-color="#040404"/><stop offset="1"/></radialGradient><radialGradient id="AN" cx="0" cy="0" r="1" gradientTransform="translate(339.408 91.6605) rotate(-138.681) scale(6.21127 20.6853)" xlink:href="#Aa"><stop stop-color="#fff"/><stop offset=".03" stop-color="#ededed"/><stop offset=".14" stop-color="#b6b6b6"/><stop offset=".26" stop-color="#858585"/><stop offset=".37" stop-color="#5c5c5c"/><stop offset=".49" stop-color="#3b3b3b"/><stop offset=".61" stop-color="#212121"/><stop offset=".73" stop-color="#0f0f0f"/><stop offset=".86" stop-color="#040404"/><stop offset="1"/></radialGradient><radialGradient id="AO" cx="0" cy="0" r="1" gradientTransform="translate(304.427 72.8216) rotate(-65.7461) scale(3.95308 3.95308)" xlink:href="#Aa"><stop stop-color="#fff"/><stop offset=".03" stop-color="#ededed"/><stop offset=".14" stop-color="#b6b6b6"/><stop offset=".26" stop-color="#858585"/><stop offset=".37" stop-color="#5c5c5c"/><stop offset=".49" stop-color="#3b3b3b"/><stop offset=".61" stop-color="#212121"/><stop offset=".73" stop-color="#0f0f0f"/><stop offset=".86" stop-color="#040404"/><stop offset="1"/></radialGradient><radialGradient id="AP" cx="0" cy="0" r="1" gradientTransform="translate(316.492 79.2581) rotate(-65.7461) scale(7.33766 7.33767)" xlink:href="#Aa"><stop stop-color="#fff"/><stop offset=".03" stop-color="#ededed"/><stop offset=".14" stop-color="#b6b6b6"/><stop offset=".26" stop-color="#858585"/><stop offset=".37" stop-color="#5c5c5c"/><stop offset=".49" stop-color="#3b3b3b"/><stop offset=".61" stop-color="#212121"/><stop offset=".73" stop-color="#0f0f0f"/><stop offset=".86" stop-color="#040404"/><stop offset="1"/></radialGradient><linearGradient id="AQ" x1="316.412" y1="275.097" x2="316.412" y2="326.876" xlink:href="#Aa"><stop stop-color="#2d2e56" stop-opacity="0"/><stop offset=".15" stop-color="#3a5878" stop-opacity=".2"/><stop offset=".39" stop-color="#4c92a7" stop-opacity=".48"/><stop offset=".6" stop-color="#5ac1cd" stop-opacity=".7"/><stop offset=".77" stop-color="#64e3e8" stop-opacity=".86"/><stop offset=".92" stop-color="#6bf7f9" stop-opacity=".96"/><stop offset="1" stop-color="#6dffff"/></linearGradient><linearGradient id="AR" x1="280.056" y1="372.598" x2="312.677" y2="371.038" xlink:href="#Aa"><stop stop-color="#2d2e56" stop-opacity="0"/><stop offset=".38" stop-color="#7c7c95" stop-opacity=".37"/><stop offset="1" stop-color="#fff"/></linearGradient><linearGradient id="AS" x1="581.402" y1="-162.955" x2="-123.203" y2="704.83" xlink:href="#Aa"><stop stop-color="#2d2e56" stop-opacity="0"/><stop offset=".15" stop-color="#575878" stop-opacity=".2"/><stop offset=".39" stop-color="#9292a7" stop-opacity=".48"/><stop offset=".6" stop-color="#c1c1cd" stop-opacity=".7"/><stop offset=".77" stop-color="#e3e3e8" stop-opacity=".86"/><stop offset=".92" stop-color="#f7f7f9" stop-opacity=".96"/><stop offset="1" stop-color="#fff"/></linearGradient><linearGradient id="AT" x1="111.484" y1="114.098" x2="-29.906" y2="288.233" xlink:href="#Aa"><stop stop-color="#2f3058" stop-opacity=".01"/><stop offset=".12" stop-color="#5f607e" stop-opacity=".24"/><stop offset=".25" stop-color="#8a8aa1" stop-opacity=".44"/><stop offset=".37" stop-color="#aeaebe" stop-opacity=".61"/><stop offset=".5" stop-color="#cbcbd5" stop-opacity=".75"/><stop offset=".62" stop-color="#e2e2e8" stop-opacity=".86"/><stop offset=".75" stop-color="#f2f2f5" stop-opacity=".94"/><stop offset=".87" stop-color="#fcfcfc" stop-opacity=".98"/><stop offset="1" stop-color="#fff"/></linearGradient><linearGradient id="AU" x1="283.061" y1="83.255" x2="185.158" y2="203.849" xlink:href="#Aa"><stop stop-color="#2f3058" stop-opacity=".01"/><stop offset=".12" stop-color="#5f607e" stop-opacity=".24"/><stop offset=".25" stop-color="#8a8aa1" stop-opacity=".44"/><stop offset=".37" stop-color="#aeaebe" stop-opacity=".61"/><stop offset=".5" stop-color="#cbcbd5" stop-opacity=".75"/><stop offset=".62" stop-color="#e2e2e8" stop-opacity=".86"/><stop offset=".75" stop-color="#f2f2f5" stop-opacity=".94"/><stop offset=".87" stop-color="#fcfcfc" stop-opacity=".98"/><stop offset="1" stop-color="#fff"/></linearGradient><linearGradient id="AV" x1="475.222" y1="254.638" x2="377.306" y2="375.218" xlink:href="#Aa"><stop stop-color="#2f3058" stop-opacity=".01"/><stop offset=".12" stop-color="#5f607e" stop-opacity=".24"/><stop offset=".25" stop-color="#8a8aa1" stop-opacity=".44"/><stop offset=".37" stop-color="#aeaebe" stop-opacity=".61"/><stop offset=".5" stop-color="#cbcbd5" stop-opacity=".75"/><stop offset=".62" stop-color="#e2e2e8" stop-opacity=".86"/><stop offset=".75" stop-color="#f2f2f5" stop-opacity=".94"/><stop offset=".87" stop-color="#fcfcfc" stop-opacity=".98"/><stop offset="1" stop-color="#fff"/></linearGradient><path id="AW" d="M274.223 407.625l73.371-44.679c5.007-3.06 5.457-7.511.993-9.948L154.159 246.763c-4.464-2.437-12.133-1.934-17.153 1.113l-73.384 44.693 210.601 115.056z"/><path id="AX" d="M80.282 222.521c17.319-17.319 17.319-45.399 0-62.718s-45.399-17.319-62.718 0-17.319 45.399 0 62.718 45.399 17.319 62.718 0z"/><path id="AY" d="M259.533 160.114c12.988-10.914 14.67-30.29 3.756-43.279s-30.291-14.67-43.279-3.756-14.67 30.291-3.756 43.279 30.29 14.67 43.279 3.756z"/><path id="AZ" d="M446.187 335.17c15.024-7.879 20.818-26.445 12.94-41.47s-26.445-20.819-41.47-12.94-20.818 26.444-12.94 41.469 26.445 20.819 41.47 12.941z"/><linearGradient id="Aa" gradientUnits="userSpaceOnUse"/></defs></svg>