<svg width="80" height="80" viewBox="0 0 80 80" fill="none" xmlns="http://www.w3.org/2000/svg">
<path d="M58.5863 67.6743H21.6352C21.5218 67.6734 21.4111 67.6396 21.3166 67.5769C15.1962 63.5361 10.5411 57.6302 8.04182 50.7352C5.54249 43.8401 5.33201 36.3231 7.4416 29.299C9.55118 22.275 13.8685 16.1178 19.7532 11.7408C25.6379 7.36379 32.7767 5 40.1107 5C47.4448 5 54.5835 7.36379 60.4683 11.7408C66.353 16.1178 70.6703 22.275 72.7799 29.299C74.8895 36.3231 74.679 43.8401 72.1796 50.7352C69.6803 57.6302 65.0252 63.5361 58.9048 67.5769C58.8108 67.6406 58.6998 67.6745 58.5863 67.6743ZM21.8122 66.524H58.4182C64.2996 62.5968 68.762 56.8821 71.1462 50.224C73.5303 43.5659 73.7097 36.3175 71.6579 29.5496C69.606 22.7817 65.4318 16.8533 59.7518 12.64C54.0718 8.4267 47.1872 6.15204 40.1151 6.15204C33.0431 6.15204 26.1585 8.4267 20.4785 12.64C14.7985 16.8533 10.6243 22.7817 8.57244 29.5496C6.52062 36.3175 6.70002 43.5659 9.08414 50.224C11.4683 56.8821 15.9307 62.5968 21.8122 66.524Z" fill="#5976C6"/>
<path d="M60.754 62.064H19.476C19.3235 62.064 19.1772 62.0034 19.0693 61.8956C18.9615 61.7877 18.9009 61.6414 18.9009 61.4889V46.3138C18.9016 46.1992 18.9365 46.0875 19.0011 45.9929C19.0658 45.8983 19.1572 45.8252 19.2637 45.7829L33.4212 40.1995C33.5241 40.1594 33.6364 40.1497 33.7447 40.1716C33.8529 40.1936 33.9526 40.2463 34.0317 40.3234L39.8628 45.9333L46.1364 40.3057C46.2189 40.2375 46.3178 40.1919 46.4232 40.1733C46.5287 40.1546 46.6371 40.1637 46.7381 40.1995L60.8956 45.7829C61.0027 45.8242 61.0948 45.8971 61.1596 45.9919C61.2244 46.0867 61.2588 46.199 61.2584 46.3138V61.4889C61.2594 61.6299 61.2086 61.7664 61.1157 61.8725C61.0227 61.9785 60.894 62.0467 60.754 62.064ZM20.0512 60.9137H60.1788V46.712L46.6761 41.4029L40.261 47.1456C40.1549 47.2432 40.0159 47.2974 39.8717 47.2974C39.7275 47.2974 39.5885 47.2432 39.4823 47.1456L33.5362 41.4206L20.0512 46.7297V60.9137Z" fill="#5976C6"/>
<path d="M53.7904 62.0374H26.4399C26.2874 62.0374 26.1411 61.9768 26.0332 61.869C25.9253 61.7611 25.8647 61.6148 25.8647 61.4623V51.9414C25.8647 51.7888 25.9253 51.6425 26.0332 51.5347C26.1411 51.4268 26.2874 51.3662 26.4399 51.3662C26.5924 51.3662 26.7387 51.4268 26.8466 51.5347C26.9544 51.6425 27.015 51.7888 27.015 51.9414V60.8871H53.2153V51.9414C53.2153 51.7888 53.2759 51.6425 53.3837 51.5347C53.4916 51.4268 53.6379 51.3662 53.7904 51.3662C53.943 51.3662 54.0893 51.4268 54.1971 51.5347C54.305 51.6425 54.3656 51.7888 54.3656 51.9414V61.4623C54.3656 61.6148 54.305 61.7611 54.1971 61.869C54.0893 61.9768 53.943 62.0374 53.7904 62.0374Z" fill="#5976C6"/>
<path d="M46.9417 48.579H33.2885C33.136 48.579 32.9897 48.5185 32.8818 48.4106C32.774 48.3027 32.7134 48.1564 32.7134 48.0039V40.7216C32.7134 40.5691 32.774 40.4228 32.8818 40.3149C32.9897 40.2071 33.136 40.1465 33.2885 40.1465C33.4411 40.1465 33.5874 40.2071 33.6952 40.3149C33.8031 40.4228 33.8637 40.5691 33.8637 40.7216V47.4288H46.3665V40.7216C46.3665 40.5691 46.4271 40.4228 46.535 40.3149C46.6428 40.2071 46.7891 40.1465 46.9417 40.1465C47.0942 40.1465 47.2405 40.2071 47.3484 40.3149C47.4562 40.4228 47.5168 40.5691 47.5168 40.7216V48.0039C47.5145 48.1557 47.4532 48.3007 47.3458 48.4081C47.2385 48.5154 47.0935 48.5768 46.9417 48.579Z" fill="#5976C6"/>
<path d="M42.1632 53.357H38.0576C37.905 53.357 37.7587 53.2965 37.6509 53.1886C37.543 53.0807 37.4824 52.9344 37.4824 52.7819V48.0214C37.4824 47.8689 37.543 47.7226 37.6509 47.6147C37.7587 47.5069 37.905 47.4463 38.0576 47.4463H42.1632C42.2388 47.4463 42.3136 47.4612 42.3833 47.4901C42.4531 47.519 42.5165 47.5613 42.5699 47.6147C42.6233 47.6681 42.6657 47.7315 42.6946 47.8013C42.7235 47.8711 42.7384 47.9459 42.7384 48.0214V52.7819C42.7384 52.9344 42.6778 53.0807 42.5699 53.1886C42.4621 53.2965 42.3158 53.357 42.1632 53.357ZM38.6239 52.2068H41.5793V48.5789H38.6239V52.2068Z" fill="#5976C6"/>
<path d="M43.8355 62.0642H35.9693C35.882 62.0653 35.7957 62.0458 35.7173 62.0074C35.6389 61.9689 35.5706 61.9126 35.518 61.843C35.4644 61.7753 35.4269 61.6963 35.4085 61.612C35.3901 61.5276 35.3912 61.4402 35.4118 61.3564L37.5 52.6406C37.5301 52.5159 37.6016 52.4051 37.7029 52.3263C37.8042 52.2476 37.9292 52.2055 38.0575 52.2071H42.1632C42.2962 52.2064 42.4254 52.2519 42.5286 52.3358C42.6319 52.4197 42.7029 52.5368 42.7295 52.6672L44.4018 61.374C44.4192 61.4579 44.4171 61.5446 44.3956 61.6274C44.3742 61.7103 44.3339 61.7871 44.2779 61.8519C44.2248 61.9182 44.1575 61.9717 44.0809 62.0085C44.0044 62.0452 43.9205 62.0643 43.8355 62.0642ZM36.6948 60.9139H43.1453L41.6854 53.3574H38.5176L36.6948 60.9139Z" fill="#5976C6"/>
<path d="M40.2961 37.7759C38.1597 37.7759 36.0712 37.1424 34.2947 35.9557C32.5182 34.7689 31.1334 33.0821 30.3154 31.1085C29.4975 29.1348 29.283 26.9629 29.6991 24.8674C30.1153 22.7719 31.1434 20.8468 32.6535 19.3355C34.1635 17.8242 36.0878 16.7945 38.183 16.3766C40.2781 15.9588 42.4502 16.1715 44.4245 16.9878C46.3988 17.8042 48.0868 19.1876 49.275 20.9631C50.4632 22.7387 51.0983 24.8266 51.1001 26.9631C51.0977 29.8286 49.959 32.5761 47.9336 34.6032C45.9083 36.6302 43.1616 37.7712 40.2961 37.7759ZM40.2961 17.3183C38.3864 17.3183 36.5197 17.8847 34.9319 18.9458C33.3442 20.007 32.1069 21.5152 31.3765 23.2797C30.6461 25.0441 30.4554 26.9856 30.8286 28.8585C31.2018 30.7314 32.1221 32.4515 33.4731 33.8012C34.8241 35.1509 36.545 36.0697 38.4182 36.4411C40.2914 36.8126 42.2327 36.6202 43.9966 35.8882C45.7604 35.1562 47.2675 33.9175 48.3271 32.3288C49.3868 30.7401 49.9515 28.8728 49.9498 26.9631C49.9451 24.405 48.9262 21.9532 47.1166 20.1452C45.3069 18.3372 42.8542 17.3206 40.2961 17.3183Z" fill="#5976C6"/>
<path d="M48.03 25.1929C45.4934 25.2397 43.0099 24.4636 40.9512 22.9808C40.8905 22.9356 40.8394 22.8787 40.8011 22.8134C40.7628 22.7481 40.7379 22.6757 40.728 22.6007C40.7181 22.5256 40.7234 22.4493 40.7435 22.3763C40.7636 22.3033 40.7981 22.235 40.8451 22.1756C40.9379 22.055 41.0748 21.976 41.2257 21.9561C41.3766 21.9362 41.5293 21.977 41.6502 22.0694C42.8659 22.9068 44.2357 23.4944 45.6802 23.7982C47.1247 24.102 48.6152 24.1159 50.0651 23.8391C50.215 23.8158 50.368 23.8517 50.4919 23.9393C50.6157 24.0268 50.7007 24.1591 50.7288 24.3081C50.7544 24.4583 50.7195 24.6125 50.6315 24.7369C50.5436 24.8613 50.4099 24.9458 50.2598 24.9717C49.5244 25.1101 48.7783 25.1841 48.03 25.1929Z" fill="#5976C6"/>
<path d="M34.9078 24.9978C33.3737 25.0065 31.8506 24.7367 30.4128 24.2015C30.2709 24.146 30.1562 24.0371 30.0934 23.8983C30.0306 23.7594 30.0246 23.6014 30.0766 23.4582C30.1031 23.3872 30.1434 23.3221 30.1952 23.2667C30.247 23.2113 30.3092 23.1667 30.3783 23.1355C30.4474 23.1042 30.5219 23.087 30.5977 23.0846C30.6735 23.0823 30.749 23.095 30.8199 23.122C32.1268 23.6115 33.5123 23.8574 34.9078 23.8475C39.6329 23.8475 43.4731 21.193 43.4731 17.8925C43.4731 17.74 43.5337 17.5937 43.6416 17.4858C43.7494 17.378 43.8957 17.3174 44.0483 17.3174C44.2008 17.3174 44.3471 17.378 44.455 17.4858C44.5628 17.5937 44.6234 17.74 44.6234 17.8925C44.6234 21.8124 40.2611 24.9978 34.9078 24.9978Z" fill="#5976C6"/>
<path d="M70.6732 71.5849H9.55708C9.40454 71.5849 9.25825 71.5243 9.15039 71.4164C9.04253 71.3085 8.98193 71.1623 8.98193 71.0097C8.98193 70.8572 9.04253 70.7109 9.15039 70.603C9.25825 70.4952 9.40454 70.4346 9.55708 70.4346H70.6732C70.8258 70.4346 70.9721 70.4952 71.0799 70.603C71.1878 70.7109 71.2484 70.8572 71.2484 71.0097C71.2484 71.1623 71.1878 71.3085 71.0799 71.4164C70.9721 71.5243 70.8258 71.5849 70.6732 71.5849Z" fill="#5976C6"/>
<path d="M70.6732 75.0009H9.55708C9.40454 75.0009 9.25825 74.9403 9.15039 74.8324C9.04253 74.7246 8.98193 74.5783 8.98193 74.4257C8.98193 74.2732 9.04253 74.1269 9.15039 74.019C9.25825 73.9112 9.40454 73.8506 9.55708 73.8506H70.6732C70.8258 73.8506 70.9721 73.9112 71.0799 74.019C71.1878 74.1269 71.2484 74.2732 71.2484 74.4257C71.2484 74.5783 71.1878 74.7246 71.0799 74.8324C70.9721 74.9403 70.8258 75.0009 70.6732 75.0009Z" fill="#5976C6"/>
</svg>
