<svg width="30" height="31" viewBox="0 0 30 31" fill="none" xmlns="http://www.w3.org/2000/svg">
<g id="ph:phone-light">
<path id="Vector" d="M25.9676 19.1915L20.4317 16.7107C20.1808 16.6032 19.9072 16.56 19.6354 16.585C19.3637 16.6099 19.1025 16.7023 18.8754 16.8536C18.8524 16.8684 18.8304 16.8849 18.8098 16.9029L15.9164 19.3638C15.8864 19.3802 15.853 19.3893 15.8188 19.3905C15.7846 19.3918 15.7507 19.385 15.7195 19.3708C13.8598 18.4732 11.9332 16.5583 11.032 14.7243C11.017 14.6937 11.0092 14.66 11.0092 14.6259C11.0092 14.5918 11.017 14.5581 11.032 14.5275L13.5012 11.5978C13.5189 11.5761 13.5353 11.5534 13.5504 11.5298C13.6997 11.3019 13.7899 11.0404 13.8128 10.7689C13.8357 10.4974 13.7906 10.2245 13.6817 9.97474L11.2184 4.44818C11.0785 4.12194 10.8366 3.84987 10.5289 3.6728C10.2213 3.49573 9.86448 3.42322 9.51212 3.46614C7.98075 3.66747 6.57507 4.41951 5.55777 5.58173C4.54048 6.74395 3.98118 8.23683 3.98439 9.78138C3.98439 18.9572 11.4492 26.422 20.625 26.422C22.1695 26.425 23.6622 25.8656 24.8244 24.8483C25.9866 23.8311 26.7387 22.4255 26.9402 20.8943C26.9831 20.5436 26.9116 20.1884 26.7363 19.8816C26.5611 19.5748 26.2915 19.3328 25.9676 19.1915ZM20.625 25.0158C12.225 25.0158 5.39064 18.1814 5.39064 9.78138C5.38672 8.57895 5.82072 7.41623 6.61155 6.51045C7.40238 5.60468 8.49594 5.01781 9.6879 4.8595H9.71486C9.76208 4.86038 9.80794 4.87551 9.84642 4.90291C9.88489 4.9303 9.9142 4.96868 9.93048 5.01302L12.4031 10.5337C12.4172 10.5644 12.4245 10.5978 12.4245 10.6316C12.4245 10.6654 12.4172 10.6987 12.4031 10.7294L9.92931 13.6661C9.91086 13.6871 9.89401 13.7094 9.87892 13.7329C9.72412 13.9693 9.63297 14.2415 9.61428 14.5234C9.5956 14.8053 9.65002 15.0872 9.77228 15.3419C10.8117 17.47 12.9563 19.5982 15.1078 20.6376C15.364 20.7592 15.6473 20.8123 15.9301 20.7918C16.2129 20.7712 16.4856 20.6778 16.7215 20.5204C16.7438 20.5052 16.766 20.4888 16.7871 20.4712L19.6793 18.0103C19.7079 17.9949 19.7394 17.9859 19.7718 17.9839C19.8041 17.9819 19.8366 17.9869 19.8668 17.9986L25.4039 20.4794C25.4492 20.4987 25.4872 20.5317 25.5126 20.5737C25.5381 20.6158 25.5496 20.6648 25.5457 20.7138C25.3882 21.9063 24.8019 23.0007 23.8963 23.7924C22.9908 24.5841 21.8279 25.019 20.625 25.0158Z" fill="#343843"/>
</g>
</svg>
