<svg width="80" height="80" viewBox="0 0 80 80" fill="none" xmlns="http://www.w3.org/2000/svg">
<path d="M56.23 36.9403H23.37C23.2837 36.9377 23.1988 36.918 23.1203 36.8823C23.0417 36.8466 22.9711 36.7957 22.9124 36.7324C22.8538 36.6691 22.8083 36.5947 22.7787 36.5137C22.7491 36.4326 22.7359 36.3465 22.74 36.2603V24.2603C22.7388 24.1291 22.7773 24.0007 22.8505 23.8918C22.9236 23.7829 23.0281 23.6987 23.15 23.6503L34.44 19.2203C34.5558 19.176 34.6815 19.1647 34.8033 19.1877C34.9252 19.2106 35.0382 19.2669 35.13 19.3503L39.64 23.7003L44.51 19.3403C44.599 19.2593 44.7092 19.2051 44.8277 19.1838C44.9462 19.1626 45.0683 19.1753 45.18 19.2203L56.48 23.6503C56.6029 23.6983 56.7087 23.7821 56.7836 23.8909C56.8585 23.9996 56.899 24.1283 56.9 24.2603V36.2603C56.9042 36.3499 56.8898 36.4393 56.8577 36.5231C56.8256 36.6068 56.7766 36.683 56.7137 36.7468C56.6508 36.8107 56.5753 36.8609 56.4921 36.8942C56.4088 36.9275 56.3196 36.9432 56.23 36.9403ZM24.02 35.6403H55.58V24.6403L45.06 20.5103L40.06 25.0103C39.94 25.1206 39.783 25.1819 39.62 25.1819C39.457 25.1819 39.2999 25.1206 39.18 25.0103L34.53 20.5403L24.04 24.6603L24.02 35.6403Z" fill="#63C689"/>
<path d="M50.74 36.92H28.9C28.7276 36.92 28.5623 36.8516 28.4404 36.7297C28.3185 36.6078 28.25 36.4424 28.25 36.27V28.69C28.25 28.5176 28.3185 28.3523 28.4404 28.2304C28.5623 28.1085 28.7276 28.04 28.9 28.04C29.0724 28.04 29.2377 28.1085 29.3596 28.2304C29.4815 28.3523 29.55 28.5176 29.55 28.69V35.62H50.04V28.69C50.04 28.5176 50.1085 28.3523 50.2304 28.2304C50.3523 28.1085 50.5176 28.04 50.69 28.04C50.8624 28.04 51.0277 28.1085 51.1496 28.2304C51.2715 28.3523 51.34 28.5176 51.34 28.69V36.26C51.343 36.4258 51.2826 36.5865 51.1711 36.7092C51.0595 36.8319 50.9053 36.9073 50.74 36.92Z" fill="#63C689"/>
<path d="M45.2299 26.2602H34.36C34.1876 26.2602 34.0222 26.1917 33.9003 26.0698C33.7784 25.9479 33.71 25.7826 33.71 25.6102V19.8102C33.71 19.6378 33.7784 19.4724 33.9003 19.3505C34.0222 19.2286 34.1876 19.1602 34.36 19.1602C34.5323 19.1602 34.6977 19.2286 34.8196 19.3505C34.9415 19.4724 35.0099 19.6378 35.0099 19.8102V24.9602H44.58V19.8102C44.58 19.6378 44.6485 19.4724 44.7704 19.3505C44.8923 19.2286 45.0576 19.1602 45.2299 19.1602C45.4023 19.1602 45.5677 19.2286 45.6896 19.3505C45.8115 19.4724 45.88 19.6378 45.88 19.8102V25.6102C45.88 25.7826 45.8115 25.9479 45.6896 26.0698C45.5677 26.1917 45.4023 26.2602 45.2299 26.2602Z" fill="#63C689"/>
<path d="M41.4298 29.9999H38.1598C37.9874 29.9999 37.8221 29.9314 37.7002 29.8095C37.5783 29.6876 37.5098 29.5223 37.5098 29.3499V25.5699C37.5098 25.3975 37.5783 25.2322 37.7002 25.1103C37.8221 24.9884 37.9874 24.9199 38.1598 24.9199H41.4298C41.6022 24.9199 41.7675 24.9884 41.8894 25.1103C42.0113 25.2322 42.0798 25.3975 42.0798 25.5699V29.3499C42.0798 29.5223 42.0113 29.6876 41.8894 29.8095C41.7675 29.9314 41.6022 29.9999 41.4298 29.9999ZM38.8098 28.6999H40.8098V26.2599H38.8098V28.6999Z" fill="#63C689"/>
<path d="M42.7401 36.9402H36.4702C36.3727 36.9403 36.2764 36.9189 36.1882 36.8774C36.1001 36.8359 36.0222 36.7754 35.9601 36.7002C35.8973 36.623 35.8537 36.532 35.8328 36.4346C35.812 36.3373 35.8145 36.2364 35.8402 36.1402L37.5101 29.2002C37.5438 29.0582 37.6243 28.9317 37.7385 28.8411C37.8528 28.7504 37.9943 28.7007 38.1401 28.7002H41.4102C41.5619 28.6999 41.709 28.7528 41.8259 28.8496C41.9428 28.9464 42.0221 29.081 42.0501 29.2302L43.3802 36.1702C43.3997 36.2642 43.3982 36.3614 43.3757 36.4548C43.3533 36.5481 43.3104 36.6354 43.2502 36.7102C43.1872 36.7835 43.1089 36.8422 43.0207 36.8819C42.9326 36.9217 42.8368 36.9415 42.7401 36.9402ZM37.2901 35.6402H41.9601L40.8702 30.0002H38.6602L37.2901 35.6402Z" fill="#63C689"/>
<path d="M39.9397 17.6C38.1992 17.6 36.4978 17.0839 35.0506 16.1169C33.6035 15.15 32.4756 13.7756 31.8095 12.1676C31.1435 10.5596 30.9692 8.79025 31.3087 7.08322C31.6483 5.37618 32.4864 3.80816 33.7171 2.57746C34.9478 1.34676 36.5158 0.508641 38.2229 0.169092C39.9299 -0.170458 41.6993 0.00381857 43.3073 0.66987C44.9153 1.33592 46.2896 2.46384 47.2566 3.91099C48.2235 5.35814 48.7397 7.05952 48.7397 8.8C48.7397 11.1339 47.8125 13.3722 46.1622 15.0225C44.5119 16.6729 42.2736 17.6 39.9397 17.6ZM39.9397 1.31001C38.4559 1.31001 37.0054 1.75013 35.7718 2.57469C34.5383 3.39924 33.577 4.57117 33.0096 5.94219C32.4422 7.31322 32.2943 8.82173 32.5845 10.2769C32.8747 11.732 33.59 13.0684 34.6399 14.1168C35.6898 15.1653 37.0271 15.8788 38.4826 16.1671C39.9381 16.4554 41.4464 16.3054 42.8167 15.7362C44.187 15.167 45.3576 14.2042 46.1805 12.9695C47.0034 11.7348 47.4416 10.2838 47.4397 8.8C47.437 6.81261 46.6456 4.90753 45.2394 3.50317C43.8332 2.09881 41.9271 1.31 39.9397 1.31001Z" fill="#63C689"/>
<path d="M46.1198 7.59039C44.0596 7.63393 42.0424 6.99785 40.3798 5.78039C40.2967 5.73477 40.2245 5.67151 40.1684 5.59505C40.1123 5.5186 40.0736 5.43081 40.0551 5.33782C40.0365 5.24483 40.0385 5.1489 40.0609 5.05677C40.0834 4.96464 40.1257 4.87853 40.1849 4.80448C40.2442 4.73044 40.3189 4.67026 40.4039 4.62815C40.4888 4.58604 40.5819 4.56303 40.6767 4.56074C40.7715 4.55844 40.8657 4.5769 40.9526 4.61485C41.0395 4.65279 41.117 4.7093 41.1798 4.78039C42.1249 5.43494 43.1904 5.89568 44.3146 6.13598C45.4389 6.37628 46.5997 6.39137 47.7298 6.18038C47.8959 6.15922 48.0638 6.20302 48.1985 6.30264C48.3331 6.40225 48.4242 6.54999 48.4525 6.71507C48.4809 6.88014 48.4444 7.04979 48.3508 7.18865C48.2571 7.32751 48.1135 7.42485 47.9498 7.46038C47.345 7.55903 46.7325 7.60255 46.1198 7.59039Z" fill="#63C689"/>
<path d="M35.6497 7.42946C34.4035 7.43781 33.1664 7.2175 31.9997 6.77946C31.8394 6.71693 31.7104 6.59339 31.6411 6.43593C31.5717 6.27847 31.5676 6.09993 31.6297 5.93945C31.6595 5.85925 31.7052 5.78585 31.7639 5.72359C31.8226 5.66133 31.8932 5.61148 31.9715 5.57698C32.0498 5.54248 32.1343 5.52404 32.2198 5.52275C32.3054 5.52146 32.3904 5.53734 32.4697 5.56946C33.4866 5.94867 34.5644 6.13847 35.6497 6.12946C39.2997 6.12946 42.2697 4.12946 42.2697 1.58946C42.2697 1.41707 42.3382 1.25174 42.4601 1.12984C42.5819 1.00794 42.7473 0.939453 42.9197 0.939453C43.0921 0.939453 43.2574 1.00794 43.3793 1.12984C43.5012 1.25174 43.5697 1.41707 43.5697 1.58946C43.5697 4.80946 40.0197 7.42946 35.6497 7.42946Z" fill="#63C689"/>
<path d="M70.94 79.12C70.7676 79.12 70.6023 79.0515 70.4804 78.9296C70.3585 78.8077 70.29 78.6424 70.29 78.47V75.47C70.2873 74.3287 69.8321 73.235 69.0241 72.4289C68.2161 71.6227 67.1213 71.17 65.98 71.17H58.82C57.6786 71.17 56.5839 71.6227 55.7759 72.4289C54.9679 73.235 54.5126 74.3287 54.51 75.47V78.47C54.51 78.6424 54.4415 78.8077 54.3196 78.9296C54.1977 79.0515 54.0324 79.12 53.86 79.12C53.6876 79.12 53.5223 79.0515 53.4004 78.9296C53.2785 78.8077 53.21 78.6424 53.21 78.47V75.47C53.2127 73.9839 53.8049 72.5595 54.8567 71.5096C55.9085 70.4597 57.3339 69.87 58.82 69.87H65.98C67.4661 69.87 68.8916 70.4597 69.9433 71.5096C70.9951 72.5595 71.5874 73.9839 71.59 75.47V78.47C71.59 78.5554 71.5732 78.6399 71.5405 78.7188C71.5078 78.7976 71.46 78.8693 71.3996 78.9296C71.3393 78.99 71.2676 79.0379 71.1887 79.0705C71.1099 79.1032 71.0254 79.12 70.94 79.12ZM47.46 79.12C47.2876 79.12 47.1223 79.0515 47.0004 78.9296C46.8785 78.8077 46.81 78.6424 46.81 78.47V75.47C46.8074 74.3304 46.3535 73.2382 45.5477 72.4324C44.7418 71.6266 43.6496 71.1727 42.51 71.17H35.35C34.2086 71.17 33.1139 71.6227 32.3059 72.4289C31.4979 73.235 31.0426 74.3287 31.04 75.47V78.47C31.04 78.6424 30.9715 78.8077 30.8496 78.9296C30.7277 79.0515 30.5624 79.12 30.39 79.12C30.2176 79.12 30.0523 79.0515 29.9304 78.9296C29.8085 78.8077 29.74 78.6424 29.74 78.47V75.47C29.7427 73.9839 30.3349 72.5595 31.3867 71.5096C32.4385 70.4597 33.8639 69.87 35.35 69.87H42.51C43.9952 69.87 45.4196 70.46 46.4698 71.5102C47.52 72.5604 48.11 73.9848 48.11 75.47V78.47C48.11 78.6424 48.0415 78.8077 47.9196 78.9296C47.7977 79.0515 47.6324 79.12 47.46 79.12ZM25.73 79.12C25.5576 79.12 25.3923 79.0515 25.2704 78.9296C25.1485 78.8077 25.08 78.6424 25.08 78.47V75.47C25.0774 74.3287 24.6221 73.235 23.8141 72.4289C23.0061 71.6227 21.9114 71.17 20.77 71.17H13.61C12.4686 71.17 11.3739 71.6227 10.5659 72.4289C9.75791 73.235 9.30265 74.3287 9.3 75.47V78.47C9.3 78.6424 9.23152 78.8077 9.10962 78.9296C8.98772 79.0515 8.8224 79.12 8.65001 79.12C8.47762 79.12 8.31228 79.0515 8.19038 78.9296C8.06849 78.8077 8 78.6424 8 78.47V75.47C8.00265 73.9839 8.59488 72.5595 9.64667 71.5096C10.6985 70.4597 12.1239 69.87 13.61 69.87H20.74C22.2261 69.87 23.6515 70.4597 24.7033 71.5096C25.7551 72.5595 26.3473 73.9839 26.35 75.47V78.47C26.3503 78.6357 26.2873 78.7953 26.174 78.9161C26.0606 79.0369 25.9054 79.1098 25.74 79.12H25.73ZM62.28 68.95C61.2322 68.95 60.2079 68.6394 59.3365 68.0575C58.4652 67.4756 57.7859 66.6484 57.3844 65.6806C56.983 64.7127 56.8774 63.6476 57.0811 62.6197C57.2848 61.5919 57.7886 60.6475 58.5288 59.9059C59.269 59.1643 60.2125 58.6587 61.2399 58.4531C62.2674 58.2475 63.3327 58.351 64.3013 58.7506C65.2699 59.1502 66.0984 59.828 66.6819 60.6982C67.2655 61.5685 67.578 62.5922 67.58 63.64C67.58 65.0466 67.0219 66.3957 66.0283 67.3912C65.0346 68.3868 63.6866 68.9474 62.28 68.95ZM58.28 63.95C58.3251 65.0109 58.7898 66.0104 59.5718 66.7287C60.3538 67.4469 61.3891 67.8251 62.45 67.78C63.5109 67.7349 64.5104 67.2703 65.2287 66.4883C65.9469 65.7062 66.3251 64.6709 66.28 63.61C66.28 63.46 66.28 63.31 66.28 63.16C65.1346 63.2574 63.9881 62.984 63.01 62.38C62.4096 63.0091 61.6657 63.4834 60.8419 63.762C60.0181 64.0407 59.139 64.1155 58.28 63.98V63.95ZM58.39 62.64C58.64 62.6924 58.8946 62.7192 59.15 62.72C59.7735 62.7204 60.3885 62.575 60.9458 62.2955C61.5032 62.016 61.9874 61.61 62.36 61.11C62.4137 61.0415 62.4804 60.9843 62.5562 60.9416C62.6321 60.899 62.7157 60.8717 62.8021 60.8615C62.8885 60.8513 62.9762 60.8583 63.0599 60.882C63.1436 60.9058 63.2218 60.9459 63.29 61C64.0294 61.5841 64.9478 61.895 65.89 61.88C65.5364 61.1334 64.9602 60.5146 64.2407 60.1086C63.5212 59.7026 62.6937 59.5294 61.8717 59.6127C61.0498 59.6959 60.2738 60.0317 59.6504 60.5738C59.027 61.1158 58.5867 61.8376 58.39 62.64ZM38.8 68.92C37.7526 68.9181 36.7293 68.6058 35.8593 68.0226C34.9892 67.4395 34.3114 66.6117 33.9115 65.6436C33.5116 64.6756 33.4075 63.6108 33.6124 62.5836C33.8172 61.5564 34.3217 60.613 35.0624 59.8724C35.803 59.1318 36.7464 58.6272 37.7736 58.4224C38.8007 58.2175 39.8656 58.3217 40.8336 58.7216C41.8016 59.1215 42.6295 59.7992 43.2126 60.6693C43.7958 61.5393 44.108 62.5626 44.11 63.61C44.114 64.3099 43.9795 65.0036 43.7145 65.6513C43.4494 66.299 43.0589 66.8879 42.5654 67.3842C42.0719 67.8804 41.4852 68.2742 40.839 68.543C40.1928 68.8117 39.4999 68.95 38.8 68.95V68.92ZM34.8 63.92C34.8451 64.9809 35.3098 65.9804 36.0918 66.6987C36.8738 67.4169 37.9092 67.7951 38.97 67.75C40.0309 67.7049 41.0304 67.2403 41.7486 66.4582C42.4669 65.6762 42.8451 64.6409 42.8 63.58C42.81 63.4302 42.81 63.2799 42.8 63.13C41.6548 63.2246 40.5093 62.9513 39.53 62.35C38.9311 62.9796 38.1898 63.4561 37.3685 63.7398C36.5472 64.0234 35.6698 64.1058 34.81 63.98L34.8 63.92ZM34.9 62.61C35.1534 62.6624 35.4113 62.6892 35.67 62.69C36.2918 62.6889 36.9048 62.5427 37.4603 62.2633C38.0158 61.9838 38.4985 61.5787 38.87 61.08C38.9225 61.0106 38.9886 60.9527 39.0643 60.9097C39.1399 60.8667 39.2235 60.8396 39.31 60.83C39.3969 60.8197 39.485 60.8268 39.5691 60.8508C39.6532 60.8749 39.7317 60.9154 39.8 60.97C40.5357 61.5609 41.4567 61.8725 42.4 61.85C42.0464 61.1034 41.4702 60.4846 40.7507 60.0786C40.0312 59.6726 39.2037 59.4994 38.3817 59.5827C37.5598 59.666 36.7838 60.0017 36.1604 60.5438C35.537 61.0858 35.0967 61.8076 34.9 62.61ZM17.05 68.89C16.0026 68.8881 14.9793 68.5758 14.1093 67.9927C13.2392 67.4095 12.5614 66.5817 12.1615 65.6136C11.7616 64.6456 11.6575 63.5808 11.8623 62.5536C12.0672 61.5264 12.5717 60.583 13.3123 59.8424C14.053 59.1018 14.9964 58.5972 16.0236 58.3924C17.0507 58.1875 18.1156 58.2917 19.0836 58.6916C20.0517 59.0915 20.8795 59.7692 21.4626 60.6393C22.0458 61.5093 22.358 62.5327 22.36 63.58C22.3679 64.2815 22.2368 64.9777 21.9741 65.6282C21.7114 66.2787 21.3224 66.8707 20.8296 67.3701C20.3368 67.8694 19.75 68.2661 19.1029 68.5373C18.4559 68.8085 17.7616 68.9488 17.06 68.95L17.05 68.89ZM13.05 63.89C13.0951 64.9509 13.5598 65.9504 14.3418 66.6687C15.1238 67.3869 16.1591 67.7651 17.22 67.72C18.2809 67.6749 19.2804 67.2103 19.9986 66.4282C20.7169 65.6462 21.0951 64.6109 21.05 63.55C21.05 63.4 21.05 63.25 21.05 63.1C19.9044 63.1996 18.7573 62.926 17.78 62.32C17.2862 62.8415 16.6906 63.2561 16.0301 63.5382C15.3696 63.8203 14.6582 63.9639 13.94 63.96C13.6508 63.9865 13.3601 63.9932 13.07 63.98L13.05 63.89ZM13.16 62.58C13.41 62.6319 13.6646 62.6587 13.92 62.66C14.5418 62.6589 15.1548 62.5127 15.7103 62.2333C16.2658 61.9538 16.7485 61.5486 17.12 61.05C17.1733 60.9815 17.2396 60.9241 17.3151 60.8812C17.3906 60.8383 17.4738 60.8107 17.56 60.8C17.647 60.7866 17.7358 60.7922 17.8203 60.8164C17.9049 60.8406 17.9833 60.8827 18.05 60.94C18.7886 61.5256 19.7076 61.8366 20.65 61.82C20.2946 61.077 19.7185 60.4619 19.0004 60.0586C18.2823 59.6552 17.4572 59.4834 16.6378 59.5665C15.8184 59.6497 15.0446 59.9837 14.4222 60.5231C13.7997 61.0624 13.3589 61.7808 13.16 62.58Z" fill="#63C689"/>
<path d="M62.5599 57.1C62.3875 57.1 62.2222 57.0315 62.1003 56.9096C61.9784 56.7877 61.9099 56.6224 61.9099 56.45V47.51L17.6799 47.02V56.26C17.6799 56.4324 17.6114 56.5977 17.4895 56.7196C17.3676 56.8415 17.2023 56.91 17.0299 56.91C16.8575 56.91 16.6922 56.8415 16.5703 56.7196C16.4484 56.5977 16.3799 56.4324 16.3799 56.26V46.36C16.3808 46.1877 16.449 46.0226 16.5699 45.9C16.7026 45.7886 16.8671 45.7221 17.0399 45.71L62.5699 46.22C62.6548 46.22 62.7388 46.2368 62.8171 46.2696C62.8954 46.3024 62.9665 46.3504 63.026 46.4109C63.0856 46.4714 63.1325 46.5432 63.1641 46.622C63.1956 46.7008 63.2112 46.7851 63.2099 46.87V56.45C63.2099 56.5353 63.1931 56.6199 63.1604 56.6987C63.1278 56.7776 63.0799 56.8492 63.0195 56.9096C62.9592 56.9699 62.8875 57.0178 62.8086 57.0505C62.7298 57.0832 62.6452 57.1 62.5599 57.1Z" fill="#63C689"/>
<path d="M39.63 52.0503C39.4576 52.0503 39.2923 51.9819 39.1704 51.86C39.0485 51.7381 38.98 51.5727 38.98 51.4003V36.2603C38.98 36.088 39.0485 35.9226 39.1704 35.8007C39.2923 35.6788 39.4576 35.6104 39.63 35.6104C39.8024 35.6104 39.9677 35.6788 40.0896 35.8007C40.2115 35.9226 40.28 36.088 40.28 36.2603V51.3703C40.2841 51.4582 40.2703 51.546 40.2394 51.6283C40.2086 51.7107 40.1613 51.7859 40.1006 51.8495C40.0398 51.9131 39.9667 51.9636 39.8859 51.9982C39.805 52.0327 39.7179 52.0504 39.63 52.0503Z" fill="#63C689"/>
</svg>
