<svg width="80" height="80" viewBox="0 0 80 80" fill="none" xmlns="http://www.w3.org/2000/svg">
<path d="M73.1599 69.7213H62.5499C62.3775 69.7213 62.2122 69.6528 62.0903 69.5309C61.9684 69.409 61.8999 69.2437 61.8999 69.0713V15.2213C61.8999 15.0489 61.9684 14.8836 62.0903 14.7617C62.2122 14.6398 62.3775 14.5713 62.5499 14.5713H73.1599C73.3314 14.5739 73.4953 14.6432 73.6166 14.7645C73.738 14.8859 73.8073 15.0497 73.8099 15.2213V69.0613C73.8099 69.2347 73.7417 69.401 73.6201 69.5245C73.4985 69.648 73.3332 69.7187 73.1599 69.7213ZM63.1599 68.4213H72.4999V15.8713H63.1999L63.1599 68.4213Z" fill="#E6933B"/>
<path d="M59.01 69.7212H48.4C48.2276 69.7212 48.0623 69.6527 47.9404 69.5308C47.8185 69.4089 47.75 69.2436 47.75 69.0712V21.8912C47.75 21.7188 47.8185 21.5535 47.9404 21.4316C48.0623 21.3097 48.2276 21.2412 48.4 21.2412H59.01C59.1824 21.2412 59.3477 21.3097 59.4696 21.4316C59.5915 21.5535 59.66 21.7188 59.66 21.8912V69.0612C59.6613 69.1474 59.6455 69.233 59.6134 69.313C59.5813 69.393 59.5337 69.4659 59.4732 69.5273C59.4127 69.5887 59.3406 69.6375 59.261 69.6708C59.1815 69.7041 59.0962 69.7212 59.01 69.7212ZM49.01 68.4212H58.32V22.5412H49.01V68.4212Z" fill="#E6933B"/>
<path d="M44.8601 69.7214H34.2501C34.0777 69.7214 33.9124 69.653 33.7905 69.5311C33.6686 69.4092 33.6001 69.2438 33.6001 69.0714V28.3814C33.6001 28.209 33.6686 28.0437 33.7905 27.9218C33.9124 27.7999 34.0777 27.7314 34.2501 27.7314H44.8601C45.0325 27.7314 45.1979 27.7999 45.3198 27.9218C45.4417 28.0437 45.5101 28.209 45.5101 28.3814V69.0615C45.5115 69.1477 45.4956 69.2332 45.4636 69.3132C45.4315 69.3933 45.3838 69.4661 45.3233 69.5275C45.2628 69.5889 45.1907 69.6377 45.1112 69.671C45.0317 69.7043 44.9463 69.7214 44.8601 69.7214ZM34.8601 68.4214H44.1701V29.0314H34.9001L34.8601 68.4214Z" fill="#E6933B"/>
<path d="M30.7102 69.7215H20.1002C19.9286 69.7189 19.7648 69.6496 19.6434 69.5283C19.5221 69.4069 19.4528 69.2431 19.4502 69.0715V37.4215C19.4528 37.2499 19.5221 37.0861 19.6434 36.9647C19.7648 36.8434 19.9286 36.7741 20.1002 36.7715H30.7102C30.8835 36.7715 31.0499 36.8396 31.1734 36.9612C31.2969 37.0829 31.3676 37.2482 31.3702 37.4215V69.0615C31.3702 69.2366 31.3007 69.4044 31.1769 69.5282C31.0531 69.652 30.8852 69.7215 30.7102 69.7215ZM20.7102 68.4215H30.0202V38.0715H20.7102V68.4215Z" fill="#E6933B"/>
<path d="M16.5701 69.7212H5.96005C5.78766 69.7212 5.62233 69.6527 5.50043 69.5308C5.37853 69.4089 5.31006 69.2436 5.31006 69.0712V46.8512C5.31006 46.6788 5.37853 46.5135 5.50043 46.3916C5.62233 46.2697 5.78766 46.2012 5.96005 46.2012H16.5701C16.7425 46.2012 16.9078 46.2697 17.0297 46.3916C17.1516 46.5135 17.2201 46.6788 17.2201 46.8512V69.0612C17.2214 69.1474 17.2056 69.233 17.1735 69.313C17.1414 69.393 17.0938 69.4659 17.0333 69.5273C16.9728 69.5887 16.9007 69.6375 16.8211 69.6708C16.7416 69.7041 16.6563 69.7212 16.5701 69.7212ZM6.57007 68.4212H15.8801V47.5012H6.57007V68.4212Z" fill="#E6933B"/>
<path d="M78.5 73.051H0.649994C0.477603 73.051 0.312267 72.9825 0.190369 72.8606C0.06847 72.7387 0 72.5733 0 72.4009C0 72.2285 0.06847 72.0632 0.190369 71.9413C0.312267 71.8194 0.477603 71.751 0.649994 71.751H78.5C78.6724 71.751 78.8377 71.8194 78.9596 71.9413C79.0815 72.0632 79.15 72.2285 79.15 72.4009C79.15 72.5733 79.0815 72.7387 78.9596 72.8606C78.8377 72.9825 78.6724 73.051 78.5 73.051Z" fill="#E6933B"/>
<path d="M3.79013 38.9612C3.65591 38.9639 3.52432 38.9236 3.41459 38.8463C3.30486 38.7689 3.22271 38.6585 3.18012 38.5312C3.1222 38.3694 3.13071 38.1913 3.2038 38.0357C3.27689 37.8802 3.40861 37.7599 3.57013 37.7012C3.92013 37.5712 38.5701 24.9712 53.8001 7.23121C53.8559 7.16555 53.9241 7.11152 54.0008 7.07222C54.0775 7.03291 54.1612 7.00911 54.2471 7.00215C54.333 6.99518 54.4194 7.00519 54.5014 7.03163C54.5834 7.05806 54.6594 7.10039 54.7251 7.1562C54.7908 7.21201 54.8448 7.28019 54.8841 7.35688C54.9234 7.43358 54.9473 7.51727 54.9542 7.60316C54.9612 7.68906 54.9511 7.77547 54.9247 7.85749C54.8983 7.93952 54.8559 8.01553 54.8001 8.08119C39.3501 26.0812 4.38012 38.8012 4.03012 38.9212C3.95394 38.9517 3.87208 38.9653 3.79013 38.9612Z" fill="#E6933B"/>
<path d="M54.1099 16.1912C53.9383 16.1886 53.7745 16.1193 53.6532 15.998C53.5319 15.8766 53.4625 15.7128 53.46 15.5412V8.5412H46.8199C46.7351 8.54253 46.6508 8.52693 46.572 8.49536C46.4932 8.46379 46.4214 8.41686 46.3609 8.3573C46.3004 8.29774 46.2524 8.22674 46.2196 8.14844C46.1868 8.07013 46.1699 7.98608 46.1699 7.90118C46.1699 7.72786 46.2381 7.56148 46.3597 7.43799C46.4813 7.3145 46.6466 7.24384 46.8199 7.24121H54.0999C54.2746 7.24455 54.442 7.3122 54.5699 7.43121C54.6909 7.55388 54.7591 7.71892 54.7599 7.89117V15.5712C54.7522 15.7383 54.6803 15.8961 54.5593 16.0115C54.4382 16.127 54.2772 16.1913 54.1099 16.1912Z" fill="#E6933B"/>
</svg>
