<svg width="30" height="31" viewBox="0 0 30 31" fill="none" xmlns="http://www.w3.org/2000/svg">
<g id="streamline:programming-web-server-world-internet-earth-www-globe-worldwide-web-network">
<g id="Group">
<path id="Vector" d="M14.8501 26.5059C21.0633 26.5059 26.1001 21.4691 26.1001 15.2559C26.1001 9.04266 21.0633 4.00586 14.8501 4.00586C8.63689 4.00586 3.6001 9.04266 3.6001 15.2559C3.6001 21.4691 8.63689 26.5059 14.8501 26.5059Z" stroke="#343843" stroke-linecap="round" stroke-linejoin="round"/>
<path id="Vector_2" d="M4.3501 12.429H25.3501M25.3501 17.679H4.3501M19.1771 15.2559C18.9646 19.3699 17.4492 23.3097 14.8502 26.5059C12.2511 23.3097 10.7358 19.3699 10.5233 15.2559C10.7358 11.1418 12.2511 7.20199 14.8502 4.00586C17.4492 7.20199 18.9646 11.1418 19.1771 15.2559Z" stroke="#343843" stroke-linecap="round" stroke-linejoin="round"/>
</g>
</g>
</svg>
