<svg width="80" height="80" viewBox="0 0 80 80" fill="none" xmlns="http://www.w3.org/2000/svg">
<path d="M34.0677 48.08C29.8463 48.0783 25.6993 46.9692 22.0406 44.8635C18.382 42.7578 15.3397 39.7292 13.2177 36.08C11.1096 32.4246 9.9999 28.2791 10 24.0594C10.0001 19.8397 11.11 15.6942 13.2182 12.0389C15.3265 8.38367 18.359 5.34716 22.0115 3.23407C25.664 1.12098 29.808 0.00566993 34.0277 0C40.3225 0.128353 46.3163 2.7191 50.7227 7.21631C55.1292 11.7135 57.5972 17.7588 57.5972 24.055C57.5972 30.3512 55.1292 36.3965 50.7227 40.8937C46.3163 45.3909 40.3225 47.9816 34.0277 48.11L34.0677 48.08ZM34.0677 1.26996C30.0797 1.27743 26.1631 2.32895 22.7077 4.31995C17.4831 7.33819 13.6708 12.3075 12.1088 18.1356C10.5468 23.9636 11.3629 30.1734 14.3777 35.4C16.3753 38.858 19.2481 41.7293 22.7072 43.7252C26.1663 45.721 30.0899 46.7711 34.0835 46.77C38.0771 46.7688 42 45.7164 45.458 43.7185C48.9159 41.7206 51.787 38.8477 53.7827 35.3885C55.7783 31.9293 56.8282 28.0057 56.8269 24.0121C56.8255 20.0185 55.7728 16.0956 53.7748 12.6378C51.7767 9.17993 48.9036 6.30901 45.4443 4.31354C41.9849 2.31807 38.0613 1.26835 34.0677 1.26996Z" fill="#D86D94"/>
<path d="M48.3074 54.5506C48.1933 54.5496 48.0814 54.5185 47.9831 54.4606C47.8848 54.4027 47.8035 54.3199 47.7474 54.2205L42.8974 45.8106C42.8487 45.7341 42.8181 45.6475 42.8077 45.5575C42.7973 45.4674 42.8074 45.3761 42.8374 45.2906C42.867 45.2029 42.9142 45.1222 42.9761 45.0534C43.038 44.9847 43.1133 44.9292 43.1974 44.8905C43.8612 44.5916 44.5088 44.2578 45.1374 43.8905C45.7624 43.5243 46.3667 43.1237 46.9474 42.6905C47.0217 42.637 47.106 42.5988 47.1953 42.5782C47.2846 42.5576 47.3771 42.555 47.4674 42.5705C47.5579 42.5896 47.6432 42.6281 47.7175 42.6834C47.7917 42.7386 47.8531 42.8093 47.8974 42.8905L52.7574 51.3006C52.8016 51.3743 52.8306 51.4563 52.8425 51.5415C52.8544 51.6268 52.849 51.7135 52.8266 51.7966C52.8042 51.8797 52.7652 51.9574 52.7121 52.0251C52.659 52.0927 52.5927 52.149 52.5174 52.1905L48.6374 54.4306C48.5402 54.4996 48.4262 54.5411 48.3074 54.5506ZM44.3774 45.7805L48.5474 53.0105L51.3074 51.4206L47.1374 44.2205C46.7174 44.5005 46.2774 44.7905 45.7874 45.0705C45.2974 45.3505 44.8574 45.5505 44.3774 45.7805Z" fill="#D86D94"/>
<path d="M57.9975 79.0796H57.8375C57.6709 79.034 57.5279 78.9268 57.4375 78.7796L44.4375 56.1796C44.3499 56.0285 44.3248 55.849 44.3675 55.6796C44.4126 55.5153 44.5203 55.3753 44.6675 55.2896L55.2675 49.1796C55.3409 49.1369 55.422 49.1092 55.5062 49.0982C55.5904 49.0872 55.6759 49.093 55.7578 49.1153C55.8397 49.1377 55.9163 49.1761 55.9832 49.2283C56.0502 49.2806 56.106 49.3456 56.1475 49.4196L69.1475 72.0096C69.1905 72.0837 69.2183 72.1656 69.2295 72.2505C69.2406 72.3355 69.2349 72.4218 69.2126 72.5045C69.1903 72.5872 69.1519 72.6647 69.0995 72.7325C69.0471 72.8003 68.9819 72.8571 68.9075 72.8996L58.3175 79.0096C58.2189 79.0607 58.1085 79.0849 57.9975 79.0796ZM45.8475 56.0796L58.2375 77.5496L67.7075 72.0896L55.3075 50.6196L45.8475 56.0796Z" fill="#D86D94"/>
<path d="M59.4373 71.9799C58.7112 71.9764 58.0064 71.7341 57.4315 71.2905C56.8566 70.8469 56.4435 70.2266 56.2559 69.5251C56.0683 68.8236 56.1166 68.0799 56.3934 67.4085C56.6701 66.7372 57.1599 66.1755 57.7873 65.8099C58.2884 65.5292 58.853 65.3811 59.4273 65.3799C60.3026 65.3799 61.1419 65.7276 61.7608 66.3464C62.3797 66.9653 62.7273 67.8047 62.7273 68.6799C62.7273 69.5551 62.3797 70.3945 61.7608 71.0134C61.1419 71.6322 60.3026 71.9799 59.4273 71.9799H59.4373ZM59.4373 66.6799C59.0874 66.6807 58.7433 66.7701 58.4373 66.9399C58.209 67.0714 58.0089 67.2467 57.8485 67.4558C57.6882 67.6649 57.5707 67.9036 57.5028 68.1582C57.435 68.4128 57.4181 68.6783 57.4532 68.9395C57.4883 69.2006 57.5747 69.4523 57.7073 69.6799C57.9835 70.1267 58.42 70.4511 58.9274 70.5868C59.4349 70.7225 59.975 70.6592 60.4373 70.4099C60.8176 70.1893 61.1146 69.8496 61.2824 69.4432C61.4502 69.0369 61.4794 68.5866 61.3656 68.162C61.2517 67.7374 61.0012 67.3621 60.6526 67.0942C60.3041 66.8263 59.877 66.6807 59.4373 66.6799Z" fill="#D86D94"/>
<path d="M34.0474 32.6002C31.1265 32.5934 28.2571 31.831 25.718 30.3871C23.179 28.9432 21.0567 26.867 19.5574 24.3602C19.4941 24.2618 19.4604 24.1472 19.4604 24.0302C19.4604 23.9132 19.4941 23.7986 19.5574 23.7002C21.0463 21.1792 23.1668 19.0899 25.7095 17.6385C28.2523 16.1872 31.1296 15.4238 34.0574 15.4238C36.9853 15.4238 39.8625 16.1872 42.4053 17.6385C44.9481 19.0899 47.0685 21.1792 48.5574 23.7002C48.6163 23.8002 48.6474 23.9142 48.6474 24.0302C48.6474 24.1463 48.6163 24.2602 48.5574 24.3602C47.0564 26.8699 44.931 28.948 42.3881 30.392C39.8452 31.8361 36.9717 32.5968 34.0474 32.6002ZM20.8774 24.0302C22.2791 26.255 24.2218 28.0883 26.524 29.3589C28.8262 30.6295 31.4129 31.2958 34.0424 31.2958C36.672 31.2958 39.2586 30.6295 41.5608 29.3589C43.8631 28.0883 45.8057 26.255 47.2074 24.0302C45.8092 21.8008 43.8678 19.963 41.5651 18.6891C39.2624 17.4153 36.674 16.747 34.0424 16.747C31.4109 16.747 28.8224 17.4153 26.5197 18.6891C24.2171 19.963 22.2756 21.8008 20.8774 24.0302Z" fill="#D86D94"/>
<path d="M34.0473 31.5297C32.5612 31.5317 31.1078 31.0927 29.8712 30.2683C28.6347 29.4438 27.6706 28.271 27.1009 26.8983C26.5313 25.5257 26.3817 24.0148 26.6712 22.5571C26.9606 21.0994 27.6761 19.7603 28.727 18.7094C29.7779 17.6585 31.1169 16.943 32.5747 16.6536C34.0324 16.3641 35.5432 16.5137 36.9159 17.0833C38.2886 17.653 39.4614 18.6171 40.2858 19.8537C41.1103 21.0902 41.5493 22.5436 41.5473 24.0297C41.5447 26.0181 40.7537 27.9242 39.3477 29.3301C37.9418 30.7361 36.0357 31.5271 34.0473 31.5297ZM34.0473 17.8197C32.8187 17.8177 31.6171 18.1803 30.5945 18.8615C29.572 19.5426 28.7745 20.5118 28.3029 21.6463C27.8314 22.7809 27.707 24.0299 27.9454 25.2351C28.1839 26.4404 28.7746 27.5478 29.6427 28.4173C30.5108 29.2868 31.6172 29.8793 32.8221 30.1197C34.027 30.3601 35.2762 30.2377 36.4115 29.768C37.5468 29.2982 38.5173 28.5023 39.2001 27.4809C39.8829 26.4594 40.2473 25.2584 40.2473 24.0297C40.2473 22.3845 39.5944 20.8065 38.432 19.6422C37.2696 18.4779 35.6926 17.8224 34.0473 17.8197Z" fill="#D86D94"/>
<path d="M34.0473 26.0897C33.6399 26.0897 33.2416 25.9689 32.9028 25.7425C32.5641 25.5162 32.3 25.1945 32.1441 24.818C31.9882 24.4416 31.9474 24.0275 32.0269 23.6279C32.1064 23.2282 32.3026 22.8611 32.5907 22.573C32.8788 22.2849 33.2458 22.0888 33.6454 22.0093C34.045 21.9298 34.4592 21.9706 34.8356 22.1265C35.212 22.2824 35.5338 22.5465 35.7601 22.8852C35.9865 23.224 36.1073 23.6223 36.1073 24.0297C36.1073 24.5761 35.8903 25.1 35.5039 25.4864C35.1176 25.8727 34.5937 26.0897 34.0473 26.0897ZM34.0473 23.2697C33.8457 23.2697 33.6524 23.3498 33.5099 23.4923C33.3674 23.6348 33.2873 23.8281 33.2873 24.0297C33.2873 24.2313 33.3674 24.4246 33.5099 24.5671C33.6524 24.7096 33.8457 24.7897 34.0473 24.7897C34.2489 24.7897 34.4422 24.7096 34.5847 24.5671C34.7272 24.4246 34.8073 24.2313 34.8073 24.0297C34.8073 23.9299 34.7876 23.8311 34.7495 23.7389C34.7113 23.6467 34.6553 23.5629 34.5847 23.4923C34.5141 23.4217 34.4303 23.3658 34.3381 23.3276C34.2459 23.2894 34.1471 23.2697 34.0473 23.2697Z" fill="#D86D94"/>
<path d="M37.6775 23.2201C36.9304 23.2248 36.1969 23.0202 35.5601 22.6294C34.9234 22.2386 34.4088 21.6773 34.0746 21.0091C33.7405 20.3408 33.6002 19.5924 33.6697 18.8485C33.7391 18.1046 34.0155 17.395 34.4675 16.8001C34.5354 16.7053 34.6286 16.6315 34.7365 16.5873C34.8444 16.5431 34.9626 16.5302 35.0775 16.5501C36.3493 16.7329 37.5536 17.2364 38.577 18.0131C39.6004 18.7899 40.4093 19.8144 40.9275 20.9901C40.977 21.0967 40.9958 21.2149 40.9817 21.3315C40.9675 21.4481 40.921 21.5585 40.8475 21.6501C40.4749 22.1373 39.9952 22.5323 39.4455 22.8046C38.8958 23.0768 38.2909 23.219 37.6775 23.2201ZM35.2975 17.9001C35.0775 18.3014 34.9638 18.7524 34.9675 19.2101C34.9675 19.9288 35.253 20.6181 35.7612 21.1264C36.2695 21.6346 36.9588 21.9201 37.6775 21.9201C38.3713 21.94 39.0457 21.6889 39.5575 21.2201C39.1328 20.3934 38.5307 19.6707 37.7943 19.1037C37.0579 18.5367 36.2053 18.1393 35.2975 17.9401V17.9001Z" fill="#D86D94"/>
</svg>
