<svg width="60" height="61" viewBox="0 0 60 61" fill="none" xmlns="http://www.w3.org/2000/svg">
<path d="M43.9397 51.2557H16.2264C16.1414 51.2551 16.0583 51.2297 15.9875 51.1827C11.3972 48.1521 7.90586 43.7226 6.03137 38.5514C4.15687 33.3801 3.99901 27.7424 5.5812 22.4743C7.16339 17.2062 10.4014 12.5884 14.8149 9.3056C19.2285 6.02285 24.5825 4.25 30.083 4.25C35.5836 4.25 40.9376 6.02285 45.3512 9.3056C49.7647 12.5884 53.0027 17.2062 54.5849 22.4743C56.1671 27.7424 56.0092 33.3801 54.1347 38.5514C52.2602 43.7226 48.7689 48.1521 44.1786 51.1827C44.1081 51.2304 44.0248 51.2559 43.9397 51.2557ZM16.3591 50.393H43.8136C48.2247 47.4476 51.5715 43.1616 53.3596 38.168C55.1477 33.1744 55.2823 27.7381 53.7434 22.6622C52.2045 17.5863 49.0738 13.14 44.8138 9.97999C40.5538 6.82002 35.3904 5.11403 30.0864 5.11403C24.7823 5.11403 19.6189 6.82002 15.3589 9.97999C11.0989 13.14 7.9682 17.5863 6.42933 22.6622C4.89046 27.7381 5.02501 33.1744 6.81311 38.168C8.6012 43.1616 11.948 47.4476 16.3591 50.393Z" fill="#5976C6"/>
<path d="M45.5656 47.048H14.6071C14.4927 47.048 14.383 47.0026 14.3021 46.9217C14.2212 46.8408 14.1758 46.7311 14.1758 46.6167V35.2354C14.1763 35.1494 14.2025 35.0656 14.251 34.9947C14.2995 34.9238 14.368 34.8689 14.4479 34.8372L25.066 30.6496C25.1432 30.6195 25.2274 30.6123 25.3086 30.6287C25.3898 30.6452 25.4646 30.6847 25.5239 30.7426L29.8972 34.95L34.6024 30.7293C34.6643 30.6781 34.7384 30.6439 34.8175 30.6299C34.8966 30.616 34.978 30.6228 35.0537 30.6496L45.6718 34.8372C45.7522 34.8681 45.8212 34.9228 45.8698 34.9939C45.9184 35.065 45.9443 35.1492 45.9439 35.2354V46.6167C45.9447 46.7224 45.9066 46.8248 45.8369 46.9043C45.7671 46.9839 45.6706 47.035 45.5656 47.048ZM15.0385 46.1853H45.1343V35.534L35.0072 31.5522L30.1959 35.8592C30.1163 35.9324 30.012 35.973 29.9039 35.973C29.7957 35.973 29.6915 35.9324 29.6119 35.8592L25.1523 31.5655L15.0385 35.5473V46.1853Z" fill="#5976C6"/>
<path d="M40.3427 47.0283H19.8298C19.7154 47.0283 19.6057 46.9829 19.5248 46.902C19.4439 46.8211 19.3984 46.7114 19.3984 46.597V39.4563C19.3984 39.3419 19.4439 39.2322 19.5248 39.1513C19.6057 39.0704 19.7154 39.0249 19.8298 39.0249C19.9442 39.0249 20.0539 39.0704 20.1348 39.1513C20.2157 39.2322 20.2612 39.3419 20.2612 39.4563V46.1656H39.9113V39.4563C39.9113 39.3419 39.9568 39.2322 40.0377 39.1513C40.1186 39.0704 40.2283 39.0249 40.3427 39.0249C40.4571 39.0249 40.5668 39.0704 40.6477 39.1513C40.7286 39.2322 40.7741 39.3419 40.7741 39.4563V46.597C40.7741 46.7114 40.7286 46.8211 40.6477 46.902C40.5668 46.9829 40.4571 47.0283 40.3427 47.0283Z" fill="#5976C6"/>
<path d="M35.2064 36.9343H24.9665C24.8521 36.9343 24.7424 36.8888 24.6615 36.8079C24.5806 36.7271 24.5352 36.6173 24.5352 36.5029V31.0412C24.5352 30.9268 24.5806 30.8171 24.6615 30.7362C24.7424 30.6553 24.8521 30.6099 24.9665 30.6099C25.0809 30.6099 25.1906 30.6553 25.2715 30.7362C25.3524 30.8171 25.3979 30.9268 25.3979 31.0412V36.0716H34.775V31.0412C34.775 30.9268 34.8205 30.8171 34.9014 30.7362C34.9822 30.6553 35.092 30.6099 35.2064 30.6099C35.3208 30.6099 35.4305 30.6553 35.5114 30.7362C35.5923 30.8171 35.6377 30.9268 35.6377 31.0412V36.5029C35.636 36.6168 35.59 36.7255 35.5095 36.806C35.429 36.8866 35.3202 36.9326 35.2064 36.9343Z" fill="#5976C6"/>
<path d="M31.6224 40.518H28.5432C28.4288 40.518 28.3191 40.4726 28.2382 40.3917C28.1573 40.3108 28.1118 40.2011 28.1118 40.0867V36.5163C28.1118 36.4019 28.1573 36.2922 28.2382 36.2113C28.3191 36.1304 28.4288 36.085 28.5432 36.085H31.6224C31.6791 36.085 31.7352 36.0961 31.7875 36.1178C31.8398 36.1395 31.8874 36.1712 31.9275 36.2113C31.9675 36.2514 31.9993 36.2989 32.021 36.3512C32.0426 36.4036 32.0538 36.4597 32.0538 36.5163V40.0867C32.0538 40.2011 32.0083 40.3108 31.9275 40.3917C31.8466 40.4726 31.7368 40.518 31.6224 40.518ZM28.9679 39.6553H31.1844V36.9344H28.9679V39.6553Z" fill="#5976C6"/>
<path d="M32.8769 47.0482H26.9772C26.9117 47.0489 26.847 47.0343 26.7882 47.0055C26.7294 46.9767 26.6782 46.9345 26.6387 46.8823C26.5985 46.8315 26.5704 46.7723 26.5566 46.709C26.5428 46.6457 26.5437 46.5802 26.5591 46.5173L28.1253 39.9805C28.1478 39.8869 28.2015 39.8038 28.2774 39.7447C28.3534 39.6857 28.4471 39.6541 28.5434 39.6553H31.6226C31.7224 39.6548 31.8193 39.6889 31.8967 39.7519C31.9742 39.8148 32.0274 39.9026 32.0473 40.0004L33.3016 46.5305C33.3147 46.5934 33.3131 46.6584 33.297 46.7206C33.2809 46.7827 33.2507 46.8403 33.2087 46.8889C33.1689 46.9386 33.1184 46.9788 33.0609 47.0063C33.0035 47.0339 32.9406 47.0482 32.8769 47.0482ZM27.5214 46.1855H32.3593L31.2643 40.518H28.8885L27.5214 46.1855Z" fill="#5976C6"/>
<path d="M30.2221 28.8314C28.6198 28.8314 27.0534 28.3563 25.721 27.4663C24.3886 26.5762 23.3501 25.3111 22.7366 23.8309C22.1231 22.3506 21.9622 20.7217 22.2744 19.1501C22.5865 17.5784 23.3575 16.1346 24.4901 15.0011C25.6227 13.8677 27.0658 13.0954 28.6372 12.782C30.2086 12.4686 31.8376 12.6281 33.3184 13.2404C34.7991 13.8527 36.0651 14.8902 36.9562 16.2219C37.8474 17.5535 38.3237 19.1195 38.3251 20.7218C38.3233 22.8709 37.4692 24.9316 35.9502 26.4519C34.4312 27.9722 32.3712 28.8279 30.2221 28.8314ZM30.2221 13.4882C28.7898 13.4882 27.3897 13.913 26.1989 14.7089C25.0082 15.5047 24.0802 16.6359 23.5324 17.9593C22.9846 19.2826 22.8416 20.7387 23.1215 22.1434C23.4014 23.548 24.0916 24.8381 25.1048 25.8504C26.1181 26.8627 27.4088 27.5518 28.8137 27.8304C30.2186 28.109 31.6746 27.9647 32.9974 27.4156C34.3203 26.8666 35.4506 25.9376 36.2454 24.7461C37.0401 23.5546 37.4636 22.1541 37.4623 20.7218C37.4588 18.8033 36.6947 16.9644 35.3374 15.6084C33.9802 14.2524 32.1406 13.49 30.2221 13.4882Z" fill="#5976C6"/>
<path d="M36.0226 19.3947C34.1202 19.4298 32.2575 18.8477 30.7135 17.7356C30.668 17.7017 30.6297 17.659 30.6009 17.61C30.5722 17.561 30.5536 17.5068 30.5461 17.4505C30.5387 17.3942 30.5426 17.337 30.5577 17.2822C30.5728 17.2275 30.5987 17.1763 30.6339 17.1317C30.7035 17.0412 30.8062 16.982 30.9194 16.9671C31.0326 16.9522 31.1471 16.9827 31.2378 17.0521C32.1495 17.6801 33.1769 18.1208 34.2603 18.3486C35.3437 18.5765 36.4615 18.5869 37.549 18.3793C37.6614 18.3619 37.7761 18.3888 37.869 18.4544C37.9619 18.5201 38.0256 18.6193 38.0467 18.7311C38.0659 18.8437 38.0397 18.9594 37.9738 19.0527C37.9078 19.146 37.8076 19.2093 37.695 19.2288C37.1434 19.3326 36.5838 19.3881 36.0226 19.3947Z" fill="#5976C6"/>
<path d="M26.181 19.2486C25.0304 19.2551 23.8881 19.0527 22.8097 18.6513C22.7033 18.6097 22.6173 18.5281 22.5702 18.4239C22.5231 18.3198 22.5185 18.2013 22.5576 18.0939C22.5775 18.0406 22.6077 17.9918 22.6465 17.9503C22.6854 17.9087 22.732 17.8753 22.7838 17.8519C22.8356 17.8284 22.8916 17.8155 22.9484 17.8137C23.0052 17.812 23.0619 17.8215 23.115 17.8417C24.0952 18.2089 25.1343 18.3933 26.181 18.3859C29.7248 18.3859 32.605 16.395 32.605 13.9196C32.605 13.8052 32.6504 13.6955 32.7313 13.6146C32.8122 13.5337 32.9219 13.4883 33.0363 13.4883C33.1507 13.4883 33.2605 13.5337 33.3413 13.6146C33.4222 13.6955 33.4677 13.8052 33.4677 13.9196C33.4677 16.8595 30.196 19.2486 26.181 19.2486Z" fill="#5976C6"/>
<path d="M53.0048 54.1889H7.16769C7.05328 54.1889 6.94356 54.1434 6.86267 54.0626C6.78177 53.9817 6.73633 53.8719 6.73633 53.7575C6.73633 53.6431 6.78177 53.5334 6.86267 53.4525C6.94356 53.3716 7.05328 53.3262 7.16769 53.3262H53.0048C53.1192 53.3262 53.2289 53.3716 53.3098 53.4525C53.3907 53.5334 53.4362 53.6431 53.4362 53.7575C53.4362 53.8719 53.3907 53.9817 53.3098 54.0626C53.2289 54.1434 53.1192 54.1889 53.0048 54.1889Z" fill="#5976C6"/>
<path d="M53.0048 56.7504H7.16769C7.05328 56.7504 6.94356 56.705 6.86267 56.6241C6.78177 56.5432 6.73633 56.4335 6.73633 56.3191C6.73633 56.2046 6.78177 56.0949 6.86267 56.014C6.94356 55.9331 7.05328 55.8877 7.16769 55.8877H53.0048C53.1192 55.8877 53.2289 55.9331 53.3098 56.014C53.3907 56.0949 53.4362 56.2046 53.4362 56.3191C53.4362 56.4335 53.3907 56.5432 53.3098 56.6241C53.2289 56.705 53.1192 56.7504 53.0048 56.7504Z" fill="#5976C6"/>
</svg>
