<svg width="68" height="70" viewBox="0 0 68 70" fill="none" xmlns="http://www.w3.org/2000/svg">
<path d="M40.4465 0H1V47.113H40.4465V0Z" stroke="#343843" stroke-width="0.2" stroke-linecap="round" stroke-linejoin="round"/>
<path d="M11.6559 5.58105H11.6549C7.52468 5.58105 4.10274 8.6178 3.50049 12.5819C3.43833 12.9885 3.40674 13.4053 3.40674 13.8292C3.40674 15.8306 4.11905 17.6648 5.30419 19.0925C6.81645 20.9176 9.10012 22.0804 11.6549 22.0804C13.3679 22.0804 14.9586 21.5586 16.2772 20.6639H16.2783C16.4668 20.5365 16.6492 20.401 16.8255 20.2583C17.765 19.5032 18.5354 18.5453 19.0704 17.4519C19.6054 16.3584 19.906 15.1295 19.906 13.8292C19.906 9.27406 16.213 5.58105 11.6559 5.58105ZM14.3675 17.8004C14.3614 17.8034 14.3553 17.8085 14.3482 17.8116C13.5808 18.3323 12.6535 18.638 11.6549 18.638C10.166 18.638 8.83619 17.9614 7.9537 16.8975C7.26279 16.066 6.84804 14.996 6.84804 13.8292C6.84804 13.5816 6.86638 13.339 6.90205 13.1026C7.25362 10.7924 9.24788 9.02236 11.6549 9.02236H11.6559C12.9837 9.02236 14.1862 9.56041 15.0554 10.4307C15.9257 11.2999 16.4637 12.5024 16.4637 13.8292C16.4637 15.48 15.6332 16.9342 14.3675 17.8004Z" fill="white" stroke="#343843" stroke-width="0.2" stroke-linecap="round" stroke-linejoin="round"/>
<path d="M16.2772 20.6648C14.9586 21.5595 13.3679 22.0813 11.6549 22.0813C9.10013 22.0813 6.81646 20.9186 5.3042 19.0935L7.95371 16.8984C8.8362 17.9623 10.166 18.639 11.6549 18.639C12.6535 18.639 13.5809 18.3332 14.3482 17.8125L16.2772 20.6648Z" fill="#343843" stroke="#343843" stroke-width="0.2" stroke-linecap="round" stroke-linejoin="round"/>
<path d="M7.9537 16.8977L5.30419 19.0927C4.11905 17.665 3.40674 15.8307 3.40674 13.8293C3.40674 13.4054 3.43833 12.9886 3.50049 12.582L6.90205 13.1028C6.86638 13.3392 6.84804 13.5817 6.84804 13.8293C6.84804 14.9961 7.26279 16.0661 7.9537 16.8977Z" fill="#E6933B" stroke="#343843" stroke-width="0.2" stroke-linecap="round" stroke-linejoin="round"/>
<path d="M26.693 6.74121H23.4023V10.0319H26.693V6.74121Z" fill="#E6933B" stroke="#343843" stroke-width="0.2" stroke-linecap="round" stroke-linejoin="round"/>
<path d="M26.693 11.8506H23.4023V15.1413H26.693V11.8506Z" fill="white" stroke="#343843" stroke-width="0.2" stroke-linecap="round" stroke-linejoin="round"/>
<path d="M26.693 16.959H23.4023V20.2497H26.693V16.959Z" fill="#343843" stroke="#343843" stroke-width="0.2" stroke-linecap="round" stroke-linejoin="round"/>
<path d="M38.2457 6.74121H28.4663V7.688H38.2457V6.74121Z" fill="white" stroke="#D86D94" stroke-width="0.2" stroke-linecap="round" stroke-linejoin="round"/>
<path d="M35.0175 9.08496H28.4663V10.0318H35.0175V9.08496Z" fill="white" stroke="#D86D94" stroke-width="0.2" stroke-linecap="round" stroke-linejoin="round"/>
<path d="M38.2457 11.8506H28.4663V12.7974H38.2457V11.8506Z" fill="white" stroke="#D86D94" stroke-width="0.2" stroke-linecap="round" stroke-linejoin="round"/>
<path d="M36.1569 14.1943H28.4663V15.1411H36.1569V14.1943Z" fill="white" stroke="#343843" stroke-width="0.2" stroke-linecap="round" stroke-linejoin="round"/>
<path d="M38.2457 16.959H28.4663V17.9058H38.2457V16.959Z" fill="white" stroke="#D86D94" stroke-width="0.2" stroke-linecap="round" stroke-linejoin="round"/>
<path d="M33.356 19.3037H28.4663V20.2505H33.356V19.3037Z" fill="white" stroke="#D86D94" stroke-width="0.2" stroke-linecap="round" stroke-linejoin="round"/>
<path d="M38.4543 25.1768H3.19775V42.5952H38.4543V25.1768Z" stroke="#343843" stroke-width="0.2" stroke-linecap="round" stroke-linejoin="round"/>
<path d="M35.3626 29.7635L30.9162 32.5832L24.5092 29.457L18.1863 35.4509L12.2996 31.7782L5.74414 38.8594" stroke="#D86D94" stroke-width="0.2" stroke-linecap="round" stroke-linejoin="round"/>
<path d="M5.74452 39.6453C6.18294 39.6453 6.53835 39.2899 6.53835 38.8515C6.53835 38.413 6.18294 38.0576 5.74452 38.0576C5.30609 38.0576 4.95068 38.413 4.95068 38.8515C4.95068 39.2899 5.30609 39.6453 5.74452 39.6453Z" fill="#E6933B" stroke="#D86D94" stroke-width="0.2" stroke-linecap="round" stroke-linejoin="round"/>
<path d="M12.1 32.6795C12.5384 32.6795 12.8938 32.3241 12.8938 31.8856C12.8938 31.4472 12.5384 31.0918 12.1 31.0918C11.6616 31.0918 11.3062 31.4472 11.3062 31.8856C11.3062 32.3241 11.6616 32.6795 12.1 32.6795Z" fill="#E6933B" stroke="#D86D94" stroke-width="0.2" stroke-linecap="round" stroke-linejoin="round"/>
<path d="M18.0712 36.2732C18.5096 36.2732 18.865 35.9178 18.865 35.4794C18.865 35.041 18.5096 34.6855 18.0712 34.6855C17.6328 34.6855 17.2773 35.041 17.2773 35.4794C17.2773 35.9178 17.6328 36.2732 18.0712 36.2732Z" fill="#E6933B" stroke="#D86D94" stroke-width="0.2" stroke-linecap="round" stroke-linejoin="round"/>
<path d="M24.6093 30.3826C25.0477 30.3826 25.4031 30.0272 25.4031 29.5888C25.4031 29.1503 25.0477 28.7949 24.6093 28.7949C24.1708 28.7949 23.8154 29.1503 23.8154 29.5888C23.8154 30.0272 24.1708 30.3826 24.6093 30.3826Z" fill="#E6933B" stroke="#D86D94" stroke-width="0.2" stroke-linecap="round" stroke-linejoin="round"/>
<path d="M30.9296 33.3416C31.368 33.3416 31.7234 32.9862 31.7234 32.5477C31.7234 32.1093 31.368 31.7539 30.9296 31.7539C30.4912 31.7539 30.1357 32.1093 30.1357 32.5477C30.1357 32.9862 30.4912 33.3416 30.9296 33.3416Z" fill="#E6933B" stroke="#D86D94" stroke-width="0.2" stroke-linecap="round" stroke-linejoin="round"/>
<path d="M35.3627 30.5574C35.8011 30.5574 36.1565 30.202 36.1565 29.7636C36.1565 29.3251 35.8011 28.9697 35.3627 28.9697C34.9243 28.9697 34.5688 29.3251 34.5688 29.7636C34.5688 30.202 34.9243 30.5574 35.3627 30.5574Z" fill="#E6933B" stroke="#D86D94" stroke-width="0.2" stroke-linecap="round" stroke-linejoin="round"/>
<path d="M60.1976 69.9997L67.1097 64.6263L64.8975 61.9688L60.6267 64.626C60.6267 64.626 61.6513 66.3313 60.5049 67.3856C58.6961 69.0501 60.1976 69.9997 60.1976 69.9997Z" fill="#343843" stroke="white" stroke-width="0.2" stroke-linecap="round" stroke-linejoin="round"/>
<path d="M45.7645 48.8928L60.0616 65.8558L66.1687 61.2609L52.5421 44.6465L55.2455 28.1708L47.7682 28.0791L44.5141 43.9189C44.242 45.6686 44.6975 47.4804 45.7645 48.8928Z" fill="#B6D0BB"/>
<path d="M64.9883 59.6602L58.8076 64.206" stroke="#343843" stroke-width="0.2" stroke-linecap="round" stroke-linejoin="round"/>
<path d="M54.5001 31.1526L52.5444 44.6477L66.1596 61.2489L60.0701 65.8674L45.7717 48.9028C44.6964 47.485 44.2388 45.6638 44.5164 43.906L47.768 28.0791" stroke="#343843" stroke-width="0.2" stroke-linecap="round" stroke-linejoin="round"/>
<path d="M58.121 66.5044L58.2004 69.9603H50.152C50.152 69.9603 49.6182 68.2591 52.1118 68.0513C53.6916 67.9197 53.2497 66.3398 53.2497 66.3398" fill="#343843"/>
<path d="M58.121 66.5044L58.2004 69.9603H50.152C50.152 69.9603 49.6182 68.2591 52.1118 68.0513C53.6916 67.9197 53.2497 66.3398 53.2497 66.3398" stroke="white" stroke-width="0.2" stroke-linecap="round" stroke-linejoin="round"/>
<path d="M52.009 28.0684L51.7075 67.0667L59.3641 67.0763L59.9636 28.1045" fill="#B6D0BB"/>
<path d="M51.8582 32.5675L51.7075 67.0668L59.3641 67.0764L59.878 28.1045" stroke="#343843" stroke-width="0.2" stroke-linecap="round" stroke-linejoin="round"/>
<path d="M51.7075 65.1221H59.3901" stroke="#343843" stroke-width="0.2" stroke-linecap="round" stroke-linejoin="round"/>
<path d="M55.1966 11.8584L54.0649 13.8661L53.7397 12.4899C53.7397 12.4899 54.2357 12.4309 54.6568 12.2068C55.078 11.9828 55.1966 11.8584 55.1966 11.8584Z" fill="#343843" stroke="#343843" stroke-width="0.2" stroke-linecap="round" stroke-linejoin="round"/>
<path d="M53.733 9.44256C55.3336 9.10976 56.3599 7.5357 56.0253 5.92678C55.6908 4.31787 54.1221 3.28338 52.5216 3.61617C50.921 3.94897 49.8947 5.52303 50.2293 7.13194C50.5638 8.74085 52.1325 9.77535 53.733 9.44256Z" fill="#E6933B" stroke="#343843" stroke-width="0.2" stroke-linecap="round" stroke-linejoin="round"/>
<path d="M55.306 9.33572C55.7629 9.32869 56.1265 8.94584 56.1184 8.48075C56.1106 8.03563 55.7649 7.67733 55.3349 7.65349C54.9941 6.15702 53.7581 5.0317 52.1897 5.05605C51.0106 5.07429 50.5913 5.71751 50.0341 6.6804C49.7392 7.18992 49.8246 10.1781 50.2222 10.8192C50.4882 11.248 50.9642 11.5356 51.7314 11.6618L51.7686 13.4024C51.7686 13.4024 51.6681 15.0829 53.4946 14.9946C55.3472 14.905 55.3287 13.2776 55.3287 13.2776C55.3287 13.2776 55.275 9.56022 55.29 9.33521C55.2953 9.33521 55.3005 9.33582 55.3058 9.33582L55.306 9.33572Z" fill="#FCF4EB" stroke="#343843" stroke-width="0.2" stroke-linecap="round" stroke-linejoin="round"/>
<path d="M53.333 4.07898C53.2322 3.24368 52.5173 2.60219 51.6619 2.61544C51.0429 2.62501 50.5102 2.97557 50.2353 3.4858C50.0075 3.3948 49.7586 3.34599 49.4984 3.35006C48.4405 3.36647 47.598 4.24152 47.6165 5.30448C47.6351 6.36745 48.5077 7.2159 49.5654 7.19949C50.1855 7.18991 50.73 6.884 51.072 6.41942L53.9119 6.4292C53.9119 6.4292 53.6705 7.57053 54.7245 8.07933L54.8716 8.82211C54.8788 8.8588 54.9112 8.88499 54.9486 8.88438L55.1622 8.88111C55.2004 8.8805 55.2324 8.85217 55.2376 8.81427L55.4118 7.54362L55.2701 6.23283C55.1667 5.27554 54.5128 4.46734 53.5982 4.16642L53.3328 4.07909L53.333 4.07898Z" fill="#E6933B"/>
<path d="M53.333 4.07898C53.3111 3.89749 53.2603 3.72517 53.1853 3.56671C52.915 2.99584 52.3315 2.60504 51.6619 2.61544C51.0429 2.62502 50.5102 2.97557 50.2353 3.4858C50.0075 3.3948 49.7586 3.34599 49.4984 3.35006C48.4405 3.36647 47.598 4.24152 47.6165 5.30448C47.6351 6.36745 48.5077 7.2159 49.5654 7.19949C50.1855 7.18991 50.73 6.884 51.072 6.41942L53.9119 6.4292C53.9119 6.4292 53.6705 7.57053 54.7245 8.07933L54.8716 8.82211C54.8788 8.8588 54.9112 8.88499 54.9486 8.88438L55.1622 8.88112C55.2004 8.8805 55.2324 8.85218 55.2376 8.81427L55.396 7.65928" stroke="#343843" stroke-width="0.2" stroke-linecap="round" stroke-linejoin="round"/>
<path d="M53.288 11.3457L51.7652 13.0755L51.7319 11.6618C51.7319 11.6618 52.2293 11.7067 52.6877 11.5748C53.1461 11.4428 53.2879 11.3457 53.2879 11.3457H53.288Z" fill="#343843" stroke="#343843" stroke-width="0.2" stroke-linecap="round" stroke-linejoin="round"/>
<path d="M52.5021 7.90463L52.5006 7.89026C52.5015 7.86916 52.4971 7.8496 52.4875 7.83136C52.4814 7.8124 52.4708 7.796 52.4559 7.78214C52.442 7.76726 52.4256 7.75666 52.4067 7.75055C52.3884 7.74097 52.3689 7.73659 52.3478 7.7374L52.3071 7.7429C52.2812 7.75014 52.2587 7.76328 52.2397 7.78224L52.2157 7.81322C52.2019 7.83706 52.1949 7.86274 52.1948 7.89036L52.1962 7.90473C52.1954 7.92582 52.1998 7.94539 52.2094 7.96363C52.2155 7.98258 52.2261 7.99899 52.241 8.01285C52.2548 8.02773 52.2712 8.03832 52.2902 8.04444C52.3084 8.05402 52.328 8.0584 52.3491 8.05758L52.3898 8.05208C52.4157 8.04485 52.4382 8.0317 52.4572 8.01275L52.4812 7.98177C52.495 7.95792 52.502 7.93224 52.5021 7.90463Z" fill="#343843"/>
<path d="M50.7252 8.02963L50.7238 8.01526C50.7246 7.99416 50.7202 7.9746 50.7106 7.95636C50.7045 7.9374 50.6939 7.921 50.679 7.90714C50.6652 7.89226 50.6488 7.88166 50.6298 7.87555C50.6116 7.86597 50.592 7.86159 50.5709 7.8624L50.5303 7.8679C50.5044 7.87514 50.4819 7.88828 50.4628 7.90724L50.4389 7.93822C50.425 7.96206 50.4181 7.98774 50.418 8.01536L50.4194 8.02973C50.4186 8.05082 50.423 8.07039 50.4325 8.08863C50.4387 8.10758 50.4493 8.12399 50.4641 8.13785C50.478 8.15273 50.4944 8.16332 50.5134 8.16944C50.5316 8.17902 50.5512 8.1834 50.5723 8.18258L50.6129 8.17708C50.6388 8.16985 50.6613 8.1567 50.6804 8.13775L50.7043 8.10677C50.7182 8.08292 50.7251 8.05724 50.7252 8.02963Z" fill="#343843"/>
<path d="M51.3501 8.7666L51.2641 9.17351C51.2482 9.24861 51.3134 9.31607 51.3887 9.30221L51.746 9.23658" stroke="#343843" stroke-width="0.2" stroke-linecap="round" stroke-linejoin="round"/>
<path d="M52.252 7.43362C52.252 7.43362 52.7658 7.25253 53.0302 7.59473" stroke="#343843" stroke-width="0.2" stroke-linecap="round" stroke-linejoin="round"/>
<path d="M52.8435 9.61719C52.8435 9.61719 52.6894 10.177 51.9858 10.0834" stroke="#343843" stroke-width="0.2" stroke-linecap="round" stroke-linejoin="round"/>
<path d="M50.2554 7.6405C50.2554 7.6405 50.6517 7.31685 51.0343 7.51587" stroke="#343843" stroke-width="0.2" stroke-linecap="round" stroke-linejoin="round"/>
<path d="M61.3562 26.3047C60.8905 26.4545 60.4136 26.4617 59.9713 26.3536C59.9672 27.4012 59.9631 28.1044 59.9631 28.1044L47.6939 28.0789L47.7937 25.7809L47.3158 26.9131C46.8491 27.8098 45.879 28.2766 44.9313 28.1522L34.9629 26.6799L35.6507 23.0403L43.5291 23.0866L46.7033 15.3905C46.8738 14.9772 47.1169 14.5944 47.4397 14.285C47.9008 13.8432 48.4857 13.5442 49.086 13.4779C49.086 13.4779 49.3611 13.4616 49.463 13.4678L51.7681 13.4382C51.7661 13.6848 51.8293 15.0738 53.4944 14.9943C55.0464 14.9199 55.2848 13.7653 55.3215 13.3923L58.022 13.3577C58.9503 13.3475 59.789 13.6206 60.2751 14.1006C60.7377 14.5571 61.018 15.2735 61.2238 15.9124L62.9725 23.0182L62.9979 23.0987C63.43 24.4377 62.6943 25.8725 61.3563 26.3046L61.3562 26.3047Z" fill="#5976C6"/>
<path d="M47.7881 25.9154L48.0844 19.0498" stroke="#D86D94" stroke-width="0.2" stroke-linecap="round" stroke-linejoin="round"/>
<path d="M30.8138 23.2451L47.5044 23.2451C47.6611 23.2451 47.7881 23.1181 47.7881 22.9614V22.9613C47.7881 22.8046 47.6611 22.6776 47.5044 22.6776L30.8138 22.6776C30.6571 22.6776 30.5301 22.8046 30.5301 22.9613V22.9614C30.5301 23.1181 30.6571 23.2451 30.8138 23.2451Z" fill="#E6933B" stroke="#343843" stroke-width="0.2" stroke-linecap="round" stroke-linejoin="round"/>
<path d="M30.3516 23.2452H41.7195C41.9958 23.2452 42.2017 22.99 42.1432 22.7199L40.3412 14.4027C40.299 14.2081 40.127 14.0693 39.928 14.0693H28.8878C28.6183 14.0693 28.4175 14.3182 28.4746 14.5817L30.3516 23.2452Z" fill="#343843" stroke="#343843" stroke-width="0.2" stroke-linecap="round" stroke-linejoin="round"/>
<path d="M30.5865 23.2452H41.4137C41.7497 23.2452 41.9998 22.9351 41.9287 22.6068L40.1512 14.4027C40.109 14.2081 39.937 14.0693 39.738 14.0693H28.6021C28.3818 14.0693 28.2176 14.2727 28.2643 14.4882L30.0716 22.8298C30.1241 23.0722 30.3386 23.2452 30.5865 23.2452Z" fill="#E6933B" stroke="#343843" stroke-width="0.2" stroke-linecap="round" stroke-linejoin="round"/>
<path d="M34.9096 19.4734C35.3531 19.4734 35.7127 19.1138 35.7127 18.6703C35.7127 18.2268 35.3531 17.8672 34.9096 17.8672C34.466 17.8672 34.1064 18.2268 34.1064 18.6703C34.1064 19.1138 34.466 19.4734 34.9096 19.4734Z" fill="white" stroke="#343843" stroke-width="0.2" stroke-linecap="round" stroke-linejoin="round"/>
<path d="M35.6291 23.4815C35.6291 23.4815 33.9888 23.2048 33.5319 22.969C33.3253 22.8624 32.9362 22.3804 32.7662 22.1742C32.596 21.9681 32.2884 21.8753 32.2987 22.0979C32.3006 22.1365 32.3337 22.2211 32.3809 22.3229C32.3607 22.298 32.3422 22.2741 32.3272 22.2521C31.9269 21.6682 31.5761 21.6708 31.5847 21.9098C31.5862 21.9519 31.6185 22.0386 31.6692 22.1487C31.4407 21.8859 31.2048 21.7073 31.0257 21.87C30.9498 21.939 31.0661 22.195 31.2354 22.4984C31.1995 22.4667 31.1631 22.439 31.1268 22.4172C31.0127 22.3485 30.8828 22.3774 30.8819 22.4633C30.8787 22.7605 31.3451 23.7465 32.1359 24.445C32.2689 24.5625 32.5582 24.7485 32.9068 24.956C32.6446 25.0003 32.3763 25.0918 32.3067 25.2801C32.2018 25.5635 32.4837 25.5889 33.1588 25.5173C33.3483 25.4972 33.6751 25.5254 33.9711 25.5614C34.5984 25.9069 35.1379 26.1891 35.1379 26.1891L35.6287 23.4815H35.6291Z" fill="#FCF4EB"/>
<path d="M34.0063 25.537C34.0063 25.537 33.5683 25.4739 33.1596 25.5173C32.4844 25.5889 32.2026 25.5636 32.3074 25.2801C32.4538 24.8842 33.4786 24.9156 33.4786 24.9156" stroke="#343843" stroke-width="0.2" stroke-linecap="round" stroke-linejoin="round"/>
<path d="M35.1061 26.1892C35.1061 26.1892 32.6168 24.8698 32.1358 24.445C31.345 23.7464 30.7912 22.7253 30.8818 22.4632C30.9172 22.3605 31.0126 22.3484 31.1267 22.4171C31.1556 22.4344 31.1845 22.4555 31.2132 22.4793" fill="white"/>
<path d="M35.1061 26.1892C35.1061 26.1892 32.6168 24.8698 32.1358 24.445C31.345 23.7464 30.7912 22.7253 30.8818 22.4632C30.9172 22.3605 31.0126 22.3484 31.1267 22.4171C31.1556 22.4344 31.1845 22.4555 31.2132 22.4793" stroke="#343843" stroke-width="0.2" stroke-linecap="round" stroke-linejoin="round"/>
<path d="M32.7172 24.2733C32.7172 24.2733 32.4995 24.1301 32.36 24.0345C32.103 23.8584 31.8105 23.4785 31.5761 23.0802C31.2821 22.5805 30.882 22.0134 31.0258 21.8696C31.2058 21.6897 31.4274 21.8609 31.6693 22.1483" stroke="#343843" stroke-width="0.2" stroke-linecap="round" stroke-linejoin="round"/>
<path d="M33.0194 23.8441C33.0194 23.8441 32.6299 23.584 32.4764 23.4326C32.1941 23.154 31.591 22.0986 31.5841 21.9097C31.5755 21.6708 31.9263 21.6682 32.3266 22.252C32.3418 22.2742 32.3598 22.2979 32.3801 22.323" stroke="#343843" stroke-width="0.2" stroke-linecap="round" stroke-linejoin="round"/>
<path d="M33.3209 23.4515C33.3209 23.4515 32.8043 23.0952 32.7059 22.9339C32.6074 22.7725 32.3041 22.2169 32.2986 22.0974C32.2882 21.8749 32.5958 21.9676 32.766 22.1737C32.9362 22.3799 33.3252 22.8619 33.5317 22.9685C33.9887 23.2043 35.6289 23.4811 35.6289 23.4811L35.1062 26.1887" stroke="#343843" stroke-width="0.2" stroke-linecap="round" stroke-linejoin="round"/>
<path d="M45.4628 18.6351C46.0189 18.6093 46.4222 18.61 46.8944 18.647C46.8075 18.7622 46.7095 18.8978 46.6324 19.0192C46.595 19.0781 46.575 19.1977 46.5655 19.3291C46.3531 19.2959 46.2098 19.3214 46.0981 19.4596C45.9783 19.6076 46.2146 19.7656 46.5888 19.9429C46.657 20.2688 46.8185 20.2777 46.9341 20.0981C47.0218 20.1361 47.1121 20.175 47.2043 20.215C47.5908 20.3825 49.933 21.9283 49.933 21.9283L52.5854 19.5933C51.9249 19.3402 48.7316 18.1264 48.004 18.0303C46.6678 17.8538 45.7067 18.1383 45.3688 18.3112C45.21 18.3924 45.3091 18.6422 45.4629 18.6351H45.4628Z" fill="#FCF4EB"/>
<path d="M46.5764 19.9376C46.2091 19.7626 45.9799 19.6066 46.0983 19.46C46.2084 19.3238 46.349 19.297 46.5567 19.3281" stroke="#343843" stroke-width="0.2" stroke-linecap="round" stroke-linejoin="round"/>
<path d="M46.8732 18.6448C46.4098 18.6095 46.0111 18.6097 45.4629 18.6351C45.3091 18.6422 45.21 18.3924 45.3688 18.3112C45.7067 18.1383 46.6678 17.8538 48.004 18.0303C48.7316 18.1264 51.925 19.3402 52.5854 19.5933L49.9331 21.9283C49.9331 21.9283 47.5907 20.3824 47.2043 20.215C47.1159 20.1767 47.0289 20.1394 46.9447 20.1028" stroke="#343843" stroke-width="0.2" stroke-linecap="round" stroke-linejoin="round"/>
<path d="M47.105 18.377C47.105 18.377 46.8122 18.7367 46.6324 19.0194C46.538 19.1677 46.5537 19.7012 46.5717 19.8421C46.6331 20.3258 46.8607 20.2952 46.9834 20.0035C47.0986 19.7294 47.0601 19.4855 47.2004 19.2443" stroke="#343843" stroke-width="0.2" stroke-linecap="round" stroke-linejoin="round"/>
<path d="M47.6756 18.4473C47.6756 18.4473 47.3683 18.8907 47.2192 19.1959C47.142 19.3539 47.1902 19.8392 47.2397 19.9724C47.3156 20.1768 47.396 20.2586 47.5321 20.1805C47.7265 20.069 47.6065 19.6107 47.7469 19.3695C47.8778 19.1445 48.292 18.5707 48.292 18.5707" stroke="#343843" stroke-width="0.2" stroke-linecap="round" stroke-linejoin="round"/>
<path d="M47.9544 19.0681C47.8068 19.5252 47.9345 19.7093 47.9921 19.8121C48.0902 19.9867 48.2346 19.9647 48.2917 19.8231C48.3677 19.6347 48.4151 19.2936 48.4797 19.2C48.6137 19.0057 48.8956 18.7451 48.8956 18.7451" stroke="#343843" stroke-width="0.2" stroke-linecap="round" stroke-linejoin="round"/>
<path d="M59.9708 26.355C59.8792 26.3326 59.7891 26.3052 59.7009 26.273L49.6323 22.3146L50.9374 18.3184L57.6137 20.5092L59.9637 21.2585" fill="#5976C6"/>
<path d="M59.9708 26.355C59.8792 26.3326 59.7891 26.3052 59.7009 26.273L49.6323 22.3146L50.9374 18.3184L57.6137 20.5092L59.9637 21.2585" stroke="#D86D94" stroke-width="0.2" stroke-linecap="round" stroke-linejoin="round"/>
<path d="M57.7349 20.5479L57.126 18.3828" stroke="#D86D94" stroke-width="0.2" stroke-linecap="round" stroke-linejoin="round"/>
</svg>
