<svg width="85" height="70" viewBox="0 0 85 70" fill="none" xmlns="http://www.w3.org/2000/svg">
<g clip-path="url(#clip0_393_1353)">
<path d="M52.8134 4.2002H1.1333V43.4003H52.8134V4.2002Z" fill="#FCF4EB" stroke="#343843" stroke-width="0.2" stroke-linecap="round" stroke-linejoin="round"/>
<path d="M52.958 0H1.1333V4.38523H52.958V0Z" fill="white" stroke="#E6933B" stroke-width="0.2" stroke-linecap="round" stroke-linejoin="round"/>
<path d="M6.25859 6.0332H4.17041V7.27071H6.25859V6.0332Z" fill="#343843" stroke="#FCF4EB" stroke-width="0.2" stroke-linecap="round" stroke-linejoin="round"/>
<path d="M6.25859 8.95605H4.17041V10.1936H6.25859V8.95605Z" fill="#343843" stroke="#FCF4EB" stroke-width="0.2" stroke-linecap="round" stroke-linejoin="round"/>
<path d="M6.25859 11.8799H4.17041V13.1174H6.25859V11.8799Z" fill="#343843" stroke="#FCF4EB" stroke-width="0.2" stroke-linecap="round" stroke-linejoin="round"/>
<path d="M6.25859 14.8037H4.17041V16.0412H6.25859V14.8037Z" fill="#343843" stroke="#FCF4EB" stroke-width="0.2" stroke-linecap="round" stroke-linejoin="round"/>
<path d="M6.25859 17.7266H4.17041V18.9641H6.25859V17.7266Z" fill="#343843" stroke="#FCF4EB" stroke-width="0.2" stroke-linecap="round" stroke-linejoin="round"/>
<path d="M6.25859 20.6504H4.17041V21.8879H6.25859V20.6504Z" fill="#343843" stroke="#FCF4EB" stroke-width="0.2" stroke-linecap="round" stroke-linejoin="round"/>
<path d="M6.25859 23.5742H4.17041V24.8117H6.25859V23.5742Z" fill="#343843" stroke="#FCF4EB" stroke-width="0.2" stroke-linecap="round" stroke-linejoin="round"/>
<path d="M6.25859 26.7607H4.17041V27.9982H6.25859V26.7607Z" fill="#343843" stroke="#FCF4EB" stroke-width="0.2" stroke-linecap="round" stroke-linejoin="round"/>
<path d="M6.25859 29.6836H4.17041V30.9211H6.25859V29.6836Z" fill="#343843" stroke="#FCF4EB" stroke-width="0.2" stroke-linecap="round" stroke-linejoin="round"/>
<path d="M6.25859 32.6074H4.17041V33.8449H6.25859V32.6074Z" fill="#343843" stroke="#FCF4EB" stroke-width="0.2" stroke-linecap="round" stroke-linejoin="round"/>
<path d="M6.25859 35.5312H4.17041V36.7688H6.25859V35.5312Z" fill="#343843" stroke="#FCF4EB" stroke-width="0.2" stroke-linecap="round" stroke-linejoin="round"/>
<path d="M6.25859 38.4541H4.17041V39.6916H6.25859V38.4541Z" fill="#343843" stroke="#FCF4EB" stroke-width="0.2" stroke-linecap="round" stroke-linejoin="round"/>
<path d="M6.25859 41.3779H4.17041V42.6154H6.25859V41.3779Z" fill="#343843" stroke="#FCF4EB" stroke-width="0.2" stroke-linecap="round" stroke-linejoin="round"/>
<path d="M26.5713 6.0332H9.86572V7.27071H26.5713V6.0332Z" fill="#E6933B" stroke="#FCF4EB" stroke-width="0.2" stroke-linecap="round" stroke-linejoin="round"/>
<path d="M24.2931 8.95605H14.8013V10.1936H24.2931V8.95605Z" fill="#343843" stroke="#FCF4EB" stroke-width="0.2" stroke-linecap="round" stroke-linejoin="round"/>
<path d="M42.8972 8.95605H25.812V10.1936H42.8972V8.95605Z" fill="#E6933B" stroke="#FCF4EB" stroke-width="0.2" stroke-linecap="round" stroke-linejoin="round"/>
<path d="M20.4964 14.8037H14.8013V16.0412H20.4964V14.8037Z" fill="#E6933B" stroke="#FCF4EB" stroke-width="0.2" stroke-linecap="round" stroke-linejoin="round"/>
<path d="M46.3137 14.8037H40.6187V16.0412H46.3137V14.8037Z" fill="#E6933B" stroke="#FCF4EB" stroke-width="0.2" stroke-linecap="round" stroke-linejoin="round"/>
<path d="M39.1003 14.8037H22.0151V16.0412H39.1003V14.8037Z" fill="#343843" stroke="#FCF4EB" stroke-width="0.2" stroke-linecap="round" stroke-linejoin="round"/>
<path d="M16.6996 11.8799H14.8013V13.1174H16.6996V11.8799Z" fill="#343843" stroke="#FCF4EB" stroke-width="0.2" stroke-linecap="round" stroke-linejoin="round"/>
<path d="M35.3034 11.8799H18.2183V13.1174H35.3034V11.8799Z" fill="#E6933B" stroke="#FCF4EB" stroke-width="0.2" stroke-linecap="round" stroke-linejoin="round"/>
<path d="M22.3947 17.7266H14.8013V18.9641H22.3947V17.7266Z" fill="#343843" stroke="#FCF4EB" stroke-width="0.2" stroke-linecap="round" stroke-linejoin="round"/>
<path d="M42.8966 17.7266H23.9131V18.9641H42.8966V17.7266Z" fill="#E6933B" stroke="#FCF4EB" stroke-width="0.2" stroke-linecap="round" stroke-linejoin="round"/>
<path d="M20.4964 23.5742H14.8013V24.8117H20.4964V23.5742Z" fill="#343843" stroke="#FCF4EB" stroke-width="0.2" stroke-linecap="round" stroke-linejoin="round"/>
<path d="M46.3142 23.5742H38.7207V24.8117H46.3142V23.5742Z" fill="#343843" stroke="#FCF4EB" stroke-width="0.2" stroke-linecap="round" stroke-linejoin="round"/>
<path d="M37.2019 23.5742H22.0151V24.8117H37.2019V23.5742Z" fill="#E6933B" stroke="#FCF4EB" stroke-width="0.2" stroke-linecap="round" stroke-linejoin="round"/>
<path d="M28.0897 20.6504H14.8013V21.8879H28.0897V20.6504Z" fill="#343843" stroke="#FCF4EB" stroke-width="0.2" stroke-linecap="round" stroke-linejoin="round"/>
<path d="M39.1002 20.6504H29.6084V21.8879H39.1002V20.6504Z" fill="#343843" stroke="#FCF4EB" stroke-width="0.2" stroke-linecap="round" stroke-linejoin="round"/>
<path d="M22.7745 26.7607H9.86572V27.9982H22.7745V26.7607Z" fill="#FCF4EB" stroke="#FCF4EB" stroke-width="0.2" stroke-linecap="round" stroke-linejoin="round"/>
<path d="M26.1913 29.6836H14.8013V30.9211H26.1913V29.6836Z" fill="#343843" stroke="#FCF4EB" stroke-width="0.2" stroke-linecap="round" stroke-linejoin="round"/>
<path d="M30.1172 29.6836H27.71V30.9211H30.1172V29.6836Z" fill="#343843" stroke="#FCF4EB" stroke-width="0.2" stroke-linecap="round" stroke-linejoin="round"/>
<path d="M20.4964 35.5312H14.8013V36.7688H20.4964V35.5312Z" fill="#E6933B" stroke="#FCF4EB" stroke-width="0.2" stroke-linecap="round" stroke-linejoin="round"/>
<path d="M46.3138 35.5312H40.6187V36.7688H46.3138V35.5312Z" fill="#E6933B" stroke="#FCF4EB" stroke-width="0.2" stroke-linecap="round" stroke-linejoin="round"/>
<path d="M32.2968 35.5312H22.0151V36.7688H32.2968V35.5312Z" fill="#343843" stroke="#FCF4EB" stroke-width="0.2" stroke-linecap="round" stroke-linejoin="round"/>
<path d="M16.6996 32.6074H14.8013V33.8449H16.6996V32.6074Z" fill="#343843" stroke="#FCF4EB" stroke-width="0.2" stroke-linecap="round" stroke-linejoin="round"/>
<path d="M31.2199 32.6074H18.2183V33.8449H31.2199V32.6074Z" fill="#E6933B" stroke="#FCF4EB" stroke-width="0.2" stroke-linecap="round" stroke-linejoin="round"/>
<path d="M26.1913 38.4541H14.8013V39.6916H26.1913V38.4541Z" fill="#343843" stroke="#FCF4EB" stroke-width="0.2" stroke-linecap="round" stroke-linejoin="round"/>
<path d="M32.8372 38.4541H27.71V39.6916H32.8372V38.4541Z" fill="#343843" stroke="#FCF4EB" stroke-width="0.2" stroke-linecap="round" stroke-linejoin="round"/>
<path d="M16.6996 41.3779H14.8013V42.6154H16.6996V41.3779Z" fill="#343843" stroke="#FCF4EB" stroke-width="0.2" stroke-linecap="round" stroke-linejoin="round"/>
<path d="M33.9399 41.3779H18.2183V42.6154H33.9399V41.3779Z" fill="#E6933B" stroke="#FCF4EB" stroke-width="0.2" stroke-linecap="round" stroke-linejoin="round"/>
<path d="M51.9616 5.25977H51.1074V43.002H51.9616V5.25977Z" fill="#343843" stroke="#FCF4EB" stroke-width="0.2" stroke-linecap="round" stroke-linejoin="round"/>
<path d="M51.9616 27.3789H51.1074V43.0018H51.9616V27.3789Z" fill="#FCF4EB" stroke="#FCF4EB" stroke-width="0.2" stroke-linecap="round" stroke-linejoin="round"/>
<path d="M71.2528 0.802734H60.1313V8.19805H64.217L65.692 9.71663L67.1672 8.19805H71.2528V0.802734Z" fill="white" stroke="#343843" stroke-width="0.2" stroke-linecap="round" stroke-linejoin="round"/>
<path d="M65.203 6.0094L66.6329 2.65879C66.6489 2.62097 66.6852 2.59668 66.7254 2.59668H66.7356C66.8086 2.59668 66.8575 2.67402 66.828 2.74277L65.3879 6.09338C65.3717 6.13096 65.3355 6.15525 65.2955 6.15525C65.2226 6.15525 65.1736 6.07804 65.203 6.0094Z" fill="#343843"/>
<path d="M67.2075 3.22949L69.6612 4.54712L67.2075 5.86462" stroke="#343843" stroke-width="0.2" stroke-linecap="round" stroke-linejoin="round"/>
<path d="M64.2097 3.22949L61.7559 4.54712L64.2097 5.86462" stroke="#343843" stroke-width="0.2" stroke-linecap="round" stroke-linejoin="round"/>
<path d="M10.0581 69.9668H80.3703" stroke="#343843" stroke-width="0.2" stroke-linecap="round" stroke-linejoin="round"/>
<path d="M39.5111 69.9996C35.7118 70.0643 32.4357 67.1089 32.4949 62.9854C32.5202 61.2344 32.737 59.1703 33.9502 57.2106C36.2951 53.4232 42.0244 51.7579 44.7513 48.094C52.3234 37.9198 62.2706 30.8916 70.9356 34.5739C83.1046 39.7454 85.4589 52.5348 83.6905 60.7861C82.5751 65.9908 78.8006 69.9166 73.8778 70.0005L39.5111 69.9996Z" stroke="#D86D94" stroke-width="0.2" stroke-linecap="round" stroke-linejoin="round"/>
<path d="M62.4785 57.9767C62.4785 57.9767 65.5021 53.8191 72.7208 54.6706L62.4785 57.9767Z" fill="white"/>
<path d="M62.4785 57.9767C62.4785 57.9767 65.5021 53.8191 72.7208 54.6706" stroke="#D86D94" stroke-width="0.2" stroke-linecap="round" stroke-linejoin="round"/>
<path d="M69.1451 23.0411C69.3397 24.0049 68.6745 24.3841 68.6401 25.0147C68.6044 25.6673 69.2318 26.1342 68.9257 27.0346C68.6106 27.9611 67.8702 27.9437 67.5273 28.482C67.1844 29.0202 67.2643 29.9474 66.7951 30.3791C66.3326 30.8048 65.449 30.6208 64.8819 30.9146C64.3338 31.1984 63.9542 32.0434 63.325 32.178C62.6957 32.3128 62.0203 31.6936 61.4077 31.6582C60.7738 31.6215 60.0346 32.1528 59.4456 31.9522C58.8481 31.7487 58.5624 30.8656 58.0396 30.5126C57.5167 30.1597 56.8689 30.5263 56.1966 29.759C55.7152 29.2095 55.9618 28.3732 55.6764 27.7894C55.4007 27.2252 54.6544 27.1196 54.4491 26.1868C54.307 25.5415 54.9197 24.8438 54.9541 24.2131C54.9897 23.5606 54.3704 23.0945 54.6685 22.1933C54.9523 21.335 55.724 21.2841 56.0669 20.7459C56.4098 20.2077 55.9876 19.5184 56.799 18.8487C57.4493 18.3119 58.1452 18.607 58.7123 18.3133C59.2604 18.0294 59.0457 17.3116 60.2692 17.0498C60.8985 16.9151 61.6819 17.7543 62.2946 17.7897C62.9284 17.8264 63.2953 17.0355 64.1486 17.2756C65.0779 17.5371 65.0318 18.3622 65.5546 18.7152C66.0774 19.0682 66.853 18.759 67.3976 19.4689C68.0559 20.3267 67.5982 21.0356 67.8835 21.6194C68.1593 22.1836 68.9708 22.1783 69.1451 23.0411Z" fill="#E6933B" stroke="#343843" stroke-width="0.2" stroke-linecap="round" stroke-linejoin="round"/>
<path d="M63.8075 25.8361C64.3337 25.8277 64.7527 25.3737 64.7433 24.8222C64.7344 24.2944 64.3361 23.8695 63.8407 23.8413C63.4482 22.0667 62.0244 20.7323 60.2177 20.7612C58.8594 20.7828 58.3765 21.5456 57.7346 22.6874C57.3949 23.2916 57.4933 26.8349 57.9513 27.5952C58.2577 28.1036 58.806 28.4447 59.6898 28.5943L59.7327 30.6584C59.7327 30.6584 59.6169 32.6511 61.7208 32.5463C63.8549 32.4401 63.8336 30.5103 63.8336 30.5103C63.8336 30.5103 63.7718 26.1023 63.789 25.8355C63.7951 25.8355 63.8011 25.8362 63.8072 25.8362L63.8075 25.8361Z" fill="#FFFDFD" stroke="#343843" stroke-width="0.2" stroke-linecap="round" stroke-linejoin="round"/>
<path d="M61.4819 28.2197L59.7277 30.271L59.6895 28.5946C59.6895 28.5946 60.2624 28.6479 60.7904 28.4914C61.3184 28.3349 61.4819 28.2197 61.4819 28.2197Z" fill="#343843" stroke="#343843" stroke-width="0.2" stroke-linecap="round" stroke-linejoin="round"/>
<path d="M57.3164 23.3649C57.3164 23.3649 58.5183 22.9498 59.2298 21.8874C59.2298 21.8874 59.5359 22.7373 60.8914 22.5996C62.2469 22.462 62.3263 23.039 62.6126 23.5389C62.8988 24.0388 63.8138 23.8479 63.8138 23.8479L65.2606 22.5248L63.1518 19.5605L57.8238 20.167L57.6116 21.8906L57.3165 23.3649H57.3164Z" fill="#E6933B"/>
<path d="M57.3164 23.3652C57.3164 23.3652 58.5183 22.9501 59.2298 21.8877C59.2298 21.8877 59.5359 22.7376 60.8914 22.5999C62.2469 22.4623 62.3263 23.0393 62.6126 23.5392C62.8988 24.0391 63.8784 23.8443 63.8784 23.8443" stroke="#343843" stroke-width="0.2" stroke-linecap="round" stroke-linejoin="round"/>
<path d="M60.5766 24.1388L60.5749 24.1218C60.5759 24.0968 60.5708 24.0736 60.5598 24.052C60.5527 24.0295 60.5405 24.01 60.5234 23.9936C60.5074 23.976 60.4885 23.9634 60.4667 23.9561C60.4457 23.9448 60.4231 23.9396 60.3988 23.9405L60.352 23.9471C60.3222 23.9556 60.2963 23.9712 60.2743 23.9937L60.2467 24.0304C60.2308 24.0587 60.2228 24.0892 60.2227 24.1219L60.2243 24.139C60.2234 24.164 60.2284 24.1872 60.2394 24.2088C60.2465 24.2313 60.2587 24.2507 60.2758 24.2672C60.2918 24.2848 60.3107 24.2974 60.3325 24.3046C60.3535 24.316 60.3761 24.3212 60.4004 24.3202L60.4472 24.3137C60.477 24.3051 60.503 24.2895 60.5249 24.2671L60.5525 24.2303C60.5685 24.202 60.5765 24.1716 60.5766 24.1388Z" fill="#343843"/>
<path d="M58.5302 24.2873L58.5285 24.2702C58.5295 24.2452 58.5244 24.222 58.5134 24.2004C58.5064 24.1779 58.4942 24.1585 58.477 24.142C58.461 24.1244 58.4421 24.1118 58.4203 24.1046C58.3993 24.0932 58.3768 24.088 58.3525 24.089L58.3056 24.0955C58.2758 24.1041 58.2499 24.1197 58.2279 24.1422L58.2003 24.1789C58.1844 24.2072 58.1764 24.2376 58.1763 24.2704L58.1779 24.2874C58.177 24.3124 58.182 24.3356 58.1931 24.3572C58.2001 24.3797 58.2123 24.3992 58.2294 24.4156C58.2454 24.4333 58.2643 24.4458 58.2861 24.4531C58.3072 24.4644 58.3297 24.4696 58.354 24.4687L58.4008 24.4621C58.4306 24.4536 58.4566 24.438 58.4785 24.4155L58.5061 24.3788C58.5221 24.3505 58.5301 24.32 58.5302 24.2873Z" fill="#343843"/>
<path d="M59.2493 25.1621L59.1502 25.6446C59.1319 25.7337 59.207 25.8137 59.2937 25.7972L59.7054 25.7194" stroke="#343843" stroke-width="0.2" stroke-linecap="round" stroke-linejoin="round"/>
<path d="M60.2891 23.5802C60.2891 23.5802 60.8809 23.3655 61.1855 23.7713" stroke="#343843" stroke-width="0.2" stroke-linecap="round" stroke-linejoin="round"/>
<path d="M60.9703 26.1699C60.9703 26.1699 60.7929 26.8338 59.9824 26.7228" stroke="#343843" stroke-width="0.2" stroke-linecap="round" stroke-linejoin="round"/>
<path d="M57.9888 23.8261C57.9888 23.8261 58.4453 23.4423 58.8861 23.6783" stroke="#343843" stroke-width="0.2" stroke-linecap="round" stroke-linejoin="round"/>
<path d="M70.7765 45.9584C70.24 46.1361 69.6907 46.1445 69.1812 46.0164C69.1765 47.2587 69.1718 48.0925 69.1718 48.0925L55.0386 48.0622L55.1536 45.3373L54.6031 46.6799C54.0654 47.7432 52.9479 48.2967 51.8562 48.1493L40.4346 46.4273L41.2363 42.088L50.241 42.1424L53.8975 33.0163C54.0938 32.5262 54.3739 32.0723 54.7458 31.7054C55.277 31.1815 55.9506 30.8269 56.6422 30.7484C56.6422 30.7484 56.9591 30.7291 57.0765 30.7363L59.7318 30.7013C59.7294 30.9937 59.8022 32.6407 61.7203 32.5465C63.5081 32.4583 63.7828 31.0891 63.825 30.6469L66.9357 30.6058C68.0051 30.5937 68.9712 30.9176 69.5311 31.4867C70.0641 32.0281 70.3869 32.8776 70.624 33.6352L72.6384 42.0613L72.6677 42.1567C73.1654 43.7446 72.3179 45.446 70.7766 45.9583L70.7765 45.9584Z" fill="#FDFDFF" stroke="#343843" stroke-width="0.2" stroke-linecap="round" stroke-linejoin="round"/>
<path d="M41.1398 42.6112C41.1398 42.6112 39.2504 42.283 38.724 42.0034C38.4861 41.877 38.0379 41.3054 37.842 41.061C37.646 40.8165 37.2917 40.7066 37.3035 40.9705C37.3057 41.0163 37.3438 41.1166 37.3982 41.2373C37.3749 41.2078 37.3537 41.1794 37.3363 41.1533C36.8752 40.4609 36.4712 40.464 36.481 40.7474C36.4828 40.7973 36.52 40.9001 36.5783 41.0308C36.3152 40.7191 36.0434 40.5073 35.8372 40.7003C35.7497 40.7821 35.8836 41.0856 36.0786 41.4454C36.0373 41.4078 35.9954 41.3749 35.9536 41.3491C35.8221 41.2676 35.6725 41.3019 35.6714 41.4038C35.6678 41.7562 36.205 42.9254 37.116 43.7537C37.2691 43.8931 37.6024 44.1136 38.004 44.3596C37.7019 44.4122 37.3929 44.5207 37.3127 44.7439C37.1919 45.0801 37.5166 45.1102 38.2943 45.0252C38.5126 45.0014 38.8891 45.0349 39.23 45.0775C39.9526 45.4872 40.5373 45.8219 40.5373 45.8219L41.1395 42.6112H41.1398Z" fill="#FFFDFD"/>
<path d="M39.2701 45.0481C39.2701 45.0481 38.7655 44.9732 38.2947 45.0247C37.517 45.1096 37.1923 45.0797 37.3131 44.7435C37.4817 44.274 38.6622 44.3112 38.6622 44.3112" stroke="#343843" stroke-width="0.2" stroke-linecap="round" stroke-linejoin="round"/>
<path d="M40.5379 45.8219C40.5379 45.8219 37.6704 44.2574 37.1164 43.7536C36.2054 42.9252 35.5675 41.7144 35.6718 41.4037C35.7127 41.2818 35.8225 41.2675 35.954 41.3489C35.9872 41.3695 36.0206 41.3945 36.0536 41.4227" fill="white"/>
<path d="M40.5379 45.8219C40.5379 45.8219 37.6704 44.2574 37.1164 43.7536C36.2054 42.9252 35.5675 41.7144 35.6718 41.4037C35.7127 41.2818 35.8225 41.2675 35.954 41.3489C35.9872 41.3695 36.0206 41.3945 36.0536 41.4227" stroke="#343843" stroke-width="0.2" stroke-linecap="round" stroke-linejoin="round"/>
<path d="M37.7854 43.55C37.7854 43.55 37.5346 43.3802 37.3739 43.2668C37.0778 43.058 36.7409 42.6075 36.4709 42.1352C36.1323 41.5427 35.6714 40.8702 35.8371 40.6997C36.0444 40.4863 36.2997 40.6894 36.5782 41.0302" stroke="#343843" stroke-width="0.2" stroke-linecap="round" stroke-linejoin="round"/>
<path d="M38.1344 43.0411C38.1344 43.0411 37.6858 42.7327 37.509 42.5532C37.1838 42.2228 36.489 40.9713 36.4811 40.7474C36.4712 40.464 36.8753 40.461 37.3364 41.1533C37.3539 41.1795 37.3747 41.2076 37.398 41.2374" stroke="#343843" stroke-width="0.2" stroke-linecap="round" stroke-linejoin="round"/>
<path d="M38.4816 42.5766C38.4816 42.5766 37.8866 42.1541 37.7732 41.9628C37.6598 41.7715 37.3103 41.1126 37.304 40.9709C37.292 40.707 37.6464 40.817 37.8425 41.0614C38.0385 41.3059 38.4866 41.8775 38.7245 42.0039C39.2509 42.2835 41.1403 42.6117 41.1403 42.6117L40.5381 45.8224" stroke="#343843" stroke-width="0.2" stroke-linecap="round" stroke-linejoin="round"/>
<path d="M55.1528 45.3376L55.4874 37.3555" stroke="#343843" stroke-width="0.2" stroke-linecap="round" stroke-linejoin="round"/>
<path d="M52.4684 36.8642C53.1089 36.8336 53.5736 36.8345 54.1174 36.8784C54.0174 37.015 53.9045 37.1757 53.8156 37.3198C53.7725 37.3896 53.7495 37.5314 53.7386 37.6873C53.4938 37.6479 53.3288 37.6781 53.2002 37.8419C53.0622 38.0175 53.3343 38.2048 53.7654 38.4151C53.844 38.8015 54.03 38.812 54.1632 38.5991C54.2641 38.6442 54.3683 38.6903 54.4744 38.7377C54.9196 38.9364 57.6177 40.7694 57.6177 40.7694L60.6731 38.0005C59.9122 37.7004 56.2338 36.261 55.3956 36.147C53.8565 35.9378 52.7493 36.2751 52.36 36.4802C52.1771 36.5765 52.2912 36.8727 52.4684 36.8642Z" fill="#FFFDFD"/>
<path d="M53.751 38.4084C53.3279 38.201 53.0638 38.016 53.2002 37.8422C53.3271 37.6806 53.4891 37.6489 53.7283 37.6857" stroke="#343843" stroke-width="0.2" stroke-linecap="round" stroke-linejoin="round"/>
<path d="M54.093 36.8758C53.5592 36.8339 53.0999 36.8341 52.4685 36.8642C52.2914 36.8727 52.1771 36.5765 52.36 36.4802C52.7493 36.2751 53.8565 35.9378 55.3956 36.147C56.2338 36.261 59.9123 37.7004 60.6731 38.0005L57.6177 40.7694C57.6177 40.7694 54.9195 38.9362 54.4744 38.7377C54.3726 38.6923 54.2724 38.648 54.1754 38.6047" stroke="#343843" stroke-width="0.2" stroke-linecap="round" stroke-linejoin="round"/>
<path d="M54.36 36.5576C54.36 36.5576 54.0226 36.9842 53.8156 37.3194C53.7069 37.4953 53.7249 38.1279 53.7456 38.295C53.8164 38.8685 54.0785 38.8323 54.2198 38.4864C54.3526 38.1614 54.3082 37.8721 54.4699 37.5861" stroke="#343843" stroke-width="0.2" stroke-linecap="round" stroke-linejoin="round"/>
<path d="M55.0172 36.6416C55.0172 36.6416 54.6632 37.1674 54.4915 37.5293C54.4026 37.7167 54.458 38.2921 54.515 38.4501C54.6025 38.6925 54.6951 38.7895 54.8519 38.6968C55.0758 38.5646 54.9376 38.0212 55.0993 37.7352C55.2501 37.4684 55.7273 36.7879 55.7273 36.7879" stroke="#343843" stroke-width="0.2" stroke-linecap="round" stroke-linejoin="round"/>
<path d="M55.3389 37.3771C55.1688 37.9192 55.316 38.1375 55.3823 38.2593C55.4952 38.4664 55.6616 38.4403 55.7274 38.2724C55.815 38.0491 55.8696 37.6445 55.944 37.5336C56.0984 37.3031 56.4231 36.9941 56.4231 36.9941" stroke="#343843" stroke-width="0.2" stroke-linecap="round" stroke-linejoin="round"/>
<path d="M69.1806 46.0182C69.0751 45.9916 68.9713 45.9591 68.8697 45.9209L57.2715 41.2271L58.7748 36.4883L66.4654 39.0862L69.1724 39.9747" fill="#FDFDFF"/>
<path d="M69.1806 46.0182C69.0751 45.9916 68.9713 45.9591 68.8697 45.9209L57.2715 41.2271L58.7748 36.4883L66.4654 39.0862L69.1724 39.9747" stroke="#343843" stroke-width="0.2" stroke-linecap="round" stroke-linejoin="round"/>
<path d="M66.6047 39.1328L65.9033 36.5654" stroke="#343843" stroke-width="0.2" stroke-linecap="round" stroke-linejoin="round"/>
<path d="M70.7766 45.9584C70.2402 46.1361 69.1813 46.0164 69.1813 46.0164L69.2371 48.0926L55.0387 48.0622L55.1537 45.3373L54.6032 46.6799C54.0656 47.7432 52.948 48.2967 51.8563 48.1493L40.3735 46.4034L41.1659 42.0875L50.2411 42.1424L53.8976 33.0163C54.094 32.5262 54.374 32.0723 54.7459 31.7054C55.2771 31.1815 55.9508 30.8269 56.6423 30.7484C56.6423 30.7484 56.9592 30.7291 57.0766 30.7363L59.7319 30.7013C59.7295 30.9937 59.8023 32.6407 61.7204 32.5465C63.5082 32.4583 63.7829 31.0891 63.8251 30.6469L66.9359 30.6058C68.0053 30.5937 68.9713 30.9176 69.5313 31.4867C70.0642 32.0281 70.387 32.8776 70.6241 33.6352L72.6385 42.0613L72.6678 42.1567C73.1655 43.7446 72.318 45.446 70.7767 45.9583L70.7766 45.9584Z" fill="#343843"/>
<path d="M55.1465 45.4967L55.4877 37.3555" stroke="#FEFFFF" stroke-width="0.2" stroke-linecap="round" stroke-linejoin="round"/>
<path d="M41.1398 42.6112C41.1398 42.6112 39.2504 42.283 38.724 42.0034C38.4861 41.877 38.0379 41.3054 37.842 41.061C37.646 40.8165 37.2917 40.7066 37.3035 40.9705C37.3057 41.0163 37.3438 41.1166 37.3982 41.2373C37.3749 41.2078 37.3537 41.1794 37.3363 41.1533C36.8752 40.4609 36.4712 40.464 36.481 40.7474C36.4828 40.7973 36.52 40.9001 36.5783 41.0308C36.3152 40.7191 36.0434 40.5073 35.8372 40.7003C35.7497 40.7821 35.8836 41.0856 36.0786 41.4454C36.0373 41.4078 35.9954 41.3749 35.9536 41.3491C35.8221 41.2676 35.6725 41.3019 35.6714 41.4038C35.6678 41.7562 36.205 42.9254 37.116 43.7537C37.2691 43.8931 37.6024 44.1136 38.004 44.3596C37.7019 44.4122 37.3929 44.5207 37.3127 44.7439C37.1919 45.0801 37.5166 45.1102 38.2943 45.0252C38.5126 45.0014 38.8891 45.0349 39.23 45.0775C39.9526 45.4872 40.574 45.8219 40.574 45.8219L41.1395 42.6112H41.1398Z" fill="#FFFDFD"/>
<path d="M39.2701 45.0481C39.2701 45.0481 38.7655 44.9732 38.2947 45.0247C37.517 45.1096 37.1923 45.0797 37.3131 44.7435C37.4817 44.274 38.6622 44.3112 38.6622 44.3112" stroke="#343843" stroke-width="0.2" stroke-linecap="round" stroke-linejoin="round"/>
<path d="M40.5379 45.8219C40.5379 45.8219 37.6704 44.2574 37.1164 43.7536C36.2054 42.9252 35.5675 41.7144 35.6718 41.4037C35.7127 41.2818 35.8225 41.2675 35.954 41.3489C35.9872 41.3695 36.0206 41.3945 36.0536 41.4227" fill="white"/>
<path d="M40.5379 45.8219C40.5379 45.8219 37.6704 44.2574 37.1164 43.7536C36.2054 42.9252 35.5675 41.7144 35.6718 41.4037C35.7127 41.2818 35.8225 41.2675 35.954 41.3489C35.9872 41.3695 36.0206 41.3945 36.0536 41.4227" stroke="#343843" stroke-width="0.2" stroke-linecap="round" stroke-linejoin="round"/>
<path d="M37.7854 43.55C37.7854 43.55 37.5346 43.3802 37.3739 43.2668C37.0778 43.058 36.7409 42.6075 36.4709 42.1352C36.1323 41.5427 35.6714 40.8702 35.8371 40.6997C36.0444 40.4863 36.2997 40.6894 36.5782 41.0302" stroke="#343843" stroke-width="0.2" stroke-linecap="round" stroke-linejoin="round"/>
<path d="M38.1344 43.0411C38.1344 43.0411 37.6858 42.7327 37.509 42.5532C37.1838 42.2228 36.489 40.9713 36.4811 40.7474C36.4712 40.464 36.8753 40.461 37.3364 41.1533C37.3539 41.1795 37.3747 41.2076 37.398 41.2374" stroke="#343843" stroke-width="0.2" stroke-linecap="round" stroke-linejoin="round"/>
<path d="M38.4816 42.5766C38.4816 42.5766 37.8866 42.1541 37.7732 41.9628C37.6598 41.7715 37.3103 41.1126 37.304 40.9709C37.292 40.707 37.6464 40.817 37.8425 41.0614C38.0385 41.3059 38.4866 41.8775 38.7245 42.0039C39.2509 42.2835 41.1403 42.6117 41.1403 42.6117L40.5381 45.8224" stroke="#343843" stroke-width="0.2" stroke-linecap="round" stroke-linejoin="round"/>
<path d="M52.4684 36.8642C53.1089 36.8336 53.5736 36.8345 54.1174 36.8784C54.0174 37.015 53.9045 37.1757 53.8156 37.3198C53.7725 37.3896 53.7495 37.5314 53.7386 37.6873C53.4938 37.6479 53.3288 37.6781 53.2002 37.8419C53.0622 38.0175 53.3343 38.2048 53.7654 38.4151C53.844 38.8015 54.03 38.812 54.1632 38.5991C54.2641 38.6442 54.3683 38.6903 54.4744 38.7377C54.9196 38.9364 57.6177 40.7694 57.6177 40.7694L60.6731 38.0005C59.9122 37.7004 56.2338 36.261 55.3956 36.147C53.8565 35.9378 52.7493 36.2751 52.36 36.4802C52.1771 36.5765 52.2912 36.8727 52.4684 36.8642Z" fill="#FFFDFD"/>
<path d="M53.751 38.4084C53.3279 38.201 53.0638 38.016 53.2002 37.8422C53.3271 37.6806 53.4891 37.6489 53.7283 37.6857" stroke="#343843" stroke-width="0.2" stroke-linecap="round" stroke-linejoin="round"/>
<path d="M54.093 36.8758C53.5592 36.8339 53.0999 36.8341 52.4685 36.8642C52.2914 36.8727 52.1771 36.5765 52.36 36.4802C52.7493 36.2751 53.8565 35.9378 55.3956 36.147C56.2338 36.261 59.9123 37.7004 60.6731 38.0005L57.6177 40.7694C57.6177 40.7694 54.9195 38.9362 54.4744 38.7377C54.3726 38.6923 54.2724 38.648 54.1754 38.6047" stroke="#343843" stroke-width="0.2" stroke-linecap="round" stroke-linejoin="round"/>
<path d="M54.36 36.5576C54.36 36.5576 54.0226 36.9842 53.8156 37.3194C53.7069 37.4953 53.7249 38.1279 53.7456 38.295C53.8164 38.8685 54.0785 38.8323 54.2198 38.4864C54.3526 38.1614 54.3082 37.8721 54.4699 37.5861" stroke="#343843" stroke-width="0.2" stroke-linecap="round" stroke-linejoin="round"/>
<path d="M55.0172 36.6416C55.0172 36.6416 54.6632 37.1674 54.4915 37.5293C54.4026 37.7167 54.458 38.2921 54.515 38.4501C54.6025 38.6925 54.6951 38.7895 54.8519 38.6968C55.0758 38.5646 54.9376 38.0212 55.0993 37.7352C55.2501 37.4684 55.7273 36.7879 55.7273 36.7879" stroke="#343843" stroke-width="0.2" stroke-linecap="round" stroke-linejoin="round"/>
<path d="M55.3389 37.3771C55.1688 37.9192 55.316 38.1375 55.3823 38.2593C55.4952 38.4664 55.6616 38.4403 55.7274 38.2724C55.815 38.0491 55.8696 37.6445 55.944 37.5336C56.0984 37.3031 56.4231 36.9941 56.4231 36.9941" stroke="#343843" stroke-width="0.2" stroke-linecap="round" stroke-linejoin="round"/>
<path d="M69.1806 46.0182C69.0751 45.9916 68.9713 45.9591 68.8697 45.9209L57.2715 41.2271L58.7748 36.4883L66.4654 39.0862L69.1724 39.9747" fill="#343843"/>
<path d="M69.1806 46.0182C69.0751 45.9916 68.9713 45.9591 68.8697 45.9209L57.2715 41.2271L58.7748 36.4883L66.4654 39.0862L69.1724 39.9747" stroke="#FEFFFF" stroke-width="0.2" stroke-linecap="round" stroke-linejoin="round"/>
<path d="M66.6047 39.1328L65.9033 36.5654" stroke="#FEFFFF" stroke-width="0.2" stroke-linecap="round" stroke-linejoin="round"/>
<path d="M70.7765 45.9584C70.24 46.1361 69.6907 46.1445 69.1812 46.0164C69.1765 47.2587 69.1718 48.0925 69.1718 48.0925L55.0386 48.0622L55.1536 45.3373L54.6031 46.6799C54.0654 47.7432 52.9479 48.2967 51.8562 48.1493L40.4346 46.4273L41.2363 42.088L50.241 42.1424L53.8975 33.0163C54.0938 32.5262 54.3739 32.0723 54.7458 31.7054C55.277 31.1815 55.9506 30.8269 56.6422 30.7484C56.6422 30.7484 56.9591 30.7291 57.0765 30.7363L59.7318 30.7013C59.7294 30.9937 59.8022 32.6407 61.7203 32.5465C63.5081 32.4583 63.7828 31.0891 63.825 30.6469L66.9357 30.6058C68.0051 30.5937 68.9712 30.9176 69.5311 31.4867C70.0641 32.0281 70.3869 32.8776 70.624 33.6352L72.6384 42.0613L72.6677 42.1567C73.1654 43.7446 72.3179 45.446 70.7766 45.9583L70.7765 45.9584Z" fill="#FDFDFF" stroke="#343843" stroke-width="0.2" stroke-linecap="round" stroke-linejoin="round"/>
<path d="M61.3983 32.5459L61.3867 48.0765" stroke="#343843" stroke-width="0.2" stroke-linecap="round" stroke-linejoin="round"/>
<path d="M61.4034 32.551C61.4034 32.551 60.8153 33.9636 59.7354 33.195C58.4805 32.3021 59.7319 30.7021 59.7319 30.7021C59.7295 30.9777 59.7941 32.4519 61.3987 32.5461L61.4034 32.551Z" fill="#E6933B" stroke="#343843" stroke-width="0.2" stroke-linecap="round" stroke-linejoin="round"/>
<path d="M63.0432 33.5004C61.7226 33.9306 61.4033 32.5506 61.4033 32.5506L61.4092 32.5458C61.5066 32.5518 61.6111 32.5518 61.7203 32.547C63.4623 32.46 63.7686 31.1586 63.8226 30.6837L63.8426 30.668C64.2405 31.0824 64.3638 33.0714 63.0432 33.5004Z" fill="#E6933B" stroke="#343843" stroke-width="0.2" stroke-linecap="round" stroke-linejoin="round"/>
<path d="M41.1398 42.6112C41.1398 42.6112 39.2504 42.283 38.724 42.0034C38.4861 41.877 38.0379 41.3054 37.842 41.061C37.646 40.8165 37.2917 40.7066 37.3035 40.9705C37.3057 41.0163 37.3438 41.1166 37.3982 41.2373C37.3749 41.2078 37.3537 41.1794 37.3363 41.1533C36.8752 40.4609 36.4712 40.464 36.481 40.7474C36.4828 40.7973 36.52 40.9001 36.5783 41.0308C36.3152 40.7191 36.0434 40.5073 35.8372 40.7003C35.7497 40.7821 35.8836 41.0856 36.0786 41.4454C36.0373 41.4078 35.9954 41.3749 35.9536 41.3491C35.8221 41.2676 35.6725 41.3019 35.6714 41.4038C35.6678 41.7562 36.205 42.9254 37.116 43.7537C37.2691 43.8931 37.6024 44.1136 38.004 44.3596C37.7019 44.4122 37.3929 44.5207 37.3127 44.7439C37.1919 45.0801 37.5166 45.1102 38.2943 45.0252C38.5126 45.0014 38.8891 45.0349 39.23 45.0775C39.9526 45.4872 40.5373 45.8219 40.5373 45.8219L41.1395 42.6112H41.1398Z" fill="#FFFDFD"/>
<path d="M39.2701 45.0481C39.2701 45.0481 38.7655 44.9732 38.2947 45.0247C37.517 45.1096 37.1923 45.0797 37.3131 44.7435C37.4817 44.274 38.6622 44.3112 38.6622 44.3112" stroke="#343843" stroke-width="0.2" stroke-linecap="round" stroke-linejoin="round"/>
<path d="M40.5379 45.8219C40.5379 45.8219 37.6704 44.2574 37.1164 43.7536C36.2054 42.9252 35.5675 41.7144 35.6718 41.4037C35.7127 41.2818 35.8225 41.2675 35.954 41.3489C35.9872 41.3695 36.0206 41.3945 36.0536 41.4227" fill="white"/>
<path d="M40.5379 45.8219C40.5379 45.8219 37.6704 44.2574 37.1164 43.7536C36.2054 42.9252 35.5675 41.7144 35.6718 41.4037C35.7127 41.2818 35.8225 41.2675 35.954 41.3489C35.9872 41.3695 36.0206 41.3945 36.0536 41.4227" stroke="#343843" stroke-width="0.2" stroke-linecap="round" stroke-linejoin="round"/>
<path d="M37.7854 43.55C37.7854 43.55 37.5346 43.3802 37.3739 43.2668C37.0778 43.058 36.7409 42.6075 36.4709 42.1352C36.1323 41.5427 35.6714 40.8702 35.8371 40.6997C36.0444 40.4863 36.2997 40.6894 36.5782 41.0302" stroke="#343843" stroke-width="0.2" stroke-linecap="round" stroke-linejoin="round"/>
<path d="M38.1344 43.0411C38.1344 43.0411 37.6858 42.7327 37.509 42.5532C37.1838 42.2228 36.489 40.9713 36.4811 40.7474C36.4712 40.464 36.8753 40.461 37.3364 41.1533C37.3539 41.1795 37.3747 41.2076 37.398 41.2374" stroke="#343843" stroke-width="0.2" stroke-linecap="round" stroke-linejoin="round"/>
<path d="M38.4816 42.5766C38.4816 42.5766 37.8866 42.1541 37.7732 41.9628C37.6598 41.7715 37.3103 41.1126 37.304 40.9709C37.292 40.707 37.6464 40.817 37.8425 41.0614C38.0385 41.3059 38.4866 41.8775 38.7245 42.0039C39.2509 42.2835 41.1403 42.6117 41.1403 42.6117L40.5381 45.8224" stroke="#343843" stroke-width="0.2" stroke-linecap="round" stroke-linejoin="round"/>
<path d="M55.1528 45.3376L55.4874 37.3555" stroke="#343843" stroke-width="0.2" stroke-linecap="round" stroke-linejoin="round"/>
<path d="M52.4684 36.8642C53.1089 36.8336 53.5736 36.8345 54.1174 36.8784C54.0174 37.015 53.9045 37.1757 53.8156 37.3198C53.7725 37.3896 53.7495 37.5314 53.7386 37.6873C53.4938 37.6479 53.3288 37.6781 53.2002 37.8419C53.0622 38.0175 53.3343 38.2048 53.7654 38.4151C53.844 38.8015 54.03 38.812 54.1632 38.5991C54.2641 38.6442 54.3683 38.6903 54.4744 38.7377C54.9196 38.9364 57.6177 40.7694 57.6177 40.7694L60.6731 38.0005C59.9122 37.7004 56.2338 36.261 55.3956 36.147C53.8565 35.9378 52.7493 36.2751 52.36 36.4802C52.1771 36.5765 52.2912 36.8727 52.4684 36.8642Z" fill="#FFFDFD"/>
<path d="M53.751 38.4084C53.3279 38.201 53.0638 38.016 53.2002 37.8422C53.3271 37.6806 53.4891 37.6489 53.7283 37.6857" stroke="#343843" stroke-width="0.2" stroke-linecap="round" stroke-linejoin="round"/>
<path d="M54.093 36.8758C53.5592 36.8339 53.0999 36.8341 52.4685 36.8642C52.2914 36.8727 52.1771 36.5765 52.36 36.4802C52.7493 36.2751 53.8565 35.9378 55.3956 36.147C56.2338 36.261 59.9123 37.7004 60.6731 38.0005L57.6177 40.7694C57.6177 40.7694 54.9195 38.9362 54.4744 38.7377C54.3726 38.6923 54.2724 38.648 54.1754 38.6047" stroke="#343843" stroke-width="0.2" stroke-linecap="round" stroke-linejoin="round"/>
<path d="M54.36 36.5576C54.36 36.5576 54.0226 36.9842 53.8156 37.3194C53.7069 37.4953 53.7249 38.1279 53.7456 38.295C53.8164 38.8685 54.0785 38.8323 54.2198 38.4864C54.3526 38.1614 54.3082 37.8721 54.4699 37.5861" stroke="#343843" stroke-width="0.2" stroke-linecap="round" stroke-linejoin="round"/>
<path d="M55.0172 36.6416C55.0172 36.6416 54.6632 37.1674 54.4915 37.5293C54.4026 37.7167 54.458 38.2921 54.515 38.4501C54.6025 38.6925 54.6951 38.7895 54.8519 38.6968C55.0758 38.5646 54.9376 38.0212 55.0993 37.7352C55.2501 37.4684 55.7273 36.7879 55.7273 36.7879" stroke="#343843" stroke-width="0.2" stroke-linecap="round" stroke-linejoin="round"/>
<path d="M55.3389 37.3771C55.1688 37.9192 55.316 38.1375 55.3823 38.2593C55.4952 38.4664 55.6616 38.4403 55.7274 38.2724C55.815 38.0491 55.8696 37.6445 55.944 37.5336C56.0984 37.3031 56.4231 36.9941 56.4231 36.9941" stroke="#343843" stroke-width="0.2" stroke-linecap="round" stroke-linejoin="round"/>
<path d="M69.1806 46.0182C69.0751 45.9916 68.9713 45.9591 68.8697 45.9209L57.2715 41.2271L58.7748 36.4883L66.4654 39.0862L69.1724 39.9747" fill="#FDFDFF"/>
<path d="M69.1806 46.0182C69.0751 45.9916 68.9713 45.9591 68.8697 45.9209L57.2715 41.2271L58.7748 36.4883L66.4654 39.0862L69.1724 39.9747" stroke="#343843" stroke-width="0.2" stroke-linecap="round" stroke-linejoin="round"/>
<path d="M66.6047 39.1328L65.9033 36.5654" stroke="#343843" stroke-width="0.2" stroke-linecap="round" stroke-linejoin="round"/>
<path d="M72.6492 42.0979L72.6381 42.0626L70.6239 33.6357C70.3864 32.8779 70.0638 32.0285 69.5311 31.4869C68.9714 30.9178 68.005 30.5949 66.9361 30.6068L63.681 30.6499L61.5678 31.8125L59.7316 30.7022L57.0765 30.7374C56.9591 30.7304 56.6418 30.7496 56.6418 30.7496C55.9508 30.8284 55.2773 31.1826 54.7463 31.7061C54.3744 32.0729 54.0942 32.5269 53.8978 33.017L50.241 42.1426L41.2368 42.0886L40.4351 46.4279L51.8566 48.15C52.9478 48.297 54.0658 47.7436 54.6035 46.6803L55.1532 45.3378L55.0389 48.0635L69.1723 48.0938C69.1723 48.0938 69.1763 47.2589 69.1811 46.0168C69.7774 46.1669 70.4284 46.1303 71.0477 45.8537C72.4416 45.231 73.1158 43.5866 72.6492 42.0979Z" fill="#FDFDFF" stroke="#343843" stroke-width="0.2" stroke-linecap="round" stroke-linejoin="round"/>
<path d="M61.5674 31.8125L61.5195 36.1221" stroke="#343843" stroke-width="0.2" stroke-linecap="round" stroke-linejoin="round"/>
<path d="M63.8916 29.7598L64.4646 30.6084L62.8029 33.3798L61.5674 31.8123L63.8916 29.7598Z" fill="#FDFDFF" stroke="#343843" stroke-width="0.2" stroke-linecap="round" stroke-linejoin="round"/>
<path d="M61.568 31.8118L60.2563 33.237L59.0845 30.7026L59.6684 29.9102L61.568 31.8118Z" fill="#FDFDFF" stroke="#343843" stroke-width="0.2" stroke-linecap="round" stroke-linejoin="round"/>
<path d="M41.1398 42.6112C41.1398 42.6112 39.2504 42.283 38.724 42.0034C38.4861 41.877 38.0379 41.3054 37.842 41.061C37.646 40.8165 37.2917 40.7066 37.3035 40.9705C37.3057 41.0163 37.3438 41.1166 37.3982 41.2373C37.3749 41.2078 37.3537 41.1794 37.3363 41.1533C36.8752 40.4609 36.4712 40.464 36.481 40.7474C36.4828 40.7973 36.52 40.9001 36.5783 41.0308C36.3152 40.7191 36.0434 40.5073 35.8372 40.7003C35.7497 40.7821 35.8836 41.0856 36.0786 41.4454C36.0373 41.4078 35.9954 41.3749 35.9536 41.3491C35.8221 41.2676 35.6725 41.3019 35.6714 41.4038C35.6678 41.7562 36.205 42.9254 37.116 43.7537C37.2691 43.8931 37.6024 44.1136 38.004 44.3596C37.7019 44.4122 37.3929 44.5207 37.3127 44.7439C37.1919 45.0801 37.5166 45.1102 38.2943 45.0252C38.5126 45.0014 38.8891 45.0349 39.23 45.0775C39.9526 45.4872 40.5433 45.7902 40.5433 45.7902L41.1395 42.6113L41.1398 42.6112Z" fill="#FFFDFD"/>
<path d="M39.2701 45.0481C39.2701 45.0481 38.7655 44.9732 38.2947 45.0247C37.517 45.1096 37.1923 45.0797 37.3131 44.7435C37.4817 44.274 38.6622 44.3112 38.6622 44.3112" stroke="#343843" stroke-width="0.2" stroke-linecap="round" stroke-linejoin="round"/>
<path d="M40.5379 45.8219C40.5379 45.8219 37.6704 44.2574 37.1164 43.7536C36.2054 42.9252 35.5675 41.7144 35.6718 41.4037C35.7127 41.2818 35.8225 41.2675 35.954 41.3489C35.9872 41.3695 36.0206 41.3945 36.0536 41.4227" fill="white"/>
<path d="M40.5379 45.8219C40.5379 45.8219 37.6704 44.2574 37.1164 43.7536C36.2054 42.9252 35.5675 41.7144 35.6718 41.4037C35.7127 41.2818 35.8225 41.2675 35.954 41.3489C35.9872 41.3695 36.0206 41.3945 36.0536 41.4227" stroke="#343843" stroke-width="0.2" stroke-linecap="round" stroke-linejoin="round"/>
<path d="M37.7854 43.55C37.7854 43.55 37.5346 43.3802 37.3739 43.2668C37.0778 43.058 36.7409 42.6075 36.4709 42.1352C36.1323 41.5427 35.6714 40.8702 35.8371 40.6997C36.0444 40.4863 36.2997 40.6894 36.5782 41.0302" stroke="#343843" stroke-width="0.2" stroke-linecap="round" stroke-linejoin="round"/>
<path d="M38.1344 43.0411C38.1344 43.0411 37.6858 42.7327 37.509 42.5532C37.1838 42.2228 36.489 40.9713 36.4811 40.7474C36.4712 40.464 36.8753 40.461 37.3364 41.1533C37.3539 41.1795 37.3747 41.2076 37.398 41.2374" stroke="#343843" stroke-width="0.2" stroke-linecap="round" stroke-linejoin="round"/>
<path d="M38.4816 42.5766C38.4816 42.5766 37.8866 42.1541 37.7732 41.9628C37.6598 41.7715 37.3103 41.1126 37.304 40.9709C37.292 40.707 37.6464 40.817 37.8425 41.0614C38.0385 41.3059 38.4866 41.8775 38.7245 42.0039C39.2509 42.2835 41.1403 42.6117 41.1403 42.6117L40.5381 45.8224" stroke="#343843" stroke-width="0.2" stroke-linecap="round" stroke-linejoin="round"/>
<path d="M55.1528 45.3376L55.4874 37.3555" stroke="#343843" stroke-width="0.2" stroke-linecap="round" stroke-linejoin="round"/>
<path d="M52.4684 36.8642C53.1089 36.8336 53.5736 36.8345 54.1174 36.8784C54.0174 37.015 53.9045 37.1757 53.8156 37.3198C53.7725 37.3896 53.7495 37.5314 53.7386 37.6873C53.4938 37.6479 53.3288 37.6781 53.2002 37.8419C53.0622 38.0175 53.3343 38.2048 53.7654 38.4151C53.844 38.8015 54.03 38.812 54.1632 38.5991C54.2641 38.6442 54.3683 38.6903 54.4744 38.7377C54.9196 38.9364 57.6177 40.7694 57.6177 40.7694L60.6731 38.0005C59.9122 37.7004 56.2338 36.261 55.3956 36.147C53.8565 35.9378 52.7493 36.2751 52.36 36.4802C52.1771 36.5765 52.2912 36.8727 52.4684 36.8642Z" fill="#FFFDFD"/>
<path d="M53.751 38.4084C53.3279 38.201 53.0638 38.016 53.2002 37.8422C53.3271 37.6806 53.4891 37.6489 53.7283 37.6857" stroke="#343843" stroke-width="0.2" stroke-linecap="round" stroke-linejoin="round"/>
<path d="M54.093 36.8758C53.5592 36.8339 53.0999 36.8341 52.4685 36.8642C52.2914 36.8727 52.1771 36.5765 52.36 36.4802C52.7493 36.2751 53.8565 35.9378 55.3956 36.147C56.2338 36.261 59.9123 37.7004 60.6731 38.0005L57.6177 40.7694C57.6177 40.7694 54.9195 38.9362 54.4744 38.7377C54.3726 38.6923 54.2724 38.648 54.1754 38.6047" stroke="#343843" stroke-width="0.2" stroke-linecap="round" stroke-linejoin="round"/>
<path d="M54.36 36.5576C54.36 36.5576 54.0226 36.9842 53.8156 37.3194C53.7069 37.4953 53.7249 38.1279 53.7456 38.295C53.8164 38.8685 54.0785 38.8323 54.2198 38.4864C54.3526 38.1614 54.3082 37.8721 54.4699 37.5861" stroke="#343843" stroke-width="0.2" stroke-linecap="round" stroke-linejoin="round"/>
<path d="M55.0172 36.6416C55.0172 36.6416 54.6632 37.1674 54.4915 37.5293C54.4026 37.7167 54.458 38.2921 54.515 38.4501C54.6025 38.6925 54.6951 38.7895 54.8519 38.6968C55.0758 38.5646 54.9376 38.0212 55.0993 37.7352C55.2501 37.4684 55.7273 36.7879 55.7273 36.7879" stroke="#343843" stroke-width="0.2" stroke-linecap="round" stroke-linejoin="round"/>
<path d="M55.3389 37.3771C55.1688 37.9192 55.316 38.1375 55.3823 38.2593C55.4952 38.4664 55.6616 38.4403 55.7274 38.2724C55.815 38.0491 55.8696 37.6445 55.944 37.5336C56.0984 37.3031 56.4231 36.9941 56.4231 36.9941" stroke="#343843" stroke-width="0.2" stroke-linecap="round" stroke-linejoin="round"/>
<path d="M69.1806 46.0182C69.0751 45.9916 68.9713 45.9591 68.8697 45.9209L57.2715 41.2271L58.7748 36.4883L66.4654 39.0862L69.1724 39.9747" fill="#FDFDFF"/>
<path d="M69.1806 46.0182C69.0751 45.9916 68.9713 45.9591 68.8697 45.9209L57.2715 41.2271L58.7748 36.4883L66.4654 39.0862L69.1724 39.9747" stroke="#343843" stroke-width="0.2" stroke-linecap="round" stroke-linejoin="round"/>
<path d="M66.6047 39.1328L65.9033 36.5654" stroke="#343843" stroke-width="0.2" stroke-linecap="round" stroke-linejoin="round"/>
<path d="M70.7766 45.9584C70.2402 46.1361 69.1813 46.0164 69.1813 46.0164L69.2397 48.1262L55.0387 48.0622L55.1537 45.3373L54.6032 46.6799C54.0656 47.7432 52.948 48.2967 51.8563 48.1493L40.3735 46.4034L41.1659 42.0875L50.2411 42.1424L53.8976 33.0163C54.094 32.5262 54.374 32.0723 54.7459 31.7054C55.2771 31.1815 55.9508 30.8269 56.6423 30.7484C56.6423 30.7484 56.9592 30.7291 57.0766 30.7363L59.7319 30.7013L61.5678 31.8115L63.8251 30.6469L66.9359 30.6058C68.0053 30.5937 68.9713 30.9176 69.5313 31.4867C70.0642 32.0281 70.387 32.8776 70.6241 33.6352L72.6385 42.0613L72.6678 42.1567C73.1655 43.7446 72.318 45.446 70.7767 45.9583L70.7766 45.9584Z" fill="#5976C6"/>
<path d="M55.1465 45.4967L55.4877 37.3555" stroke="#D86D94" stroke-width="0.2" stroke-linecap="round" stroke-linejoin="round"/>
<path d="M35.5714 42.3312H50.71L48.274 30.7565C48.2205 30.5019 48.0017 30.3203 47.7486 30.3203H33.7102C33.3674 30.3203 33.1121 30.6461 33.1848 30.991L35.5715 42.3312H35.5714Z" fill="#343843" stroke="#343843" stroke-width="0.2" stroke-linecap="round" stroke-linejoin="round"/>
<path d="M35.61 42.3312H49.3776C49.8048 42.3312 50.1229 41.9252 50.0324 41.4955L47.7722 30.7565C47.7187 30.5019 47.4999 30.3203 47.2468 30.3203H33.0866C32.8064 30.3203 32.5977 30.5866 32.6571 30.8686L34.9552 41.7875C35.022 42.1048 35.2947 42.3312 35.61 42.3312Z" fill="#E6933B" stroke="#343843" stroke-width="0.2" stroke-linecap="round" stroke-linejoin="round"/>
<path d="M35.1528 42.3311H56.376C56.5753 42.3311 56.7368 42.1648 56.7368 41.9597C56.7368 41.7545 56.5753 41.5883 56.376 41.5883H35.1528C34.9535 41.5883 34.792 41.7545 34.792 41.9597C34.792 42.1648 34.9535 42.3311 35.1528 42.3311Z" fill="#343843" stroke="#343843" stroke-width="0.2" stroke-linecap="round" stroke-linejoin="round"/>
<path d="M35.1528 42.3311H56.376C56.5753 42.3311 56.7368 42.1648 56.7368 41.9597C56.7368 41.7545 56.5753 41.5883 56.376 41.5883H35.1528C34.9535 41.5883 34.792 41.7545 34.792 41.9597C34.792 42.1648 34.9535 42.3311 35.1528 42.3311Z" stroke="#FEFFFF" stroke-width="0.2" stroke-linecap="round" stroke-linejoin="round"/>
<path d="M35.1527 42.3311H49.8579C50.0572 42.3311 50.2188 42.1648 50.2188 41.9597C50.2188 41.7545 50.0572 41.5883 49.8579 41.5883H35.1527C34.9534 41.5883 34.7919 41.7545 34.7919 41.9597C34.7919 42.1648 34.9534 42.3311 35.1527 42.3311Z" fill="#E6933B" stroke="#343843" stroke-width="0.2" stroke-linecap="round" stroke-linejoin="round"/>
<path d="M41.1081 37.3943C41.672 37.3943 42.1292 36.9237 42.1292 36.3432C42.1292 35.7626 41.672 35.292 41.1081 35.292C40.5441 35.292 40.0869 35.7626 40.0869 36.3432C40.0869 36.9237 40.5441 37.3943 41.1081 37.3943Z" fill="white" stroke="#343843" stroke-width="0.2" stroke-linecap="round" stroke-linejoin="round"/>
<path d="M63.8916 29.7598L64.5112 30.6774L62.8029 33.3798L61.5674 31.8123L63.8916 29.7598Z" fill="#FDFDFF" stroke="#343843" stroke-width="0.2" stroke-linecap="round" stroke-linejoin="round"/>
<path d="M61.5675 31.8118L60.2558 33.237L59.041 30.7609L59.6679 29.9102L61.5675 31.8118Z" fill="#FDFDFF" stroke="#343843" stroke-width="0.2" stroke-linecap="round" stroke-linejoin="round"/>
<path d="M41.1398 42.6112C41.1398 42.6112 39.2504 42.283 38.724 42.0034C38.4861 41.877 38.0379 41.3054 37.842 41.061C37.646 40.8165 37.2917 40.7066 37.3035 40.9705C37.3057 41.0163 37.3438 41.1166 37.3982 41.2373C37.3749 41.2078 37.3537 41.1794 37.3363 41.1533C36.8752 40.4609 36.4712 40.464 36.481 40.7474C36.4828 40.7973 36.52 40.9001 36.5783 41.0308C36.3152 40.7191 36.0434 40.5073 35.8372 40.7003C35.7497 40.7821 35.8836 41.0856 36.0786 41.4454C36.0373 41.4078 35.9954 41.3749 35.9536 41.3491C35.8221 41.2676 35.6725 41.3019 35.6714 41.4038C35.6678 41.7562 36.205 42.9254 37.116 43.7537C37.2691 43.8931 37.6024 44.1136 38.004 44.3596C37.7019 44.4122 37.3929 44.5207 37.3127 44.7439C37.1919 45.0801 37.5166 45.1102 38.2943 45.0252C38.5126 45.0014 38.8891 45.0349 39.23 45.0775C39.9526 45.4872 40.574 45.8219 40.574 45.8219L41.1395 42.6112H41.1398Z" fill="#FFFDFD"/>
<path d="M39.2701 45.0481C39.2701 45.0481 38.7655 44.9732 38.2947 45.0247C37.517 45.1096 37.1923 45.0797 37.3131 44.7435C37.4817 44.274 38.6622 44.3112 38.6622 44.3112" stroke="#343843" stroke-width="0.2" stroke-linecap="round" stroke-linejoin="round"/>
<path d="M40.5379 45.8219C40.5379 45.8219 37.6704 44.2574 37.1164 43.7536C36.2054 42.9252 35.5675 41.7144 35.6718 41.4037C35.7127 41.2818 35.8225 41.2675 35.954 41.3489C35.9872 41.3695 36.0206 41.3945 36.0536 41.4227" fill="white"/>
<path d="M40.5379 45.8219C40.5379 45.8219 37.6704 44.2574 37.1164 43.7536C36.2054 42.9252 35.5675 41.7144 35.6718 41.4037C35.7127 41.2818 35.8225 41.2675 35.954 41.3489C35.9872 41.3695 36.0206 41.3945 36.0536 41.4227" stroke="#343843" stroke-width="0.2" stroke-linecap="round" stroke-linejoin="round"/>
<path d="M37.7854 43.55C37.7854 43.55 37.5346 43.3802 37.3739 43.2668C37.0778 43.058 36.7409 42.6075 36.4709 42.1352C36.1323 41.5427 35.6714 40.8702 35.8371 40.6997C36.0444 40.4863 36.2997 40.6894 36.5782 41.0302" stroke="#343843" stroke-width="0.2" stroke-linecap="round" stroke-linejoin="round"/>
<path d="M38.1344 43.0411C38.1344 43.0411 37.6858 42.7327 37.509 42.5532C37.1838 42.2228 36.489 40.9713 36.4811 40.7474C36.4712 40.464 36.8753 40.461 37.3364 41.1533C37.3539 41.1795 37.3747 41.2076 37.398 41.2374" stroke="#343843" stroke-width="0.2" stroke-linecap="round" stroke-linejoin="round"/>
<path d="M38.4816 42.5766C38.4816 42.5766 37.8866 42.1541 37.7732 41.9628C37.6598 41.7715 37.3103 41.1126 37.304 40.9709C37.292 40.707 37.6464 40.817 37.8425 41.0614C38.0385 41.3059 38.4866 41.8775 38.7245 42.0039C39.2509 42.2835 41.1403 42.6117 41.1403 42.6117L40.5381 45.8224" stroke="#343843" stroke-width="0.2" stroke-linecap="round" stroke-linejoin="round"/>
<path d="M52.4684 36.8642C53.1089 36.8336 53.5736 36.8345 54.1174 36.8784C54.0174 37.015 53.9045 37.1757 53.8156 37.3198C53.7725 37.3896 53.7495 37.5314 53.7386 37.6873C53.4938 37.6479 53.3288 37.6781 53.2002 37.8419C53.0622 38.0175 53.3343 38.2048 53.7654 38.4151C53.844 38.8015 54.03 38.812 54.1632 38.5991C54.2641 38.6442 54.3683 38.6903 54.4744 38.7377C54.9196 38.9364 57.6177 40.7694 57.6177 40.7694L60.6731 38.0005C59.9122 37.7004 56.2338 36.261 55.3956 36.147C53.8565 35.9378 52.7493 36.2751 52.36 36.4802C52.1771 36.5765 52.2912 36.8727 52.4684 36.8642Z" fill="#FFFDFD"/>
<path d="M53.751 38.4084C53.3279 38.201 53.0638 38.016 53.2002 37.8422C53.3271 37.6806 53.4891 37.6489 53.7283 37.6857" stroke="#343843" stroke-width="0.2" stroke-linecap="round" stroke-linejoin="round"/>
<path d="M54.093 36.8758C53.5592 36.8339 53.0999 36.8341 52.4685 36.8642C52.2914 36.8727 52.1771 36.5765 52.36 36.4802C52.7493 36.2751 53.8565 35.9378 55.3956 36.147C56.2338 36.261 59.9123 37.7004 60.6731 38.0005L57.6177 40.7694C57.6177 40.7694 54.9195 38.9362 54.4744 38.7377C54.3726 38.6923 54.2724 38.648 54.1754 38.6047" stroke="#343843" stroke-width="0.2" stroke-linecap="round" stroke-linejoin="round"/>
<path d="M54.36 36.5576C54.36 36.5576 54.0226 36.9842 53.8156 37.3194C53.7069 37.4953 53.7249 38.1279 53.7456 38.295C53.8164 38.8685 54.0785 38.8323 54.2198 38.4864C54.3526 38.1614 54.3082 37.8721 54.4699 37.5861" stroke="#343843" stroke-width="0.2" stroke-linecap="round" stroke-linejoin="round"/>
<path d="M55.0172 36.6416C55.0172 36.6416 54.6632 37.1674 54.4915 37.5293C54.4026 37.7167 54.458 38.2921 54.515 38.4501C54.6025 38.6925 54.6951 38.7895 54.8519 38.6968C55.0758 38.5646 54.9376 38.0212 55.0993 37.7352C55.2501 37.4684 55.7273 36.7879 55.7273 36.7879" stroke="#343843" stroke-width="0.2" stroke-linecap="round" stroke-linejoin="round"/>
<path d="M55.3389 37.3771C55.1688 37.9192 55.316 38.1375 55.3823 38.2593C55.4952 38.4664 55.6616 38.4403 55.7274 38.2724C55.815 38.0491 55.8696 37.6445 55.944 37.5336C56.0984 37.3031 56.4231 36.9941 56.4231 36.9941" stroke="#343843" stroke-width="0.2" stroke-linecap="round" stroke-linejoin="round"/>
<path d="M69.1806 46.0182C69.0751 45.9916 68.9713 45.9591 68.8697 45.9209L57.2715 41.2271L58.7748 36.4883L66.4654 39.0862L69.1724 39.9747" fill="#343843"/>
<path d="M69.1806 46.0182C69.0751 45.9916 68.9713 45.9591 68.8697 45.9209L57.2715 41.2271L58.7748 36.4883L66.4654 39.0862L69.1724 39.9747" fill="#5976C6"/>
<path d="M69.1806 46.0182C69.0751 45.9916 68.9713 45.9591 68.8697 45.9209L57.2715 41.2271L58.7748 36.4883L66.4654 39.0862L69.1724 39.9747" stroke="#D86D94" stroke-width="0.2" stroke-linecap="round" stroke-linejoin="round"/>
<path d="M66.6047 39.1328L65.9033 36.5654" stroke="#D86D94" stroke-width="0.2" stroke-linecap="round" stroke-linejoin="round"/>
<path d="M24.6821 70.0002H30.8816L31.4856 69.2231C31.4856 69.2231 31.6409 69.6486 31.7887 70.0002H33.3124L33.4098 66.0199L28.7626 65.9141C28.7626 65.9141 27.9157 67.9422 26.3672 68.0745C23.9237 68.2839 24.6821 70.0002 24.6821 70.0002Z" fill="#343843" stroke="#343843" stroke-width="0.2" stroke-linecap="round" stroke-linejoin="round"/>
<path d="M14.8976 62.5292L18.2535 67.8953L19.2151 67.9974C19.2151 67.9974 18.9516 68.3621 18.7444 68.6804L19.5692 69.9992L22.873 67.929L20.4438 63.8494C20.4438 63.8494 18.3288 64.2142 17.3825 62.9456C15.8888 60.9439 14.8975 62.5294 14.8975 62.5294L14.8976 62.5292Z" fill="#343843" stroke="#343843" stroke-width="0.2" stroke-linecap="round" stroke-linejoin="round"/>
<path d="M61.7649 56.6081C60.8747 56.593 50.0504 56.1338 45.4057 56.127L22.404 69.0742L19.5488 63.304L43.6925 46.7266C43.6925 46.7266 61.3351 47.696 61.0427 47.9283" fill="#B6D0BB"/>
<path d="M61.7649 56.6081C60.8747 56.593 50.0504 56.1338 45.4057 56.127L22.404 69.0742L19.5488 63.304L43.6925 46.7266C43.6925 46.7266 61.3351 47.696 61.0427 47.9283" stroke="#343843" stroke-width="0.2" stroke-linecap="round" stroke-linejoin="round"/>
<path d="M69.1722 48.0933L63.1577 47.971L44.9503 43.226C42.1268 42.2634 40.2139 43.0018 38.8958 45.4833L28.1895 66.1267L33.7849 68.773L44.4041 50.8248L59.4503 56.2351C60.1664 56.4579 60.9083 56.5828 61.6562 56.6048C61.7041 56.6063 61.7415 56.6072 61.7647 56.6076C63.2778 56.6333 65.2466 56.3013 66.8957 54.7092C68.7224 52.9458 69.2974 50.6341 69.1722 48.0932V48.0933Z" fill="#B6D0BB" stroke="#343843" stroke-width="0.2" stroke-linecap="round" stroke-linejoin="round"/>
<path d="M46.4546 2.94964C46.8611 2.94964 47.1905 2.61048 47.1905 2.19211C47.1905 1.77373 46.8611 1.43457 46.4546 1.43457C46.0482 1.43457 45.7188 1.77373 45.7188 2.19211C45.7188 2.61048 46.0482 2.94964 46.4546 2.94964Z" fill="white" stroke="#343843" stroke-width="0.2" stroke-linecap="round" stroke-linejoin="round"/>
<path d="M48.6265 2.94964C49.0329 2.94964 49.3624 2.61048 49.3624 2.19211C49.3624 1.77373 49.0329 1.43457 48.6265 1.43457C48.2201 1.43457 47.8906 1.77373 47.8906 2.19211C47.8906 2.61048 48.2201 2.94964 48.6265 2.94964Z" fill="white" stroke="#343843" stroke-width="0.2" stroke-linecap="round" stroke-linejoin="round"/>
<path d="M50.7984 2.94964C51.2048 2.94964 51.5343 2.61048 51.5343 2.19211C51.5343 1.77373 51.2048 1.43457 50.7984 1.43457C50.392 1.43457 50.0625 1.77373 50.0625 2.19211C50.0625 2.61048 50.392 2.94964 50.7984 2.94964Z" fill="#E6933B" stroke="#343843" stroke-width="0.2" stroke-linecap="round" stroke-linejoin="round"/>
</g>
<defs>
<clipPath id="clip0_393_1353">
<rect width="85" height="70" fill="white"/>
</clipPath>
</defs>
</svg>
