<svg width="85" height="70" viewBox="0 0 85 70" fill="none" xmlns="http://www.w3.org/2000/svg">
<g clip-path="url(#clip0_393_1563)">
<path d="M28.2822 48.5381L32.1216 69.7501" stroke="#343843" stroke-width="0.2" stroke-linecap="round" stroke-linejoin="round"/>
<path d="M20.2349 27.6367L41.9429 27.6367V-2.86102e-05L20.2349 -2.86102e-05L20.2349 27.6367Z" stroke="#B6D0BB" stroke-width="0.2" stroke-linecap="round" stroke-linejoin="round"/>
<path d="M31.0889 27.6369V0" stroke="#B6D0BB" stroke-width="0.2" stroke-linecap="round" stroke-linejoin="round"/>
<path d="M20.2349 19.0312H41.7371" stroke="#B6D0BB" stroke-width="0.2" stroke-linecap="round" stroke-linejoin="round"/>
<path d="M34.8018 20.9373L39.0993 10.7793" stroke="#B6D0BB" stroke-width="0.2" stroke-linecap="round" stroke-linejoin="round"/>
<path d="M36.4614 10.454L38.5947 5.38867" stroke="#B6D0BB" stroke-width="0.2" stroke-linecap="round" stroke-linejoin="round"/>
<path d="M40.7207 35.7698L43.3788 26.1928C43.4292 26.0111 43.5905 25.8857 43.7741 25.8857H56.8391C57.1696 25.8857 57.4089 26.2105 57.4255 26.5382L54.7538 36.3129L54.5031 36.343L53.6283 36.386" fill="#343843"/>
<path d="M40.7207 35.7698L43.3788 26.1928C43.4292 26.0111 43.5905 25.8857 43.7741 25.8857H56.8391C57.1696 25.8857 57.4089 26.2105 57.4255 26.5382L54.7538 36.3129L54.5031 36.343L53.6283 36.386" stroke="#343843" stroke-width="0.2" stroke-linecap="round" stroke-linejoin="round"/>
<path d="M54.4374 35.987L57.0629 26.3196C57.1221 26.1017 56.963 25.8857 56.7432 25.8857H43.4577C43.2741 25.8857 43.1128 26.0111 43.0624 26.1928L40.4043 35.7698" fill="white"/>
<path d="M54.4374 35.987L57.0629 26.3196C57.1221 26.1017 56.963 25.8857 56.7432 25.8857H43.4577C43.2741 25.8857 43.1128 26.0111 43.0624 26.1928L40.4043 35.7698" stroke="#343843" stroke-width="0.2" stroke-linecap="round" stroke-linejoin="round"/>
<path d="M54.2468 35.2372L56.69 26.4764C56.7233 26.3555 56.6351 26.2354 56.5131 26.2354H43.5547C43.4406 26.2354 43.3402 26.3129 43.3083 26.4258L40.7993 35.227L54.2467 35.2372H54.2468Z" fill="#FCF4EB" stroke="#343843" stroke-width="0.2" stroke-linecap="round" stroke-linejoin="round"/>
<path d="M72.554 36.1689H58.2065V38.1232H72.554V36.1689Z" fill="#343843" stroke="#343843" stroke-width="0.2" stroke-linecap="round" stroke-linejoin="round"/>
<path d="M47.5788 35.4443H47.3678C47.193 35.4443 47.0513 35.5902 47.0513 35.7702C47.0513 35.9501 47.193 36.096 47.3678 36.096H47.5788C47.7537 36.096 47.8954 35.9501 47.8954 35.7702C47.8954 35.5902 47.7537 35.4443 47.5788 35.4443Z" fill="white" stroke="#343843" stroke-width="0.2" stroke-linecap="round" stroke-linejoin="round"/>
<path d="M48.6345 35.4443H48.4235C48.2487 35.4443 48.1069 35.5902 48.1069 35.7702C48.1069 35.9501 48.2487 36.096 48.4235 36.096H48.6345C48.8093 36.096 48.951 35.9501 48.951 35.7702C48.951 35.5902 48.8093 35.4443 48.6345 35.4443Z" fill="white" stroke="#343843" stroke-width="0.2" stroke-linecap="round" stroke-linejoin="round"/>
<path d="M49.6892 35.4443H49.4782C49.3033 35.4443 49.1616 35.5902 49.1616 35.7702C49.1616 35.9501 49.3033 36.096 49.4782 36.096H49.6892C49.864 36.096 50.0057 35.9501 50.0057 35.7702C50.0057 35.5902 49.864 35.4443 49.6892 35.4443Z" fill="white" stroke="#343843" stroke-width="0.2" stroke-linecap="round" stroke-linejoin="round"/>
<path d="M39.5603 35.4443H39.3493C39.1744 35.4443 39.0327 35.5902 39.0327 35.7702C39.0327 35.9501 39.1744 36.096 39.3493 36.096H39.5603C39.7351 36.096 39.8768 35.9501 39.8768 35.7702C39.8768 35.5902 39.7351 35.4443 39.5603 35.4443Z" fill="white" stroke="#343843" stroke-width="0.2" stroke-linecap="round" stroke-linejoin="round"/>
<path d="M38.5051 35.4443H38.2941C38.1193 35.4443 37.9775 35.5902 37.9775 35.7702C37.9775 35.9501 38.1193 36.096 38.2941 36.096H38.5051C38.6799 36.096 38.8216 35.9501 38.8216 35.7702C38.8216 35.5902 38.6799 35.4443 38.5051 35.4443Z" fill="white" stroke="#343843" stroke-width="0.2" stroke-linecap="round" stroke-linejoin="round"/>
<path d="M40.615 35.4443H40.4039C40.2291 35.4443 40.0874 35.5902 40.0874 35.7702C40.0874 35.9501 40.2291 36.096 40.4039 36.096H40.615C40.7898 36.096 40.9315 35.9501 40.9315 35.7702C40.9315 35.5902 40.7898 35.4443 40.615 35.4443Z" fill="white" stroke="#343843" stroke-width="0.2" stroke-linecap="round" stroke-linejoin="round"/>
<path d="M45.8908 35.4443H45.6798C45.505 35.4443 45.3633 35.5902 45.3633 35.7702C45.3633 35.9501 45.505 36.096 45.6798 36.096H45.8908C46.0657 36.096 46.2074 35.9501 46.2074 35.7702C46.2074 35.5902 46.0657 35.4443 45.8908 35.4443Z" fill="white" stroke="#343843" stroke-width="0.2" stroke-linecap="round" stroke-linejoin="round"/>
<path d="M44.8355 36.096H44.6245C44.4497 36.096 41.1426 35.9502 41.1426 35.7702C41.1426 35.5902 41.2843 35.4443 41.4591 35.4443H44.8355C45.0104 35.4443 45.1521 35.5902 45.1521 35.7702C45.1521 35.9502 45.0104 36.096 44.8355 36.096Z" fill="white" stroke="#343843" stroke-width="0.2" stroke-linecap="round" stroke-linejoin="round"/>
<path d="M41.3026 35.6485H54.5428V36.0541C54.5428 36.1449 54.4712 36.2188 54.3829 36.2188H41.3025C41.2143 36.2188 41.1426 36.145 41.1426 36.0541V35.8131C41.1426 35.7223 41.2142 35.6484 41.3025 35.6484L41.3026 35.6485Z" fill="#343843" stroke="#343843" stroke-width="0.2" stroke-linecap="round" stroke-linejoin="round"/>
<path d="M50.5311 35.6484H37.5575C37.4397 35.6484 37.3442 35.7467 37.3442 35.8679V35.9992C37.3442 36.1204 37.4397 36.2187 37.5575 36.2187H50.5311C50.6489 36.2187 50.7444 36.1204 50.7444 35.9992V35.8679C50.7444 35.7467 50.6489 35.6484 50.5311 35.6484Z" fill="white" stroke="#343843" stroke-width="0.2" stroke-linecap="round" stroke-linejoin="round"/>
<path d="M58.1602 38.3086L60.9522 69.8538" stroke="#343843" stroke-width="0.2" stroke-linecap="round" stroke-linejoin="round"/>
<path d="M16.1402 38.3086L12.7861 70.0003" stroke="#343843" stroke-width="0.2" stroke-linecap="round" stroke-linejoin="round"/>
<path d="M9.06689 69.876H75.8566" stroke="#343843" stroke-width="0.2" stroke-linecap="round" stroke-linejoin="round"/>
<path d="M68.7114 38.3086L72.0311 69.8538" stroke="#343843" stroke-width="0.2" stroke-linecap="round" stroke-linejoin="round"/>
<path d="M26.6917 38.3086L23.8652 70.0003" stroke="#343843" stroke-width="0.2" stroke-linecap="round" stroke-linejoin="round"/>
<path d="M59.8925 36.1689H12.2983V38.1232H59.8925V36.1689Z" fill="white" stroke="#343843" stroke-width="0.2" stroke-linecap="round" stroke-linejoin="round"/>
<path d="M58.1203 31.96H55.085V36.1732H58.1203V31.96Z" fill="#5976C6" stroke="#343843" stroke-width="0.2" stroke-linecap="round" stroke-linejoin="round"/>
<path d="M59.3889 33.7562C59.3889 34.4057 58.9508 34.9317 58.4101 34.9317C58.3094 34.9317 58.2123 34.9135 58.1206 34.8792V32.6332C58.2122 32.5994 58.3094 32.5811 58.4101 32.5811C58.9508 32.5811 59.3889 33.1071 59.3889 33.7562Z" stroke="#343843" stroke-width="0.2" stroke-linecap="round" stroke-linejoin="round"/>
<path d="M50.7859 30.7872C50.6392 31.0349 50.4559 31.2442 50.2453 31.4129C49.5219 31.9961 48.4938 32.0895 47.662 31.5677C47.3926 31.3986 47.1693 31.1814 46.9967 30.9321C46.4821 30.1923 46.4143 29.1786 46.9037 28.3528C47.5565 27.2487 48.9552 26.8993 50.0269 27.5712C51.0994 28.2432 51.4389 29.6831 50.7859 30.7872Z" fill="white" stroke="#343843" stroke-width="0.2" stroke-linecap="round" stroke-linejoin="round"/>
<path d="M48.985 29.3375C49.4009 29.3375 49.738 28.9904 49.738 28.5623C49.738 28.1342 49.4009 27.7871 48.985 27.7871C48.5691 27.7871 48.2319 28.1342 48.2319 28.5623C48.2319 28.9904 48.5691 29.3375 48.985 29.3375Z" fill="#E6933B" stroke="#343843" stroke-width="0.2" stroke-linecap="round" stroke-linejoin="round"/>
<path d="M50.2452 31.4132C49.5218 31.9964 48.4937 32.0898 47.6619 31.568C47.3926 31.3989 47.1692 31.1816 46.9966 30.9324C47.2364 30.1457 48.001 29.6319 48.8192 29.753C49.6375 29.8741 50.2304 30.5888 50.2452 31.4132Z" fill="#E6933B" stroke="#343843" stroke-width="0.2" stroke-linecap="round" stroke-linejoin="round"/>
<path d="M48.2516 33.7947L48.3867 33.6508L48.5639 33.8331C48.4613 33.9387 48.3028 33.9291 48.2003 33.8236L47.7306 33.3401C47.6281 33.2345 47.6188 33.0714 47.7214 32.9658L47.9067 33.1567L47.7693 33.3079" fill="#343843"/>
<path d="M47.7913 32.8941L47.9767 33.0849C48.0145 33.1238 48.0154 33.1864 47.9789 33.2264L47.873 33.3429L48.2114 33.6913L48.3157 33.5803C48.3342 33.5606 48.3595 33.5495 48.386 33.5492C48.4124 33.549 48.438 33.5598 48.4568 33.579L48.6339 33.7614C48.6725 33.8011 48.6725 33.8655 48.6339 33.9053C48.4954 34.0479 48.2742 34.0437 48.1305 33.8957L47.6609 33.4123C47.5171 33.2642 47.5131 33.0367 47.6516 32.8941C47.6902 32.8543 47.7528 32.8543 47.7914 32.8941H47.7913ZM47.7691 33.1592L47.7481 33.1376C47.7475 33.1512 47.7487 33.1649 47.7515 33.1785L47.7691 33.1592ZM48.3974 33.8059L48.3881 33.7963L48.3793 33.8057C48.3853 33.8061 48.3913 33.8062 48.3974 33.8059Z" fill="#343843"/>
<path d="M51.4303 33.1059V33.7666C51.4303 33.7765 51.4235 33.7806 51.4206 33.7819C51.4176 33.7832 51.4101 33.7856 51.4031 33.779L51.1548 33.5952V33.2771L51.4031 33.0933C51.4101 33.0867 51.4176 33.0891 51.4206 33.0904C51.4235 33.0917 51.4303 33.0959 51.4303 33.1057V33.1059Z" fill="#343843"/>
<path d="M50.2076 33.0889H51.1217C51.1455 33.0889 51.165 33.1089 51.165 33.1334V33.7398C51.165 33.7644 51.1455 33.7843 51.1217 33.7843H50.2076C50.1836 33.7843 50.1641 33.7642 50.1641 33.7395V33.1337C50.1641 33.109 50.1836 33.0889 50.2076 33.0889Z" fill="#343843"/>
<path d="M45.9916 33.5088C45.9916 33.6739 45.8605 33.8089 45.7001 33.8089H45.6621C45.5018 33.8089 45.3706 33.6739 45.3706 33.5088" fill="white"/>
<path d="M45.7 33.8491H45.662C45.4795 33.8491 45.3311 33.6963 45.3311 33.5084C45.3311 33.4859 45.3487 33.4678 45.3705 33.4678C45.3924 33.4678 45.41 33.4859 45.41 33.5084C45.41 33.6514 45.5231 33.7679 45.662 33.7679H45.7C45.839 33.7679 45.9521 33.6514 45.9521 33.5084C45.9521 33.4859 45.9697 33.4678 45.9916 33.4678C46.0134 33.4678 46.031 33.4859 46.031 33.5084C46.031 33.6963 45.8826 33.8491 45.7 33.8491Z" fill="#343843"/>
<path d="M45.6814 32.7939H45.6813C45.5626 32.7939 45.4663 32.8931 45.4663 33.0153V33.4654C45.4663 33.5877 45.5626 33.6868 45.6813 33.6868H45.6814C45.8002 33.6868 45.8965 33.5877 45.8965 33.4654V33.0153C45.8965 32.8931 45.8002 32.7939 45.6814 32.7939Z" fill="#343843"/>
<path d="M45.6811 34.0789C45.6592 34.0789 45.6416 34.0607 45.6416 34.0383V33.8082C45.6416 33.7857 45.6592 33.7676 45.6811 33.7676C45.7029 33.7676 45.7205 33.7857 45.7205 33.8082V34.0383C45.7205 34.0607 45.7029 34.0789 45.6811 34.0789Z" fill="#343843"/>
<path d="M45.8264 34.0793H45.536C45.5142 34.0793 45.4966 34.0612 45.4966 34.0387C45.4966 34.0162 45.5142 33.998 45.536 33.998H45.8264C45.8483 33.998 45.8659 34.0162 45.8659 34.0387C45.8659 34.0612 45.8483 34.0793 45.8264 34.0793Z" fill="#343843"/>
<path d="M51.4725 69.8458H43.4626L42.25 66.8585L47.0737 65.6045C47.0737 65.6045 47.9529 67.7097 49.56 67.847C52.0964 68.0643 51.4725 69.8458 51.4725 69.8458Z" fill="#343843" stroke="#343843" stroke-width="0.2" stroke-linecap="round" stroke-linejoin="round"/>
<path d="M41.9765 68.2202L30.6157 47.0404H23.4163C21.077 47.0404 18.5237 46.1178 18.5983 42.8803C18.6538 40.4739 18.6434 39.4551 18.6434 39.4551H31.6739C33.2433 39.4551 35.9863 40.3602 36.659 41.7043L48.5321 66.3486L41.9765 68.2202Z" fill="#B6D0BB"/>
<path d="M43.711 67.7254L32.1274 46.0166" stroke="#D86D94" stroke-width="0.2" stroke-linecap="round" stroke-linejoin="round"/>
<path d="M41.9765 68.2202L30.6157 47.0404H23.4163C21.077 47.0404 18.5237 46.1178 18.5983 42.8803C18.6538 40.4739 18.6434 39.4551 18.6434 39.4551H31.6739C33.2433 39.4551 35.9863 40.3602 36.659 41.7043L48.5321 66.3486L41.9765 68.2202Z" stroke="#343843" stroke-width="0.2" stroke-linecap="round" stroke-linejoin="round"/>
<path d="M36.7963 69.8757H35.552L29.0444 67.3849L30.0903 64.3506L34.4639 66.1045C34.4639 66.1045 34.2994 67.1653 35.7421 67.9078C37.7861 68.9604 36.7961 69.8757 36.7961 69.8757H36.7963Z" fill="#343843" stroke="#343843" stroke-width="0.2" stroke-linecap="round" stroke-linejoin="round"/>
<path d="M26.4352 39.4551H39.2137C41.4733 39.4551 43.5946 42.0795 43.0402 44.8671C42.9382 45.3795 35.6489 66.7527 35.6489 66.7527L29.2594 64.332L35.4703 47.0403H26.4351" fill="#B6D0BB"/>
<path d="M31.0541 64.9837L37.831 45.5729C37.9216 45.2988 37.7243 45.0139 37.443 45.0125L32.6716 44.9921C30.7479 44.9921 28.562 43.4937 29.1806 39.4414" stroke="#D86D94" stroke-width="0.2" stroke-linecap="round" stroke-linejoin="round"/>
<path d="M26.4355 39.4553H39.2141C41.6635 39.4254 43.8355 42.5633 42.9112 45.2764C42.743 45.77 35.6494 66.7529 35.6494 66.7529L29.2599 64.3322L35.4708 47.0405H26.4355" stroke="#343843" stroke-width="0.2" stroke-linecap="round" stroke-linejoin="round"/>
<path d="M41.1594 31.9575C41.1397 31.9773 41.2446 32.4537 41.768 32.6218C41.7596 32.5954 41.7571 32.5655 41.7609 32.5314C41.7738 32.4059 41.5909 32.1364 41.4103 31.9053C41.274 31.9252 41.1727 31.9435 41.1594 31.9574V31.9575Z" fill="#FFFDFD" stroke="#343843" stroke-width="0.2" stroke-linecap="round" stroke-linejoin="round"/>
<path d="M41.4102 31.9053C41.5907 32.1365 41.7736 32.4059 41.7607 32.5315C41.7569 32.5656 41.7595 32.5955 41.7678 32.6219C41.8167 32.6371 41.8683 32.6505 41.925 32.6599C42.0081 32.6743 42.0998 32.682 42.2014 32.6799C42.2342 32.6792 42.2671 32.6786 42.2985 32.678C42.254 32.4485 42.0591 32.1191 41.881 31.8555" fill="#FFFDFD"/>
<path d="M41.4102 31.9053C41.5907 32.1365 41.7736 32.4059 41.7607 32.5315C41.7569 32.5656 41.7595 32.5955 41.7678 32.6219C41.8167 32.6371 41.8683 32.6505 41.925 32.6599C42.0081 32.6743 42.0998 32.682 42.2014 32.6799C42.2342 32.6792 42.2671 32.6786 42.2985 32.678C42.254 32.4485 42.0591 32.1191 41.881 31.8555" stroke="#343843" stroke-width="0.2" stroke-linecap="round" stroke-linejoin="round"/>
<path d="M41.8813 31.8555C42.0595 32.1191 42.2544 32.4485 42.2989 32.678C42.5012 32.6745 42.662 32.6753 42.7884 32.7C42.8089 32.4077 42.6731 32.0868 42.543 31.8738" fill="#FFFDFD"/>
<path d="M41.8813 31.8555C42.0595 32.1191 42.2544 32.4485 42.2989 32.678C42.5012 32.6745 42.662 32.6753 42.7884 32.7C42.8089 32.4077 42.6731 32.0868 42.543 31.8738" stroke="#343843" stroke-width="0.2" stroke-linecap="round" stroke-linejoin="round"/>
<path d="M44.1573 32.0114C43.9365 31.6768 42.9588 31.1346 41.5727 30.9679C40.818 30.8771 37.3043 31.297 36.5771 31.3859L36.4219 31.3756L38.6469 34.4919C38.6469 34.4919 41.3906 33.5065 41.8211 33.4344C42.5777 33.3077 43.2457 33.2164 43.1232 32.9429C43.0007 32.6694 42.7262 32.6686 42.2015 32.6795C41.3002 32.6983 41.135 31.9814 41.1599 31.9572C41.2014 31.9173 41.7911 31.8222 42.2371 31.8468C42.8682 31.8814 43.2753 32.0212 43.9263 32.2534C44.0927 32.3127 44.2214 32.1083 44.1575 32.0115L44.1573 32.0114Z" fill="#FFFDFD" stroke="#343843" stroke-width="0.2" stroke-linecap="round" stroke-linejoin="round"/>
<path d="M47.1715 25.6489C47.2718 25.5327 47.4 25.3671 47.4009 25.2571C47.403 24.9964 47.1225 25.0898 46.8149 25.286L46.8089 25.2921C47.0728 24.9669 46.7628 24.8953 46.6665 24.9314C45.8782 25.2265 45.1369 25.4783 44.5996 25.6541L44.5876 25.65L44.6309 25.6373C44.983 25.2878 45.2189 24.9374 45.014 24.8122C44.7912 24.6763 44.2508 25.1685 43.5862 25.506C42.9132 25.8476 40.8369 26.7488 40.8369 26.7488L42.887 29.0476C42.887 29.0476 44.5835 28.4227 45.2845 28.0693C46.4935 27.4599 47.1578 27.0159 47.2606 26.5239C47.2767 26.4469 47.2518 26.289 47.0235 26.3961L47.0213 26.3974C47.2813 26.1706 47.4643 25.9651 47.5036 25.8786C47.5912 25.686 47.4344 25.5049 47.1715 25.6489Z" fill="#FFFDFD"/>
<path d="M42.8867 29.048C42.8867 29.048 44.5832 28.423 45.2842 28.0697C46.4931 27.4602 47.1575 27.0162 47.2603 26.5243C47.2765 26.4473 47.2515 26.2894 47.0231 26.3964" stroke="#343843" stroke-width="0.2" stroke-linecap="round" stroke-linejoin="round"/>
<path d="M40.8369 26.7487C40.8369 26.7487 42.9133 25.8475 43.5862 25.5059C44.2508 25.1686 44.7912 24.6763 45.014 24.8122C45.2189 24.9373 44.983 25.2877 44.6309 25.6373" stroke="#343843" stroke-width="0.2" stroke-linecap="round" stroke-linejoin="round"/>
<path d="M45.6953 27.1973C46.5242 26.9462 47.4106 26.0824 47.5034 25.8785C47.5911 25.6857 47.434 25.5044 47.1708 25.6489" stroke="#343843" stroke-width="0.2" stroke-linecap="round" stroke-linejoin="round"/>
<path d="M45.4658 26.6874C46.1629 26.4258 46.7865 26.0768 47.1109 25.718C47.2091 25.6093 47.3997 25.3915 47.4007 25.2576C47.4028 24.9968 47.1224 25.0902 46.8147 25.2865" stroke="#343843" stroke-width="0.2" stroke-linecap="round" stroke-linejoin="round"/>
<path d="M43.7573 25.9215C43.7573 25.9215 45.1229 25.5093 46.6665 24.9314C46.7653 24.8944 47.0905 24.9697 46.7894 25.3165C46.409 25.7549 45.2233 26.1111 45.2233 26.1111" stroke="#343843" stroke-width="0.2" stroke-linecap="round" stroke-linejoin="round"/>
<path d="M28.0112 38.9536L39.0108 35.0213L38.045 30.7539L29.1875 33.4652" fill="white"/>
<path d="M28.0112 38.9536L39.0108 35.0213L38.045 30.7539L29.1875 33.4652" stroke="#343843" stroke-width="0.2" stroke-linecap="round" stroke-linejoin="round"/>
<path d="M41.6665 25.6813L33.9139 31.4134L30.8809 25.6997L30.8805 25.7002C30.4408 24.6602 29.5128 23.7067 27.4881 23.7067L20.5657 23.6973C20.1878 23.6967 19.8109 23.7568 19.4554 23.8891C18.8279 24.1226 18.0122 24.6276 17.8076 25.6973C17.5824 26.8744 18.6115 39.4548 18.6115 39.4548H31.6735C31.6918 38.9693 31.7081 38.5043 31.7223 38.059C32.6141 38.5146 33.7204 38.4203 34.5374 37.7254L44.4024 29.335L41.6665 25.6811V25.6813Z" fill="#5976C6" stroke="#343843" stroke-width="0.2" stroke-linecap="round" stroke-linejoin="round"/>
<path d="M27.0957 29.6035L30.5497 36.8532C30.6366 37.033 30.7448 37.2053 30.8743 37.3669C31.1145 37.6661 31.4046 37.8979 31.7219 38.06" fill="#5976C6"/>
<path d="M27.0957 29.6035L30.5497 36.8532C30.6366 37.033 30.7448 37.2053 30.8743 37.3669C31.1145 37.6661 31.4046 37.8979 31.7219 38.06" stroke="#343843" stroke-width="0.2" stroke-linecap="round" stroke-linejoin="round"/>
<path d="M30.4149 18.8622C30.2904 19.7354 29.612 19.8875 29.3967 20.4273C29.1752 20.9856 29.46 21.7361 29.0549 22.2781C28.4893 23.033 27.8679 22.743 27.411 23.1069C27.2263 23.2535 27.0828 23.4773 26.9425 23.7064L20.5368 23.6977C20.2635 23.6977 19.9903 23.7292 19.7254 23.7977C19.584 23.7651 19.4543 23.713 19.3445 23.6271C18.8834 23.2644 18.8919 22.4052 18.5395 21.9349C18.187 21.4646 17.5065 21.5352 17.152 20.7054C16.808 19.8994 17.3535 19.4237 17.2754 18.8263C17.1994 18.2485 16.5611 17.9476 16.674 17.0472C16.7742 16.2402 17.5213 16.1858 17.7354 15.646C17.9581 15.0877 17.4875 14.4686 18.0341 13.6312C18.4856 12.9382 19.2211 13.1652 19.6779 12.8025C20.1348 12.4397 20.0346 11.6837 20.8713 11.3741C21.6405 11.0907 22.033 11.7912 22.6133 11.7109C23.1746 11.6337 23.8373 10.8039 24.426 10.881C25.5698 11.0331 25.4221 11.7087 25.9465 11.9303C26.4888 12.1584 27.1082 11.8358 27.7444 12.2822C28.5368 12.8383 28.196 13.5041 28.5495 13.9744C28.9019 14.4436 29.6162 14.4339 29.937 15.2029C30.2735 16.011 29.7354 16.4845 29.8135 17.083C29.8895 17.6609 30.5015 18.2572 30.4149 18.8622Z" fill="#E6933B" stroke="#343843" stroke-width="0.2" stroke-linecap="round" stroke-linejoin="round"/>
<path d="M27.4975 17.4881C27.4975 17.4881 26.3627 17.1945 25.6344 16.2691C25.6344 16.2691 25.4115 17.0736 24.1546 17.0466C22.8978 17.0195 22.8646 17.5563 22.6359 18.0374C22.4071 18.5185 21.552 18.4099 21.552 18.4099L20.1289 17.2987L21.864 14.416L26.8089 14.5826L27.1236 16.1531L27.4974 17.4881H27.4975Z" fill="#E6933B"/>
<path d="M28.3862 18.8065L28.0293 18.3332C28.0602 17.6623 28.0544 17.0017 28.0053 16.5409C27.9778 16.2813 27.924 16.0923 27.8808 15.9858C27.4861 15.0267 26.7771 14.5706 25.5236 14.5521C23.9103 14.5293 22.5608 15.6665 22.3297 17.1285C22.277 17.4619 22.2358 19.1933 22.2358 19.4192C22.2327 20.5162 22.1968 23.5553 22.1968 23.5553C22.1968 23.5553 22.1968 23.6096 22.2063 23.6998L25.9826 23.7052V23.6867L26.0195 21.7816C26.9251 21.735 27.3405 21.3276 27.6233 20.8573C27.7856 20.5868 27.9077 19.8843 27.9786 19.0908L28.3423 19.0098C28.4231 18.9774 28.446 18.871 28.3862 18.8065Z" fill="white" stroke="#343843" stroke-width="0.2" stroke-linecap="round" stroke-linejoin="round"/>
<path d="M27.8919 17.668L27.8934 17.6513C27.8943 17.6288 27.8897 17.608 27.8798 17.5885C27.8735 17.5683 27.8625 17.5508 27.8471 17.5361C27.8327 17.5202 27.8158 17.5089 27.7961 17.5024C27.7772 17.4922 27.757 17.4875 27.7351 17.4884L27.693 17.4942C27.6662 17.502 27.6429 17.516 27.6232 17.5362L27.5984 17.5692C27.5841 17.5946 27.5769 17.622 27.5768 17.6514L27.5753 17.6681C27.5745 17.6906 27.579 17.7115 27.5889 17.7309C27.5952 17.7511 27.6062 17.7686 27.6216 17.7834C27.636 17.7992 27.653 17.8105 27.6726 17.8171C27.6915 17.8273 27.7117 17.8319 27.7336 17.8311L27.7757 17.8252C27.8025 17.8175 27.8258 17.8035 27.8455 17.7833L27.8703 17.7503C27.8847 17.7248 27.8918 17.6975 27.8919 17.668Z" fill="#343843"/>
<path d="M27.9587 16.9556C27.9587 16.9556 27.3572 16.8361 27.21 17.3156L27.9587 16.9556Z" fill="white"/>
<path d="M27.9587 16.9556C27.9587 16.9556 27.3572 16.8361 27.21 17.3156" stroke="#343843" stroke-width="0.2" stroke-linecap="round" stroke-linejoin="round"/>
<path d="M25.2051 21.6719C25.6517 21.8499 26.0086 21.787 26.0086 21.787" stroke="#343843" stroke-width="0.2" stroke-linecap="round" stroke-linejoin="round"/>
<path d="M25.9942 22.8722L25.1577 21.7139L26.0122 21.8047L25.9942 22.8722Z" fill="#343843"/>
<path d="M27.1138 19.4492C27.1138 19.4492 27.246 19.9485 27.8578 19.8687L27.1138 19.4492Z" fill="white"/>
<path d="M27.1138 19.4492C27.1138 19.4492 27.246 19.9485 27.8578 19.8687" stroke="#343843" stroke-width="0.2" stroke-linecap="round" stroke-linejoin="round"/>
<path d="M28.4206 15.3559L27.4862 13.377L20.8461 13.5026L19.519 23.7171C20.3022 23.9745 20.7553 23.7301 21.1659 23.6978C21.7531 23.6516 22.2437 24.3129 22.6857 24.2286C23.2482 24.1214 23.5303 23.498 23.9011 23.1937C24.315 22.8539 24.95 22.6968 25.1773 22.2371C25.4222 21.7419 25.1696 21.0695 25.2646 20.5953C25.4399 19.7207 25.8716 19.8525 25.8479 19.0613C25.8479 19.0613 25.5244 18.1142 25.9492 17.587C26.2597 17.2017 26.7956 17.6988 26.9315 16.6088C27.0878 15.3549 28.5594 16.4302 28.4206 15.3558V15.3559Z" fill="#E6933B"/>
<path d="M25.9487 17.5876C26.2593 17.2023 26.7952 17.6994 26.9311 16.6094C27.0229 15.8726 27.4861 15.9404 27.873 15.9033" stroke="#343843" stroke-width="0.2" stroke-linecap="round" stroke-linejoin="round"/>
<path d="M25.8474 19.0615C25.8711 19.8528 25.4394 19.7209 25.2642 20.5955C25.1691 21.0697 25.4218 21.7422 25.1768 22.2374C24.9495 22.6969 24.3144 22.8542 23.9006 23.1939C23.5298 23.4983 23.2477 24.1216 22.6852 24.2288C22.2432 24.3131 21.7543 23.6903 21.1654 23.698C20.7173 23.7039 20.3018 23.9748 19.5186 23.7174" stroke="#343843" stroke-width="0.2" stroke-linecap="round" stroke-linejoin="round"/>
<path d="M25.9975 19.47C25.4984 19.4658 25.097 19.0402 25.1011 18.5194C25.1051 18.0209 25.4793 17.6171 25.949 17.5869" fill="white"/>
<path d="M25.9975 19.47C25.4984 19.4658 25.097 19.0402 25.1011 18.5194C25.1051 18.0209 25.4793 17.6171 25.949 17.5869" stroke="#343843" stroke-width="0.2" stroke-linecap="round" stroke-linejoin="round"/>
<path d="M28.4719 46.2472L24.6343 30.3245C24.5499 29.9504 24.226 29.6855 23.8529 29.6855H12.0458C11.5298 29.6855 11.1481 30.1796 11.264 30.6971L15.3635 47.8978C15.4475 48.2725 15.7717 48.538 16.1453 48.538H36.2003C36.6434 48.538 37.0025 48.1682 37.0025 47.7121C37.0025 47.2561 36.6434 46.8863 36.2003 46.8863H29.2535C28.8803 46.8863 28.5564 46.6215 28.472 46.2474L28.4719 46.2472Z" fill="#FCF4EB" stroke="#343843" stroke-width="0.2" stroke-linecap="round" stroke-linejoin="round"/>
<path d="M17.742 48.5381L15.8618 69.868" stroke="#343843" stroke-width="0.2" stroke-linecap="round" stroke-linejoin="round"/>
<path d="M34.1948 48.5381L38.0342 69.7501" stroke="#343843" stroke-width="0.2" stroke-linecap="round" stroke-linejoin="round"/>
</g>
<defs>
<clipPath id="clip0_393_1563">
<rect width="85" height="70" fill="white"/>
</clipPath>
</defs>
</svg>
